<?xml version="1.0" encoding="iso-8859-1"?>
<!-- Generator: Adobe Illustrator 19.0.0, SVG Export Plug-In . SVG Version: 6.00 Build 0)  -->
<svg version="1.1" id="Capa_1" xmlns="http://www.w3.org/2000/svg" xmlns:xlink="http://www.w3.org/1999/xlink" x="0px" y="0px"
	 viewBox="0 0 512 512" style="enable-background:new 0 0 512 512;" xml:space="preserve">
<path style="fill:#13C37B;" d="M497,0h-96.4c-8.284,0-15,6.716-15,15v482c0,8.284,6.716,15,15,15H497c8.284,0,15-6.716,15-15V15
	C512,6.716,505.284,0,497,0z"/>
<path style="fill:#61DE56;" d="M400.6,96.4h-96.4c-8.284,0-15,6.716-15,15V497c0,8.284,6.716,15,15,15h96.4c8.284,0,15-6.716,15-15
	V111.4C415.6,103.116,408.884,96.4,400.6,96.4z"/>
<path style="fill:#FED42D;" d="M304.199,192.801h-96.4c-8.284,0-15,6.716-15,15V497c0,8.284,6.716,15,15,15h96.4
	c8.284,0,15-6.716,15-15V207.801C319.199,199.517,312.483,192.801,304.199,192.801z"/>
<path style="fill:#FD3018;" d="M207.799,289.2H111.4c-8.284,0-15,6.716-15,15V497c0,8.284,6.716,15,15,15h96.399
	c8.284,0,15-6.716,15-15V304.2C222.799,295.916,216.083,289.2,207.799,289.2z"/>
<path style="fill:#E61E14;" d="M111.399,385.6H15c-8.284,0-15,6.716-15,15V497c0,8.284,6.716,15,15,15h96.399
	c8.284,0,15-6.716,15-15v-96.4C126.399,392.315,119.684,385.6,111.399,385.6z"/>
<g>
</g>
<g>
</g>
<g>
</g>
<g>
</g>
<g>
</g>
<g>
</g>
<g>
</g>
<g>
</g>
<g>
</g>
<g>
</g>
<g>
</g>
<g>
</g>
<g>
</g>
<g>
</g>
<g>
</g>
</svg>
