<?xml version="1.0" encoding="iso-8859-1"?>
<!-- Generator: Adobe Illustrator 19.0.0, SVG Export Plug-In . SVG Version: 6.00 Build 0)  -->
<svg version="1.1" id="Capa_1" xmlns="http://www.w3.org/2000/svg" xmlns:xlink="http://www.w3.org/1999/xlink" x="0px" y="0px"
	 viewBox="0 0 512 512" style="enable-background:new 0 0 512 512;" xml:space="preserve">
<path style="fill:#4DBBEB;" d="M416.667,0H95.333C42.766,0,0,42.767,0,95.334v321.332C0,469.233,42.766,512,95.333,512h321.334
	C469.234,512,512,469.233,512,416.666V95.334C512,42.767,469.234,0,416.667,0z"/>
<path id="SVGCleanerId_0" style="fill:#2488FF;" d="M416.667,0H256v512h160.667C469.234,512,512,469.233,512,416.666V95.334
	C512,42.767,469.234,0,416.667,0z"/>
<g>
	<path id="SVGCleanerId_0_1_" style="fill:#2488FF;" d="M416.667,0H256v512h160.667C469.234,512,512,469.233,512,416.666V95.334
		C512,42.767,469.234,0,416.667,0z"/>
</g>
<g>
	<path style="fill:#F2F2F2;" d="M256,415.6c-88.004,0-159.601-71.596-159.601-159.6c0-45.335,19.387-88.69,53.189-118.951
		c6.172-5.524,15.655-5.002,21.181,1.171c5.525,6.173,5.002,15.655-1.171,21.181c-27.454,24.577-43.199,59.786-43.199,96.6
		c0,71.462,58.139,129.6,129.601,129.6c71.461,0,129.6-58.138,129.6-129.6c0-36.813-15.744-72.02-43.195-96.595
		c-6.172-5.525-6.697-15.008-1.171-21.181c5.525-6.173,15.009-6.696,21.181-1.171C396.215,167.311,415.6,210.666,415.6,256
		C415.6,344.004,344.004,415.6,256,415.6z"/>
	<path style="fill:#F2F2F2;" d="M256,289.412c-8.284,0-15-6.716-15-15V111.4c0-8.284,6.716-15,15-15s15,6.716,15,15v163.012
		C271,282.696,264.284,289.412,256,289.412z"/>
</g>
<g>
	<path style="fill:#D9D9D9;" d="M362.414,137.054c-6.172-5.525-15.655-5.002-21.181,1.171s-5.001,15.655,1.171,21.181
		C369.855,183.98,385.6,219.188,385.6,256c0,71.462-58.139,129.6-129.6,129.6l0,0v30l0,0c88.004,0,159.6-71.596,159.6-159.6
		C415.6,210.666,396.215,167.311,362.414,137.054z"/>
	<path style="fill:#D9D9D9;" d="M271,274.412V111.4c0-8.284-6.716-15-15-15l0,0v193.012l0,0
		C264.284,289.412,271,282.696,271,274.412z"/>
</g>
<g>
</g>
<g>
</g>
<g>
</g>
<g>
</g>
<g>
</g>
<g>
</g>
<g>
</g>
<g>
</g>
<g>
</g>
<g>
</g>
<g>
</g>
<g>
</g>
<g>
</g>
<g>
</g>
<g>
</g>
</svg>
