<?xml version="1.0" encoding="iso-8859-1"?>
<!-- Generator: Adobe Illustrator 19.0.0, SVG Export Plug-In . SVG Version: 6.00 Build 0)  -->
<svg version="1.1" id="Capa_1" xmlns="http://www.w3.org/2000/svg" xmlns:xlink="http://www.w3.org/1999/xlink" x="0px" y="0px"
	 viewBox="0 0 481.001 481.001" style="enable-background:new 0 0 481.001 481.001;" xml:space="preserve">
<path style="fill:#79B9E8;" d="M276.234,99.001h-69.667c-8.1,0-14.667-6.566-14.667-14.667V14.667C191.9,6.567,198.466,0,206.567,0
	h69.667c8.1,0,14.667,6.566,14.667,14.667v69.667C290.9,92.435,284.334,99.001,276.234,99.001z"/>
<path style="fill:#5286FA;" d="M240.9,0.001h35.333c8.1,0,14.667,6.566,14.667,14.667v69.667c0,8.1-6.566,14.667-14.667,14.667
	H240.9V0.001z"/>
<path style="fill:#91DC61;" d="M357.985,481.001h-234.97c-14.975,0-27.114-12.14-27.114-27.114V85.248
	c0-14.975,12.14-27.114,27.114-27.114h234.971c14.975,0,27.114,12.14,27.114,27.114v368.638
	C385.1,468.861,372.96,481.001,357.985,481.001z"/>
<g>
	<rect x="95.9" y="270.001" style="fill:#6FC17E;" width="289" height="105"/>
	<path style="fill:#6FC17E;" d="M384.9,163.001h-289c0-15.667,0-12.051,0-26.917V84.917C95.9,70.051,107.951,58,122.817,58h235.167
		c14.866,0,26.917,12.051,26.917,26.917v51.167C384.9,150.95,384.9,151.001,384.9,163.001z"/>
</g>
<g>
</g>
<g>
</g>
<g>
</g>
<g>
</g>
<g>
</g>
<g>
</g>
<g>
</g>
<g>
</g>
<g>
</g>
<g>
</g>
<g>
</g>
<g>
</g>
<g>
</g>
<g>
</g>
<g>
</g>
</svg>
