<?xml version="1.0" encoding="iso-8859-1"?>
<!-- Generator: Adobe Illustrator 19.0.0, SVG Export Plug-In . SVG Version: 6.00 Build 0)  -->
<svg version="1.1" id="Capa_1" xmlns="http://www.w3.org/2000/svg" xmlns:xlink="http://www.w3.org/1999/xlink" x="0px" y="0px"
	 viewBox="0 0 496 496" style="enable-background:new 0 0 496 496;" xml:space="preserve">
<g>
	<path style="fill:#79B9E8;" d="M199.4,57V14.667C199.4,6.567,205.966,0,214.067,0h69.667c8.1,0,14.667,6.566,14.667,14.667V57"/>
	<path style="fill:#79B9E8;" d="M199.4,57V14.667C199.4,6.567,205.966,0,214.067,0h69.667c8.1,0,14.667,6.566,14.667,14.667V57
		H199.4z"/>
</g>
<path style="fill:#5286FA;" d="M298.4,57h-49.8V0h35.333c8.1,0,14.667,6.566,14.667,14.667L298.4,57z"/>
<path style="fill:#C4231B;" d="M365.485,496h-234.97c-23.222,0-42.115-18.893-42.115-42.114V85.247
	c0-23.222,18.893-42.114,42.114-42.114h234.971c23.222,0,42.114,18.893,42.114,42.114v368.639
	C407.6,477.107,388.707,496,365.485,496z M130.516,73.133c-6.68,0-12.114,5.435-12.114,12.114v368.639
	c0,6.68,5.435,12.114,12.114,12.114h234.971c6.68,0,12.114-5.435,12.114-12.114V85.247c0-6.68-5.435-12.114-12.114-12.114H130.516z"
	/>
<path style="fill:#D9331F;" d="M248.601,466H130.516c-6.68,0-12.114-5.435-12.114-12.114V85.247c0-6.68,5.435-12.114,12.114-12.114
	h118.085v-30H130.516c-23.222,0-42.114,18.893-42.114,42.114v368.639C88.4,477.107,107.293,496,130.516,496h118.085V466z"/>
<g>
</g>
<g>
</g>
<g>
</g>
<g>
</g>
<g>
</g>
<g>
</g>
<g>
</g>
<g>
</g>
<g>
</g>
<g>
</g>
<g>
</g>
<g>
</g>
<g>
</g>
<g>
</g>
<g>
</g>
</svg>
