<?xml version="1.0" encoding="iso-8859-1"?>
<!-- Generator: Adobe Illustrator 19.0.0, SVG Export Plug-In . SVG Version: 6.00 Build 0)  -->
<svg version="1.1" id="Capa_1" xmlns="http://www.w3.org/2000/svg" xmlns:xlink="http://www.w3.org/1999/xlink" x="0px" y="0px"
	 viewBox="0 0 512 512" style="enable-background:new 0 0 512 512;" xml:space="preserve">
<path style="fill:#FED42D;" d="M416.667,0H95.333C42.766,0,0,42.767,0,95.333v321.334C0,469.233,42.766,512,95.333,512h321.334
	C469.234,512,512,469.233,512,416.667V95.333C512,42.767,469.234,0,416.667,0z"/>
<path style="fill:#FCBF29;" d="M416.667,0H256v512h160.667C469.234,512,512,469.233,512,416.666V95.334
	C512,42.767,469.234,0,416.667,0z"/>
<path style="fill:#F2F2F2;" d="M400.601,96.399H207.8c-8.284,0-15,6.716-15,15v81.4h-81.4c-8.284,0-15,6.716-15,15V400.6
	c0,8.284,6.716,15,15,15h192.8c8.284,0,15-6.716,15-15v-81.4h81.4c8.284,0,15-6.716,15-15V111.399
	C415.601,103.115,408.885,96.399,400.601,96.399z M289.2,385.601H126.4V222.8h162.8V385.601z M385.601,289.2h-66.4v-81.4
	c0-8.284-6.716-15-15-15h-81.4v-66.4h162.801v162.8H385.601z"/>
<path style="fill:#D9D9D9;" d="M400.601,96.399H256v30h129.601V289.2h-66.4v-81.4c0-8.284-6.716-15-15-15H256v30h33.2v162.801H256
	v30h48.2c8.284,0,15-6.716,15-15v-81.4h81.4c8.284,0,15-6.716,15-15V111.399C415.601,103.115,408.885,96.399,400.601,96.399z"/>
<g>
</g>
<g>
</g>
<g>
</g>
<g>
</g>
<g>
</g>
<g>
</g>
<g>
</g>
<g>
</g>
<g>
</g>
<g>
</g>
<g>
</g>
<g>
</g>
<g>
</g>
<g>
</g>
<g>
</g>
</svg>
