<?xml version="1.0" encoding="iso-8859-1"?>
<!-- Generator: Adobe Illustrator 19.0.0, SVG Export Plug-In . SVG Version: 6.00 Build 0)  -->
<svg version="1.1" id="Capa_1" xmlns="http://www.w3.org/2000/svg" xmlns:xlink="http://www.w3.org/1999/xlink" x="0px" y="0px"
	 viewBox="0 0 512 512" style="enable-background:new 0 0 512 512;" xml:space="preserve">
<path style="fill:#2488FF;" d="M504.886,98.64c-4.423-2.733-9.944-2.982-14.594-0.656l-138.96,69.481V111.4c0-8.284-6.716-15-15-15
	H15c-8.284,0-15,6.716-15,15v289.201c0,8.284,6.716,15,15,15h321.332c8.284,0,15-6.716,15-15v-56.063l138.96,69.479
	c2.117,1.059,4.415,1.584,6.707,1.584c2.743,0,5.479-0.752,7.887-2.24c4.423-2.733,7.114-7.562,7.114-12.76V111.4
	C512,106.201,509.309,101.373,504.886,98.64z"/>
<path style="fill:#006DF0;" d="M0,256v144.601c0,8.284,6.716,15,15,15h321.332c8.284,0,15-6.716,15-15v-56.063l138.96,69.479
	c2.117,1.059,4.415,1.584,6.707,1.584c2.743,0,5.479-0.752,7.887-2.24c4.423-2.733,7.114-7.562,7.114-12.76V256H0z"/>
<g>
</g>
<g>
</g>
<g>
</g>
<g>
</g>
<g>
</g>
<g>
</g>
<g>
</g>
<g>
</g>
<g>
</g>
<g>
</g>
<g>
</g>
<g>
</g>
<g>
</g>
<g>
</g>
<g>
</g>
</svg>
