<?xml version="1.0" encoding="iso-8859-1"?>
<!-- Generator: Adobe Illustrator 19.0.0, SVG Export Plug-In . SVG Version: 6.00 Build 0)  -->
<svg version="1.1" id="Capa_1" xmlns="http://www.w3.org/2000/svg" xmlns:xlink="http://www.w3.org/1999/xlink" x="0px" y="0px"
	 viewBox="0 0 512 512" style="enable-background:new 0 0 512 512;" xml:space="preserve">
<path style="fill:#2488FF;" d="M497,80.332H392.033l-43.699-58.266c-2.833-3.777-7.278-6-12-6H175.666c-4.722,0-9.167,2.223-12,6
	l-43.699,58.266H15c-8.284,0-15,6.716-15,15v385.602c0,8.284,6.716,15,15,15h482c8.284,0,15-6.716,15-15V95.332
	C512,87.048,505.284,80.332,497,80.332z"/>
<path style="fill:#006DF0;" d="M497,80.332H392.033l-43.699-58.266c-2.833-3.777-7.278-6-12-6H256v479.867h241
	c8.284,0,15-6.716,15-15V95.332C512,87.048,505.284,80.332,497,80.332z"/>
<path style="fill:#F2F2F2;" d="M256,176.732c-61.427,0-111.4,49.974-111.4,111.4c0,61.427,49.974,111.4,111.4,111.4
	s111.4-49.974,111.4-111.4S317.427,176.732,256,176.732z"/>
<path style="fill:#D9D9D9;" d="M256,176.732v222.801c61.427,0,111.4-49.974,111.4-111.4C367.4,226.706,317.427,176.732,256,176.732z
	"/>
<g>
</g>
<g>
</g>
<g>
</g>
<g>
</g>
<g>
</g>
<g>
</g>
<g>
</g>
<g>
</g>
<g>
</g>
<g>
</g>
<g>
</g>
<g>
</g>
<g>
</g>
<g>
</g>
<g>
</g>
</svg>
