<?xml version="1.0" encoding="iso-8859-1"?>
<!-- Generator: Adobe Illustrator 19.0.0, SVG Export Plug-In . SVG Version: 6.00 Build 0)  -->
<svg version="1.1" id="Capa_1" xmlns="http://www.w3.org/2000/svg" xmlns:xlink="http://www.w3.org/1999/xlink" x="0px" y="0px"
	 viewBox="0 0 512 512" style="enable-background:new 0 0 512 512;" xml:space="preserve">
<path style="fill:#61DE56;" d="M351.522,367.325l-177.63-88.815c-7.41-3.706-16.419-0.701-20.124,6.708
	c-3.705,7.409-0.702,16.42,6.708,20.124l177.631,88.815c2.153,1.077,4.441,1.587,6.696,1.587c5.502,0,10.8-3.039,13.428-8.295
	C361.935,380.04,358.933,371.029,351.522,367.325z"/>
<path style="fill:#13C37B;" d="M351.522,367.325l-95.523-47.762v33.54l82.107,41.054c2.153,1.077,4.441,1.587,6.696,1.587
	c5.502,0,10.8-3.039,13.428-8.295C361.935,380.04,358.933,371.029,351.522,367.325z"/>
<path style="fill:#61DE56;" d="M358.234,124.549c-3.704-7.409-12.713-10.416-20.124-6.708l-177.643,88.82
	c-7.41,3.704-10.413,12.715-6.708,20.124c2.628,5.257,7.925,8.295,13.428,8.295c2.254,0,4.543-0.51,6.696-1.587l177.643-88.82
	C358.936,140.969,361.94,131.958,358.234,124.549z"/>
<path style="fill:#13C37B;" d="M358.234,124.549c-3.704-7.409-12.713-10.416-20.124-6.708l-82.111,41.056v33.539l95.527-47.763
	C358.936,140.969,361.94,131.958,358.234,124.549z"/>
<g>
	<path style="fill:#2488FF;" d="M416.666,0c-52.566,0-95.332,42.767-95.332,95.333c0,52.567,42.766,95.334,95.332,95.334
		c52.567,0,95.334-42.767,95.334-95.334C512,42.767,469.233,0,416.666,0z"/>
	<path style="fill:#2488FF;" d="M416.666,321.333c-52.566,0-95.332,42.767-95.332,95.334c0,52.566,42.766,95.333,95.332,95.333
		C469.233,512,512,469.233,512,416.667C512,364.1,469.233,321.333,416.666,321.333z"/>
</g>
<path style="fill:#4DBBEB;" d="M95.334,160.667C42.767,160.667,0,203.434,0,256s42.767,95.333,95.334,95.333
	c52.566,0,95.332-42.767,95.332-95.333S147.9,160.667,95.334,160.667z"/>
<g>
</g>
<g>
</g>
<g>
</g>
<g>
</g>
<g>
</g>
<g>
</g>
<g>
</g>
<g>
</g>
<g>
</g>
<g>
</g>
<g>
</g>
<g>
</g>
<g>
</g>
<g>
</g>
<g>
</g>
</svg>
