<?xml version="1.0" encoding="iso-8859-1"?>
<!-- Generator: Adobe Illustrator 19.0.0, SVG Export Plug-In . SVG Version: 6.00 Build 0)  -->
<svg version="1.1" id="Capa_1" xmlns="http://www.w3.org/2000/svg" xmlns:xlink="http://www.w3.org/1999/xlink" x="0px" y="0px"
	 viewBox="0 0 512 512" style="enable-background:new 0 0 512 512;" xml:space="preserve">
<path style="fill:#4DBBEB;" d="M416.666,0H95.334C42.768,0,0,42.767,0,95.334v321.332C0,469.233,42.768,512,95.334,512h321.332
	C469.232,512,512,469.233,512,416.666V95.334C512,42.767,469.232,0,416.666,0z"/>
<path style="fill:#2488FF;" d="M416.666,0H255.998v512h160.668C469.232,512,512,469.233,512,416.666V95.334
	C512,42.767,469.232,0,416.666,0z"/>
<path style="fill:#F2F2F2;" d="M349.639,293.595c-5.855-5.858-15.354-5.858-21.213,0c-5.857,5.857-5.857,15.354,0,21.213
	l36.045,36.046l-70.129,0.167l-53.271-94.883l53.283-94.902l70.033-0.003l-35.961,35.962c-5.857,5.858-5.857,15.355,0,21.213
	c2.93,2.93,6.768,4.394,10.607,4.394c3.838,0,7.678-1.465,10.605-4.394l61.568-61.569c5.858-5.857,5.858-15.354,0-21.213
	L349.64,74.052c-5.859-5.856-15.355-5.857-21.215-0.001c-5.857,5.857-5.857,15.355,0,21.214l35.965,35.969l-78.818,0.003
	c-5.424,0-10.424,2.928-13.078,7.656l-48.625,86.606l-48.627-86.61c-2.654-4.729-7.654-7.656-13.078-7.656H111.4
	c-8.285,0-15,6.716-15,15s6.715,15,15,15h41.982l53.283,94.905l-53.258,94.857l-41.928-0.223c-0.027,0-0.055,0-0.082,0
	c-8.246,0-14.955,6.663-14.998,14.92c-0.045,8.284,6.637,15.036,14.92,15.08l50.764,0.269c0.027,0,0.053,0,0.08,0
	c5.42,0,10.424-2.926,13.078-7.656l48.627-86.608l48.625,86.608c2.654,4.729,7.656,7.656,13.078,7.656c0.012,0,0.025,0,0.037,0
	l78.697-0.187l-35.881,35.884c-5.857,5.858-5.857,15.355,0,21.214c2.93,2.929,6.768,4.393,10.607,4.393
	c3.838,0,7.678-1.465,10.607-4.393l61.566-61.572c5.858-5.858,5.858-15.355,0-21.213L349.639,293.595z"/>
<g>
	<path style="fill:#D9D9D9;" d="M349.639,293.595c-5.855-5.858-15.354-5.858-21.213,0c-5.857,5.857-5.857,15.354,0,21.213
		l36.045,36.046l-70.129,0.167l-38.344-68.295v61.279l16.496,29.38c2.654,4.729,7.656,7.656,13.078,7.656c0.012,0,0.025,0,0.037,0
		l78.697-0.187l-35.881,35.884c-5.857,5.858-5.857,15.355,0,21.214c2.93,2.929,6.768,4.393,10.607,4.393
		c3.838,0,7.678-1.465,10.607-4.393l61.566-61.572c5.858-5.858,5.858-15.355,0-21.213L349.639,293.595z"/>
	<path style="fill:#D9D9D9;" d="M294.353,161.235l70.033-0.003l-35.961,35.962c-5.857,5.858-5.857,15.355,0,21.213
		c2.93,2.93,6.768,4.394,10.607,4.394c3.838,0,7.678-1.465,10.605-4.394l61.568-61.569c5.858-5.857,5.858-15.354,0-21.213
		l-61.566-61.574c-5.859-5.856-15.355-5.857-21.215-0.001c-5.857,5.857-5.857,15.355,0,21.214l35.965,35.969l-78.818,0.003
		c-5.424,0-10.424,2.928-13.078,7.656l-16.496,29.38v61.278L294.353,161.235z"/>
</g>
<g>
</g>
<g>
</g>
<g>
</g>
<g>
</g>
<g>
</g>
<g>
</g>
<g>
</g>
<g>
</g>
<g>
</g>
<g>
</g>
<g>
</g>
<g>
</g>
<g>
</g>
<g>
</g>
<g>
</g>
</svg>
