<?xml version="1.0" encoding="iso-8859-1"?>
<!-- Generator: Adobe Illustrator 19.0.0, SVG Export Plug-In . SVG Version: 6.00 Build 0)  -->
<svg version="1.1" id="Capa_1" xmlns="http://www.w3.org/2000/svg" xmlns:xlink="http://www.w3.org/1999/xlink" x="0px" y="0px"
	 viewBox="0 0 512 512" style="enable-background:new 0 0 512 512;" xml:space="preserve">
<path style="fill:#2488FF;" d="M416.666,0H95.334C42.768,0,0,42.767,0,95.334v321.332C0,469.233,42.768,512,95.334,512h321.332
	C469.232,512,512,469.233,512,416.666V95.334C512,42.767,469.232,0,416.666,0z"/>
<path style="fill:#006DF0;" d="M416.666,0H255.998v512h160.668C469.232,512,512,469.233,512,416.666V95.334
	C512,42.767,469.232,0,416.666,0z"/>
<g>
	<path style="fill:#F2F2F2;" d="M144.879,326.666H126.4V185.331h124.174l-35.961,35.963c-5.859,5.858-5.859,15.355,0,21.213
		c2.928,2.93,6.768,4.394,10.605,4.394c3.84,0,7.678-1.465,10.607-4.394l61.566-61.569c5.859-5.857,5.859-15.355,0-21.213
		l-61.57-61.573c-5.858-5.859-15.355-5.857-21.213,0c-5.857,5.857-5.857,15.354,0,21.213l35.965,35.967H111.4
		c-8.285,0-15,6.716-15,15v171.335c0,8.284,6.715,15,15,15h33.479c8.285,0,15-6.716,15-15
		C159.879,333.382,153.164,326.666,144.879,326.666z"/>
	<path style="fill:#F2F2F2;" d="M400.6,155.331h-33.478c-8.285,0-15,6.716-15,15s6.715,15,15,15H385.6v141.335H261.43l35.961-35.96
		c5.857-5.857,5.857-15.355,0-21.213s-15.355-5.858-21.213,0l-61.568,61.566c-5.857,5.857-5.857,15.354,0,21.213l61.57,61.574
		c2.93,2.93,6.768,4.393,10.607,4.393c3.838,0,7.678-1.465,10.605-4.392c5.857-5.858,5.859-15.355,0.002-21.214l-35.967-35.968
		H400.6c8.283,0,15-6.716,15-15V170.331C415.6,162.047,408.883,155.331,400.6,155.331z"/>
</g>
<g>
	<path style="fill:#D9D9D9;" d="M297.393,159.725L256,118.33v104.002l41.393-41.394C303.252,175.08,303.252,165.583,297.393,159.725
		z"/>
	<path style="fill:#D9D9D9;" d="M400.6,155.331h-33.478c-8.285,0-15,6.716-15,15s6.715,15,15,15H385.6v141.335H261.43l35.961-35.96
		c5.857-5.857,5.857-15.355,0-21.213s-15.355-5.858-21.213,0L256,289.67v103.997l20.18,20.18c2.93,2.93,6.768,4.393,10.607,4.393
		c3.838,0,7.678-1.465,10.605-4.392c5.857-5.858,5.859-15.355,0.002-21.214l-35.967-35.968H400.6c8.283,0,15-6.716,15-15V170.331
		C415.6,162.047,408.883,155.331,400.6,155.331z"/>
</g>
<g>
</g>
<g>
</g>
<g>
</g>
<g>
</g>
<g>
</g>
<g>
</g>
<g>
</g>
<g>
</g>
<g>
</g>
<g>
</g>
<g>
</g>
<g>
</g>
<g>
</g>
<g>
</g>
<g>
</g>
</svg>
