<?xml version="1.0" encoding="iso-8859-1"?>
<!-- Generator: Adobe Illustrator 19.0.0, SVG Export Plug-In . SVG Version: 6.00 Build 0)  -->
<svg version="1.1" id="Capa_1" xmlns="http://www.w3.org/2000/svg" xmlns:xlink="http://www.w3.org/1999/xlink" x="0px" y="0px"
	 viewBox="0 0 512.002 512.002" style="enable-background:new 0 0 512.002 512.002;" xml:space="preserve">
<g>
	<path style="fill:#4DBBEB;" d="M511.998,63.326c0.025-12.476-3.578-24.548-10.42-34.906c-2.344-3.553-5.066-6.888-8.09-9.911
		C481.553,6.575,465.686,0.003,448.811,0.003H332.429c-16.879,0-32.748,6.574-44.686,18.512
		c-11.938,11.936-18.512,27.806-18.512,44.687c0,16.882,6.576,32.752,18.51,44.683c4.647,4.649,9.891,8.486,15.561,11.438
		l-24.16,24.159c-11.938,11.939-18.512,27.812-18.51,44.689c0,16.881,6.574,32.752,18.51,44.689
		c11.938,11.939,27.809,18.512,44.688,18.511c16.9,0,32.785-6.588,44.715-18.539l24.125-24.121
		c2.951,5.675,6.789,10.924,11.443,15.576c11.936,11.937,27.807,18.51,44.688,18.51c16.881,0,32.752-6.573,44.688-18.506
		c11.938-11.932,18.514-27.805,18.514-44.694L511.998,63.326z"/>
	<path style="fill:#4DBBEB;" d="M208.697,392.681l24.158-24.16c11.939-11.939,18.514-27.81,18.512-44.689
		c0-34.848-28.348-63.198-63.197-63.198c-16.9,0-32.785,6.587-44.713,18.537l-24.127,24.122
		c-2.951-5.674-6.789-10.925-11.443-15.577c-11.936-11.935-27.807-18.508-44.688-18.508s-32.752,6.573-44.688,18.506
		C6.576,299.647,0,315.519,0,332.406l0.002,116.27c-0.023,12.478,3.58,24.549,10.422,34.911c2.346,3.552,5.066,6.885,8.09,9.905
		c11.934,11.934,27.805,18.506,44.684,18.506l116.329,0.001c0.004,0,0.039,0,0.041,0c16.881,0,32.754-6.575,44.691-18.513
		c11.936-11.936,18.51-27.806,18.51-44.686c0-16.881-6.574-32.752-18.508-44.685C219.611,399.467,214.367,395.632,208.697,392.681z"
		/>
</g>
<g>
	<path style="fill:#2488FF;" d="M511.998,63.326c0.025-12.476-3.578-24.548-10.42-34.906c-2.342-3.552-5.064-6.886-8.088-9.909
		L279.142,232.857c0,0.001,0,0.001,0,0.001c11.938,11.939,27.809,18.512,44.688,18.511c16.9,0,32.785-6.588,44.715-18.539
		l24.125-24.121c2.951,5.675,6.789,10.924,11.443,15.576c11.936,11.937,27.807,18.51,44.688,18.51
		c16.881,0,32.752-6.573,44.688-18.506c11.938-11.932,18.514-27.805,18.514-44.694L511.998,63.326z"/>
	<path style="fill:#2488FF;" d="M18.514,493.492c11.934,11.934,27.805,18.506,44.684,18.506l116.329,0.001c0.004,0,0.039,0,0.041,0
		c16.881,0,32.754-6.575,44.691-18.513c11.936-11.936,18.51-27.806,18.51-44.686c0-16.881-6.574-32.752-18.508-44.685
		c-4.648-4.649-9.893-8.484-15.563-11.436l24.158-24.16c11.939-11.939,18.514-27.81,18.512-44.689
		c0-17.425-7.088-33.224-18.531-44.668L18.51,493.489C18.512,493.49,18.512,493.491,18.514,493.492z"/>
</g>
<g>
</g>
<g>
</g>
<g>
</g>
<g>
</g>
<g>
</g>
<g>
</g>
<g>
</g>
<g>
</g>
<g>
</g>
<g>
</g>
<g>
</g>
<g>
</g>
<g>
</g>
<g>
</g>
<g>
</g>
</svg>
