<?xml version="1.0" encoding="iso-8859-1"?>
<!-- Generator: Adobe Illustrator 19.0.0, SVG Export Plug-In . SVG Version: 6.00 Build 0)  -->
<svg version="1.1" id="Capa_1" xmlns="http://www.w3.org/2000/svg" xmlns:xlink="http://www.w3.org/1999/xlink" x="0px" y="0px"
	 viewBox="0 0 512 512" style="enable-background:new 0 0 512 512;" xml:space="preserve">
<path style="fill:#2488FF;" d="M479.823,495.711L463.783,14.5C463.514,6.415,456.881,0,448.791,0H63.19
	C55.1,0,48.467,6.415,48.197,14.5l-16.066,482c-0.135,4.063,1.384,8.007,4.21,10.929S43.059,512,47.123,512h417.734h0.02
	c8.285,0,15-6.716,15-15C479.877,496.565,479.86,496.136,479.823,495.711z"/>
<path style="fill:#006DF0;" d="M479.823,495.711L463.783,14.5C463.514,6.415,456.881,0,448.791,0H256v512h208.857h0.02
	c8.285,0,15-6.716,15-15C479.877,496.565,479.86,496.136,479.823,495.711z"/>
<path style="fill:#F2F2F2;" d="M255.99,222.8c-61.427,0-111.4-49.974-111.4-111.4c0-8.284,6.716-15,15-15s15,6.716,15,15
	c0,44.885,36.516,81.4,81.4,81.4c44.885,0,81.4-36.516,81.4-81.4c0-8.284,6.716-15,15-15s15,6.716,15,15
	C367.391,172.826,317.417,222.8,255.99,222.8z"/>
<path style="fill:#D9D9D9;" d="M367.391,111.399c0-8.284-6.716-15-15-15s-15,6.716-15,15c0,44.882-36.51,81.394-81.391,81.4v30
	C317.422,222.795,367.391,172.823,367.391,111.399z"/>
<g>
</g>
<g>
</g>
<g>
</g>
<g>
</g>
<g>
</g>
<g>
</g>
<g>
</g>
<g>
</g>
<g>
</g>
<g>
</g>
<g>
</g>
<g>
</g>
<g>
</g>
<g>
</g>
<g>
</g>
</svg>
