<?xml version="1.0" encoding="iso-8859-1"?>
<!-- Generator: Adobe Illustrator 19.0.0, SVG Export Plug-In . SVG Version: 6.00 Build 0)  -->
<svg version="1.1" id="Capa_1" xmlns="http://www.w3.org/2000/svg" xmlns:xlink="http://www.w3.org/1999/xlink" x="0px" y="0px"
	 viewBox="0 0 512 512" style="enable-background:new 0 0 512 512;" xml:space="preserve">
<path style="fill:#61DE56;" d="M507.606,100.793l-96.4-96.399C408.394,1.58,404.578,0,400.6,0H15C6.716,0,0,6.716,0,15v482
	c0,8.284,6.716,15,15,15h482c8.284,0,15-6.716,15-15V111.399C512,107.421,510.42,103.606,507.606,100.793z"/>
<path style="fill:#13C37B;" d="M507.606,100.793l-96.4-96.399C408.394,1.58,404.578,0,400.6,0H256v512h241c8.284,0,15-6.716,15-15
	V111.399C512,107.421,510.42,103.606,507.606,100.793z"/>
<g>
	<path style="fill:#F2F2F2;" d="M400.6,289.2H111.4c-8.284,0-15,6.716-15,15V497c0,8.284,6.716,15,15,15h289.2
		c8.284,0,15-6.716,15-15V304.2C415.6,295.916,408.884,289.2,400.6,289.2z"/>
	<path style="fill:#F2F2F2;" d="M410.694,4.905C407.951,1.892,403.996,0,399.6,0H111.4c-8.284,0-15,6.716-15,15v192.8
		c0,8.284,6.716,15,15,15h289.2c8.284,0,15-6.716,15-15V16C415.6,11.604,413.708,7.648,410.694,4.905z"/>
</g>
<path style="fill:#D9D9D9;" d="M415.6,207.8V16c0-4.396-1.892-8.352-4.905-11.095C407.951,1.892,403.996,0,399.6,0H256v222.8h144.6
	C408.884,222.8,415.6,216.084,415.6,207.8z"/>
<path style="fill:#13C37B;" d="M304.199,80.333c-8.284,0-15,6.716-15,15v32.134c0,8.284,6.716,15,15,15s15-6.716,15-15V95.333
	C319.199,87.049,312.483,80.333,304.199,80.333z"/>
<path style="fill:#D9D9D9;" d="M400.6,512c8.284,0,15-6.716,15-15V304.2c0-8.284-6.716-15-15-15H256V512H400.6z"/>
<g>
</g>
<g>
</g>
<g>
</g>
<g>
</g>
<g>
</g>
<g>
</g>
<g>
</g>
<g>
</g>
<g>
</g>
<g>
</g>
<g>
</g>
<g>
</g>
<g>
</g>
<g>
</g>
<g>
</g>
</svg>
