<?xml version="1.0" encoding="iso-8859-1"?>
<!-- Generator: Adobe Illustrator 19.0.0, SVG Export Plug-In . SVG Version: 6.00 Build 0)  -->
<svg version="1.1" id="Capa_1" xmlns="http://www.w3.org/2000/svg" xmlns:xlink="http://www.w3.org/1999/xlink" x="0px" y="0px"
	 viewBox="0 0 512 512" style="enable-background:new 0 0 512 512;" xml:space="preserve">
<path style="fill:#F2F2F2;" d="M392.566,385.6H119.434c-8.284,0-15,6.716-15,15V497c0,8.284,6.716,15,15,15h273.133
	c8.284,0,15-6.716,15-15v-96.4C407.566,392.315,400.851,385.6,392.566,385.6z"/>
<path style="fill:#D9D9D9;" d="M392.566,512c8.284,0,15-6.716,15-15v-96.4c0-8.284-6.716-15-15-15H255.998V512H392.566z"/>
<path style="fill:#2488FF;" d="M497,96.4H392.568c-8.284,0-15,6.716-15,15H134.436c0-8.284-6.716-15-15-15H15
	c-8.284,0-15,6.716-15,15v289.2c0,8.284,6.716,15,15,15h482c8.284,0,15-6.716,15-15V111.4C512,103.116,505.284,96.4,497,96.4z"/>
<path style="fill:#006DF0;" d="M497,96.4H392.568c-8.284,0-15,6.716-15,15h-121.57v304.2H497c8.284,0,15-6.716,15-15V111.4
	C512,103.116,505.284,96.4,497,96.4z"/>
<path style="fill:#F2F2F2;" d="M392.566,0H119.434c-8.284,0-15,6.716-15,15v192.799c0,8.284,6.716,15,15,15h273.133
	c8.284,0,15-6.716,15-15V15C407.566,6.716,400.851,0,392.566,0z"/>
<path style="fill:#FED42D;" d="M497,319.199H15c-8.284,0-15-6.716-15-15s6.716-15,15-15h482c8.284,0,15,6.716,15,15
	S505.284,319.199,497,319.199z"/>
<path style="fill:#FCBF29;" d="M497,289.199H255.998v30H497c8.284,0,15-6.716,15-15S505.284,289.199,497,289.199z"/>
<path style="fill:#D9D9D9;" d="M407.566,207.799V15c0-8.284-6.716-15-15-15H255.998v222.799h136.568
	C400.851,222.799,407.566,216.083,407.566,207.799z"/>
<g>
</g>
<g>
</g>
<g>
</g>
<g>
</g>
<g>
</g>
<g>
</g>
<g>
</g>
<g>
</g>
<g>
</g>
<g>
</g>
<g>
</g>
<g>
</g>
<g>
</g>
<g>
</g>
<g>
</g>
</svg>
