<?xml version="1.0" encoding="iso-8859-1"?>
<!-- Generator: Adobe Illustrator 19.0.0, SVG Export Plug-In . SVG Version: 6.00 Build 0)  -->
<svg version="1.1" id="Capa_1" xmlns="http://www.w3.org/2000/svg" xmlns:xlink="http://www.w3.org/1999/xlink" x="0px" y="0px"
	 viewBox="0 0 512 512" style="enable-background:new 0 0 512 512;" xml:space="preserve">
<path style="fill:#61DE56;" d="M484.078,27.923C466.072,9.917,442.131,0.001,416.667,0.002L95.334,0
	C42.766,0.002,0,42.769,0.001,95.333L0,416.666C0.001,469.233,42.768,512,95.335,512h321.332C469.234,512,512,469.233,512,416.666
	V95.335C512,69.87,502.084,45.929,484.078,27.923z"/>
<path style="fill:#13C37B;" d="M416.667,0H256v512h160.667C469.234,512,512,469.233,512,416.666V95.334
	C512,42.767,469.234,0,416.667,0z"/>
<g>
	<path style="fill:#F2F2F2;" d="M245.393,318.233c2.813,2.814,6.629,4.394,10.606,4.394c3.978,0,7.794-1.58,10.607-4.394
		l79.527-79.528c5.857-5.857,5.857-15.355-0.001-21.213c-5.857-5.857-15.354-5.857-21.214,0L271,271.412l-0.001-160.013
		c0-8.284-6.716-15-15-15s-15,6.716-15,15L241,271.416l-53.922-53.922c-5.857-5.857-15.355-5.857-21.213,0
		c-5.857,5.857-5.857,15.355,0,21.213L245.393,318.233z"/>
	<path style="fill:#F2F2F2;" d="M400.602,385.6h-289.2c-8.284,0-15,6.716-15,15s6.716,15,15,15h289.2c8.284,0,15-6.716,15-15
		C415.602,392.315,408.886,385.6,400.602,385.6z"/>
</g>
<g>
	<path style="fill:#D9D9D9;" d="M346.133,238.705c5.857-5.857,5.857-15.355-0.001-21.213c-5.857-5.857-15.354-5.857-21.214,0
		L271,271.412l-0.001-160.013c0-8.283-6.715-14.999-14.997-15v226.228c3.976-0.001,7.791-1.58,10.603-4.394L346.133,238.705z"/>
	<path style="fill:#D9D9D9;" d="M400.602,385.6h-144.6v30h144.6c8.284,0,15-6.716,15-15
		C415.602,392.315,408.886,385.6,400.602,385.6z"/>
</g>
<g>
</g>
<g>
</g>
<g>
</g>
<g>
</g>
<g>
</g>
<g>
</g>
<g>
</g>
<g>
</g>
<g>
</g>
<g>
</g>
<g>
</g>
<g>
</g>
<g>
</g>
<g>
</g>
<g>
</g>
</svg>
