<?xml version="1.0" encoding="iso-8859-1"?>
<!-- Generator: Adobe Illustrator 19.0.0, SVG Export Plug-In . SVG Version: 6.00 Build 0)  -->
<svg version="1.1" id="Capa_1" xmlns="http://www.w3.org/2000/svg" xmlns:xlink="http://www.w3.org/1999/xlink" x="0px" y="0px"
	 viewBox="0 0 512 512" style="enable-background:new 0 0 512 512;" xml:space="preserve">
<path style="fill:#787780;" d="M465.216,46.746C435.071,16.602,394.992,0,352.362,0s-82.709,16.602-112.853,46.746l-62.486,62.486
	c-12.794,12.797-23.235,27.529-31.035,43.785c-2.753,5.738-1.584,12.592,2.917,17.094c4.502,4.504,11.355,5.672,17.094,2.92
	c17.331-8.313,36.712-12.705,56.046-12.705c19.268,0,38.589,4.363,55.875,12.621c5.736,2.742,12.578,1.568,17.072-2.928
	l33.897-33.897c6.27-6.269,14.607-9.723,23.477-9.723c8.868,0,17.204,3.453,23.475,9.725c6.272,6.27,9.726,14.606,9.726,23.475
	c0,8.867-3.454,17.203-9.726,23.475l-62.32,62.32c-6.271,6.27-14.608,9.723-23.478,9.725c-8.866,0-17.2-3.453-23.469-9.723
	c-0.055-0.055-0.11-0.109-0.167-0.164c-11.918-11.836-27.721-18.35-44.526-18.35c-16.881,0-32.751,6.572-44.689,18.512
	l-28.419,28.422c-4.495,4.494-5.669,11.334-2.93,17.07c7.804,16.342,18.295,31.162,31.185,44.053
	c12.893,12.889,27.713,23.381,44.05,31.183c21.286,10.164,45.066,15.537,68.771,15.537c0.001,0,0,0,0.002,0
	c23.82,0,47.715-5.424,69.096-15.684c16.262-7.803,30.994-18.246,43.787-31.039l62.484-62.484
	c30.145-30.144,46.747-70.223,46.747-112.853C511.962,116.969,495.36,76.891,465.216,46.746z"/>
<path style="fill:#57555C;" d="M375.875,136.162c6.248,6.266,9.689,14.586,9.689,23.438c0,8.867-3.454,17.203-9.726,23.475
	l-62.32,62.32c-6.271,6.27-14.608,9.723-23.478,9.725c-8.851,0-17.17-3.441-23.435-9.689l-89.545,89.545
	c12.885,12.873,27.692,23.353,44.014,31.148c21.286,10.164,45.066,15.537,68.771,15.537c0.001,0,0,0,0.002,0
	c23.82,0,47.715-5.424,69.096-15.684c16.262-7.803,30.994-18.246,43.787-31.039l62.484-62.484
	c30.145-30.144,46.747-70.223,46.747-112.853c-0.001-42.613-16.59-82.676-46.711-112.814L375.875,136.162z"/>
<path style="fill:#AEADB3;" d="M358.944,365.977c-21.326,10.234-45.157,15.658-68.918,15.684c-0.058,0-0.118,0-0.176,0
	c-23.709,0-47.485-5.371-68.775-15.537c-6.272-2.996-12.318-6.391-18.12-10.162l-19.919,19.918
	c-6.27,6.27-14.606,9.723-23.475,9.723c-8.867,0-17.204-3.453-23.477-9.725c-12.943-12.945-12.942-34.008,0.002-46.953
	l62.316-62.318c6.271-6.271,14.608-9.725,23.478-9.725c8.867,0,17.201,3.453,23.467,9.721c0.068,0.068,0.137,0.137,0.206,0.203
	c11.913,11.813,27.701,18.314,44.489,18.314c16.882,0,32.753-6.574,44.688-18.512l28.423-28.422
	c4.495-4.494,5.67-11.334,2.931-17.07c-7.799-16.334-18.291-31.156-31.187-44.053c-12.889-12.887-27.71-23.379-44.051-31.186
	c-21.283-10.164-45.062-15.537-68.765-15.537c-23.823,0-47.718,5.424-69.101,15.684c-16.263,7.803-30.995,18.246-43.79,31.039
	l-62.484,62.484c-62.228,62.227-62.228,163.478,0,225.707c30.141,30.141,70.219,46.742,112.851,46.746c0.006,0,0.01,0,0.015,0
	c42.621,0,82.695-16.602,112.84-46.746l62.486-62.486c11.559-11.559,21.19-24.705,28.699-39.129
	C362.059,364.44,360.512,365.225,358.944,365.977z"/>
<path style="fill:#8B8892;" d="M159.558,512c0.006,0,0.01,0,0.015,0c42.621,0,82.695-16.602,112.84-46.746l62.486-62.486
	c11.559-11.559,21.19-24.705,28.699-39.129c-1.539,0.801-3.087,1.586-4.654,2.338c-21.326,10.234-45.157,15.658-68.918,15.684
	c-0.058,0-0.118,0-0.176,0c-23.709,0-47.485-5.371-68.775-15.537c-6.272-2.996-12.318-6.391-18.12-10.162l-19.919,19.918
	c-6.27,6.27-14.606,9.723-23.475,9.723c-8.85,0-17.17-3.441-23.438-9.688l-89.377,89.377
	C76.883,495.408,116.944,511.996,159.558,512z"/>
<g>
</g>
<g>
</g>
<g>
</g>
<g>
</g>
<g>
</g>
<g>
</g>
<g>
</g>
<g>
</g>
<g>
</g>
<g>
</g>
<g>
</g>
<g>
</g>
<g>
</g>
<g>
</g>
<g>
</g>
</svg>
