<?xml version="1.0" encoding="iso-8859-1"?>
<!-- Generator: Adobe Illustrator 19.0.0, SVG Export Plug-In . SVG Version: 6.00 Build 0)  -->
<svg version="1.1" id="Capa_1" xmlns="http://www.w3.org/2000/svg" xmlns:xlink="http://www.w3.org/1999/xlink" x="0px" y="0px"
	 viewBox="0 0 512 512" style="enable-background:new 0 0 512 512;" xml:space="preserve">
<path style="fill:#4DBBEB;" d="M484.078,27.923C466.071,9.917,442.131,0.001,416.666,0.002L95.334,0
	C69.869,0.001,45.929,9.918,27.923,27.924C9.916,45.93,0.001,69.87,0.002,95.333L0,416.667C0.002,469.233,42.769,512,95.334,512
	h321.332C469.233,512,512,469.233,512,416.666V95.336C512.001,69.87,502.085,45.929,484.078,27.923z"/>
<path style="fill:#2488FF;" d="M416.666,0H255.998v512h160.668c52.566,0,95.333-42.767,95.333-95.334V95.334
	C511.999,42.767,469.232,0,416.666,0z"/>
<g>
	<path style="fill:#F2F2F2;" d="M346.132,180.318l-79.527-79.525c-2.813-2.813-6.628-4.394-10.606-4.394
		c-3.979,0-7.794,1.58-10.607,4.394l-79.527,79.53c-5.857,5.858-5.857,15.355,0.001,21.213c2.929,2.93,6.768,4.394,10.606,4.394
		s7.678-1.465,10.607-4.394l53.918-53.921l0.002,160.012c0,8.284,6.716,15,15,15c8.285,0,15-6.716,15-15l-0.002-160.018
		l53.923,53.922c5.858,5.859,15.354,5.857,21.214,0C351.99,195.674,351.99,186.176,346.132,180.318z"/>
	<path style="fill:#F2F2F2;" d="M400.602,415.6h-289.2c-8.284,0-15-6.716-15-15s6.716-15,15-15h289.2c8.284,0,15,6.716,15,15
		S408.886,415.6,400.602,415.6z"/>
</g>
<g>
	<path style="fill:#D9D9D9;" d="M270.998,307.627l-0.002-160.018l53.923,53.922c5.858,5.859,15.354,5.857,21.214,0
		c5.857-5.857,5.857-15.355-0.001-21.213l-79.527-79.525c-2.813-2.813-6.628-4.394-10.606-4.394v226.228
		C264.283,322.627,270.998,315.911,270.998,307.627z"/>
	<path style="fill:#D9D9D9;" d="M400.602,385.6H255.998v30h144.604c8.284,0,15-6.716,15-15
		C415.602,392.315,408.886,385.6,400.602,385.6z"/>
</g>
<g>
</g>
<g>
</g>
<g>
</g>
<g>
</g>
<g>
</g>
<g>
</g>
<g>
</g>
<g>
</g>
<g>
</g>
<g>
</g>
<g>
</g>
<g>
</g>
<g>
</g>
<g>
</g>
<g>
</g>
</svg>
