<?xml version="1.0" encoding="iso-8859-1"?>
<!-- Generator: Adobe Illustrator 19.0.0, SVG Export Plug-In . SVG Version: 6.00 Build 0)  -->
<svg version="1.1" id="Capa_1" xmlns="http://www.w3.org/2000/svg" xmlns:xlink="http://www.w3.org/1999/xlink" x="0px" y="0px"
	 viewBox="0 0 512 512" style="enable-background:new 0 0 512 512;" xml:space="preserve">
<g>
	<path style="fill:#4DBBEB;" d="M472.938,303.541c-25.033-59.185-60.867-112.334-106.506-157.973
		C320.793,99.93,267.644,64.096,208.459,39.063C147.177,13.143,82.088,0,15,0C6.716,0,0,6.716,0,15v96.4c0,8.284,6.716,15,15,15
		c204.35,0,370.6,166.25,370.6,370.6c0,8.284,6.716,15,15,15H497c8.284,0,15-6.716,15-15
		C512,429.912,498.857,364.823,472.938,303.541z"/>
	<path style="fill:#4DBBEB;" d="M15,192.799c-8.284,0-15,6.716-15,15v96.4c0,8.284,6.716,15,15,15
		c98.039,0,177.799,79.761,177.799,177.801c0,8.284,6.716,15,15,15h96.4c8.284,0,15-6.716,15-15
		c0-81.255-31.643-157.646-89.098-215.103C172.645,224.441,96.255,192.799,15,192.799z"/>
	<path style="fill:#4DBBEB;" d="M15,385.6c-8.284,0-15,6.716-15,15V497c0,8.284,6.716,15,15,15h96.4c8.284,0,15-6.716,15-15
		C126.4,435.573,76.427,385.6,15,385.6z"/>
</g>
<g>
	<path style="fill:#2488FF;" d="M472.938,303.541c-25.033-59.185-60.867-112.334-106.506-157.973l-89.501,89.501
		C344.037,302.176,385.6,394.825,385.6,497c0,8.284,6.716,15,15,15H497c8.284,0,15-6.716,15-15
		C512,429.912,498.857,364.823,472.938,303.541z"/>
	<path style="fill:#2488FF;" d="M192.799,497c0,8.284,6.716,15,15,15h96.4c8.284,0,15-6.716,15-15
		c0-81.255-31.643-157.646-89.098-215.102l-89.437,89.438C172.859,403.53,192.799,447.98,192.799,497z"/>
	<path style="fill:#2488FF;" d="M15,512h96.4c8.284,0,15-6.716,15-15c0-30.713-12.493-58.564-32.665-78.735L4.394,507.606
		C7.107,510.321,10.857,512,15,512z"/>
</g>
<g>
</g>
<g>
</g>
<g>
</g>
<g>
</g>
<g>
</g>
<g>
</g>
<g>
</g>
<g>
</g>
<g>
</g>
<g>
</g>
<g>
</g>
<g>
</g>
<g>
</g>
<g>
</g>
<g>
</g>
</svg>
