<?xml version="1.0" encoding="iso-8859-1"?>
<!-- Generator: Adobe Illustrator 19.0.0, SVG Export Plug-In . SVG Version: 6.00 Build 0)  -->
<svg version="1.1" id="Capa_1" xmlns="http://www.w3.org/2000/svg" xmlns:xlink="http://www.w3.org/1999/xlink" x="0px" y="0px"
	 viewBox="0 0 512 512" style="enable-background:new 0 0 512 512;" xml:space="preserve">
<path style="fill:#4DBBEB;" d="M497,0H15C6.716,0,0,6.716,0,15v482c0,8.284,6.716,15,15,15h482c8.284,0,15-6.716,15-15V15
	C512,6.716,505.284,0,497,0z"/>
<path style="fill:#2488FF;" d="M497,0H256v512h241c8.284,0,15-6.716,15-15V15C512,6.717,505.284,0,497,0z"/>
<g>
	<path style="fill:#F2F2F2;" d="M111.402,126.4c-3.95,0-7.82-1.6-10.61-4.39c-2.79-2.801-4.39-6.66-4.39-10.61
		c0-3.95,1.6-7.811,4.39-10.61c2.79-2.79,6.66-4.39,10.61-4.39c3.949,0,7.81,1.6,10.6,4.39c2.8,2.8,4.4,6.66,4.4,10.61
		c0,3.95-1.6,7.82-4.4,10.61C119.212,124.801,115.352,126.4,111.402,126.4z"/>
	<path style="fill:#F2F2F2;" d="M111.402,222.801c-3.95,0-7.82-1.601-10.61-4.391c-2.79-2.8-4.39-6.66-4.39-10.609
		c0-3.95,1.6-7.82,4.39-10.61c2.8-2.79,6.66-4.39,10.61-4.39c3.949,0,7.81,1.6,10.6,4.39c2.8,2.79,4.4,6.66,4.4,10.61
		c0,3.949-1.6,7.81-4.4,10.609C119.212,221.2,115.352,222.801,111.402,222.801z"/>
	<path style="fill:#F2F2F2;" d="M111.402,319.2c-3.95,0-7.82-1.6-10.61-4.39c-2.79-2.8-4.39-6.66-4.39-10.61s1.6-7.81,4.39-10.61
		c2.79-2.789,6.66-4.39,10.61-4.39c3.949,0,7.81,1.601,10.6,4.39c2.8,2.79,4.4,6.66,4.4,10.61s-1.6,7.811-4.4,10.61
		C119.212,317.601,115.352,319.2,111.402,319.2z"/>
	<path style="fill:#F2F2F2;" d="M111.402,415.601c-3.95,0-7.82-1.601-10.61-4.391c-2.79-2.79-4.39-6.659-4.39-10.609
		s1.6-7.82,4.39-10.61c2.79-2.79,6.66-4.39,10.61-4.39c3.949,0,7.81,1.6,10.6,4.39c2.8,2.8,4.4,6.66,4.4,10.61
		c0,3.95-1.6,7.81-4.4,10.609C119.212,414,115.352,415.601,111.402,415.601z"/>
	<path style="fill:#F2F2F2;" d="M400.6,126.4H207.799c-8.284,0-15-6.716-15-15s6.716-15,15-15H400.6c8.284,0,15,6.716,15,15
		S408.884,126.4,400.6,126.4z"/>
	<path style="fill:#F2F2F2;" d="M400.6,222.8H207.799c-8.284,0-15-6.716-15-15s6.716-15,15-15H400.6c8.284,0,15,6.716,15,15
		S408.884,222.8,400.6,222.8z"/>
	<path style="fill:#F2F2F2;" d="M400.6,319.2H207.799c-8.284,0-15-6.716-15-15s6.716-15,15-15H400.6c8.284,0,15,6.716,15,15
		S408.884,319.2,400.6,319.2z"/>
	<path style="fill:#F2F2F2;" d="M400.6,415.601H207.799c-8.284,0-15-6.716-15-15s6.716-15,15-15H400.6c8.284,0,15,6.716,15,15
		S408.884,415.601,400.6,415.601z"/>
</g>
<g>
	<path style="fill:#D9D9D9;" d="M415.6,111.4c0-8.284-6.716-15-15-15H255.998v30H400.6C408.884,126.4,415.6,119.685,415.6,111.4z"/>
	<path style="fill:#D9D9D9;" d="M415.6,207.8c0-8.284-6.716-15-15-15H255.998v30H400.6C408.884,222.8,415.6,216.084,415.6,207.8z"/>
	<path style="fill:#D9D9D9;" d="M400.6,319.2c8.284,0,15-6.716,15-15s-6.716-15-15-15H255.998v30H400.6z"/>
	<path style="fill:#D9D9D9;" d="M400.6,415.601c8.284,0,15-6.716,15-15s-6.716-15-15-15H255.998v30H400.6z"/>
</g>
<g>
</g>
<g>
</g>
<g>
</g>
<g>
</g>
<g>
</g>
<g>
</g>
<g>
</g>
<g>
</g>
<g>
</g>
<g>
</g>
<g>
</g>
<g>
</g>
<g>
</g>
<g>
</g>
<g>
</g>
</svg>
