<?xml version="1.0" encoding="iso-8859-1"?>
<!-- Generator: Adobe Illustrator 19.0.0, SVG Export Plug-In . SVG Version: 6.00 Build 0)  -->
<svg version="1.1" id="Capa_1" xmlns="http://www.w3.org/2000/svg" xmlns:xlink="http://www.w3.org/1999/xlink" x="0px" y="0px"
	 viewBox="0 0 512 512" style="enable-background:new 0 0 512 512;" xml:space="preserve">
<path style="fill:#FED42D;" d="M400.6,144.6c-12.172,0-23.545,3.468-33.201,9.454v53.745c0,8.284-6.715,15-15,15
	c-8.283,0-15-6.716-15-15v-69.815c-9.654-5.985-21.027-9.45-33.199-9.45c-12.168,0-23.545,3.457-33.199,9.44v53.759
	c0,8.284-6.715,15-15,15c-8.283,0-15-6.716-15-15V9.454C231.344,3.468,219.97,0,207.798,0C172.951,0,144.6,28.352,144.6,63.199
	v90.842V256c0,8.284-6.715,15-15,15c-8.283,0-15-6.716-15-15V144.689c-1.06-0.053-2.126-0.09-3.2-0.09
	c-34.849,0-63.199,28.352-63.199,63.199v96.4C48.201,418.781,141.419,512,255.999,512s207.799-93.219,207.799-207.801v-96.4
	C463.799,172.951,435.449,144.6,400.6,144.6z"/>
<path style="fill:#FCBF29;" d="M400.6,144.6c-12.172,0-23.545,3.468-33.201,9.454v53.745c0,8.284-6.715,15-15,15
	c-8.283,0-15-6.716-15-15v-69.815c-9.654-5.985-21.027-9.45-33.199-9.45c-12.168,0-23.545,3.457-33.199,9.44v53.759
	c0,8.284-6.715,15-15,15l0,0V512l0,0c114.581,0,207.799-93.219,207.799-207.801v-96.4C463.799,172.951,435.449,144.6,400.6,144.6z"
	/>
<g>
</g>
<g>
</g>
<g>
</g>
<g>
</g>
<g>
</g>
<g>
</g>
<g>
</g>
<g>
</g>
<g>
</g>
<g>
</g>
<g>
</g>
<g>
</g>
<g>
</g>
<g>
</g>
<g>
</g>
</svg>
