<?xml version="1.0" encoding="iso-8859-1"?>
<!-- Generator: Adobe Illustrator 19.0.0, SVG Export Plug-In . SVG Version: 6.00 Build 0)  -->
<svg version="1.1" id="Capa_1" xmlns="http://www.w3.org/2000/svg" xmlns:xlink="http://www.w3.org/1999/xlink" x="0px" y="0px"
	 viewBox="0 0 512.001 512.001" style="enable-background:new 0 0 512.001 512.001;" xml:space="preserve">
<path style="fill:#8B8892;" d="M400.601,0.001h-289.2c-8.284,0-15,6.716-15,15s6.716,15,15,15v162.8c-8.284,0-15,6.716-15,15
	s6.716,15,15,15h289.2c61.427,0,111.4-49.974,111.4-111.399C512.001,49.975,462.027,0.001,400.601,0.001z"/>
<path style="fill:#AEADB3;" d="M400.601,0.001h-289.2c-8.284,0-15,6.716-15,15s6.716,15,15,15v81.4h400.6
	C512.001,49.975,462.027,0.001,400.601,0.001z"/>
<path style="fill:#13C37B;" d="M400.601,482v-162.8c8.284,0,15-6.716,15-15s-6.716-15-15-15h-289.2
	c-61.426,0-111.4,49.974-111.4,111.401C0.001,462.026,49.975,512,111.4,512h289.2c8.284,0,15-6.716,15-15S408.885,482,400.601,482z"
	/>
<path style="fill:#61DE56;" d="M111.401,289.201h289.2c8.284,0,15,6.716,15,15s-6.716,15-15,15v81.4H0.001
	C0.001,339.174,49.975,289.201,111.401,289.201z"/>
<g>
	<path style="fill:#F2F2F2;" d="M222.8,111.4c0-61.425-49.974-111.399-111.4-111.399S0,49.975,0,111.4s49.974,111.4,111.4,111.4
		S222.8,172.826,222.8,111.4z"/>
	<path style="fill:#F2F2F2;" d="M512.001,400.6c0-61.427-49.974-111.4-111.4-111.4s-111.399,49.974-111.399,111.4
		c0,61.427,49.974,111.4,111.399,111.4C462.027,512,512.001,462.026,512.001,400.6z"/>
</g>
<g>
	<path style="fill:#D9D9D9;" d="M222.8,111.4H0C0,172.826,49.974,222.8,111.399,222.8C172.827,222.8,222.8,172.826,222.8,111.4z"/>
	<path style="fill:#D9D9D9;" d="M512.001,400.602h-222.8C289.201,462.026,339.175,512,400.6,512
		C462.027,512,512.001,462.026,512.001,400.602z"/>
</g>
<g>
</g>
<g>
</g>
<g>
</g>
<g>
</g>
<g>
</g>
<g>
</g>
<g>
</g>
<g>
</g>
<g>
</g>
<g>
</g>
<g>
</g>
<g>
</g>
<g>
</g>
<g>
</g>
<g>
</g>
</svg>
