<?xml version="1.0" encoding="iso-8859-1"?>
<!-- Generator: Adobe Illustrator 19.0.0, SVG Export Plug-In . SVG Version: 6.00 Build 0)  -->
<svg version="1.1" id="Capa_1" xmlns="http://www.w3.org/2000/svg" xmlns:xlink="http://www.w3.org/1999/xlink" x="0px" y="0px"
	 viewBox="0 0 512 512" style="enable-background:new 0 0 512 512;" xml:space="preserve">
<path style="fill:#4DBBEB;" d="M416.666,0H95.332C42.766,0,0,42.767,0,95.334v321.332C0,469.233,42.766,512,95.332,512h321.334
	C469.233,512,512,469.233,512,416.666V95.334C512,42.767,469.233,0,416.666,0z"/>
<path style="fill:#2488FF;" d="M416.667,0H255.999v512h160.668C469.233,512,512,469.233,512,416.666V95.334
	C512,42.767,469.233,0,416.667,0z"/>
<path style="fill:#F2F2F2;" d="M277.213,256l61.692-61.693c5.858-5.857,5.858-15.355,0-21.213l-72.299-72.3
	c-4.289-4.29-10.743-5.571-16.347-3.252c-5.605,2.322-9.26,7.791-9.26,13.858v108.387l-46.694-46.693
	c-5.857-5.857-15.355-5.857-21.213,0s-5.858,15.355,0,21.213L234.787,256l-61.694,61.694c-5.858,5.857-5.858,15.355,0,21.213
	c5.857,5.857,15.355,5.857,21.213,0L241,292.213V400.6c0,6.067,3.654,11.536,9.26,13.858c1.855,0.769,3.805,1.142,5.737,1.142
	c3.903,0,7.74-1.523,10.609-4.394l72.299-72.299c5.858-5.857,5.858-15.355,0-21.213L277.213,256z M271,147.614l36.086,36.086
	L271,219.786V147.614z M271,364.387v-72.173l36.086,36.087L271,364.387z"/>
<path style="fill:#D9D9D9;" d="M277.213,256l61.692-61.693c5.858-5.857,5.858-15.355,0-21.213l-72.299-72.3
	c-2.868-2.868-6.704-4.384-10.606-4.385V415.6c3.902-0.001,7.738-1.524,10.606-4.394l72.299-72.299
	c5.858-5.857,5.858-15.355,0-21.213L277.213,256z M271,147.614l36.086,36.086L271,219.786V147.614z M271,364.387v-72.173
	l36.086,36.087L271,364.387z"/>
<g>
</g>
<g>
</g>
<g>
</g>
<g>
</g>
<g>
</g>
<g>
</g>
<g>
</g>
<g>
</g>
<g>
</g>
<g>
</g>
<g>
</g>
<g>
</g>
<g>
</g>
<g>
</g>
<g>
</g>
</svg>
