<?xml version="1.0" encoding="iso-8859-1"?>
<!-- Generator: Adobe Illustrator 19.0.0, SVG Export Plug-In . SVG Version: 6.00 Build 0)  -->
<svg version="1.1" id="Capa_1" xmlns="http://www.w3.org/2000/svg" xmlns:xlink="http://www.w3.org/1999/xlink" x="0px" y="0px"
	 viewBox="0 0 512 512" style="enable-background:new 0 0 512 512;" xml:space="preserve">
<path style="fill:#4DBBEB;" d="M464.867,96.4h-96.414c-8.284,0-15,6.716-15,15c0,4.813,2.275,9.085,5.8,11.83l-206.52,265.541
	c-2.542-1.981-5.729-3.171-9.2-3.171c-8.284,0-15,6.716-15,15V497c0,8.284,6.716,15,15,15h321.334c8.284,0,15-6.716,15-15V111.4
	C479.867,103.116,473.151,96.4,464.867,96.4z"/>
<path style="fill:#2488FF;" d="M464.867,96.4h-96.414c-8.284,0-15,6.716-15,15c0,4.813,2.275,9.085,5.8,11.83L304.2,194.017V512
	h160.667c8.284,0,15-6.716,15-15V111.4C479.867,103.116,473.151,96.4,464.867,96.4z"/>
<path style="fill:#F2F2F2;" d="M368.467,0H47.133c-8.284,0-15,6.716-15,15v385.601c0,8.284,6.716,15,15,15h321.334
	c8.284,0,15-6.716,15-15V15C383.467,6.716,376.751,0,368.467,0z"/>
<path style="fill:#D9D9D9;" d="M368.467,0H207.8v415.601h160.667c8.284,0,15-6.716,15-15V15C383.467,6.716,376.751,0,368.467,0z"/>
<g>
</g>
<g>
</g>
<g>
</g>
<g>
</g>
<g>
</g>
<g>
</g>
<g>
</g>
<g>
</g>
<g>
</g>
<g>
</g>
<g>
</g>
<g>
</g>
<g>
</g>
<g>
</g>
<g>
</g>
</svg>
