<?xml version="1.0" encoding="iso-8859-1"?>
<!-- Generator: Adobe Illustrator 19.0.0, SVG Export Plug-In . SVG Version: 6.00 Build 0)  -->
<svg version="1.1" id="Capa_1" xmlns="http://www.w3.org/2000/svg" xmlns:xlink="http://www.w3.org/1999/xlink" x="0px" y="0px"
	 viewBox="0 0 512.002 512.002" style="enable-background:new 0 0 512.002 512.002;" xml:space="preserve">
<path style="fill:#4DBBEB;" d="M416.669,0.002L95.333,0.001C42.767,0.002,0,42.769,0,95.335v321.332
	c0,52.567,42.767,95.334,95.334,95.334h321.333l0,0c0.001,0,0.002,0,0.004,0c25.463,0,49.402-9.916,67.408-27.921
	c18.006-18.007,27.922-41.948,27.921-67.413l0.002-321.333C511.999,42.767,469.233,0.001,416.669,0.002z"/>
<path style="fill:#2488FF;" d="M416.669,0.001H256.001v512h160.668c52.566,0,95.333-42.767,95.333-95.334V95.335
	C512.002,42.768,469.235,0.001,416.669,0.001z"/>
<g>
	<path style="fill:#F2F2F2;" d="M411.208,245.395l-79.527-79.529c-5.858-5.858-15.355-5.858-21.213,0
		c-5.857,5.857-5.857,15.355,0,21.213l53.918,53.919l-160.012,0.004c-8.283,0-14.999,6.717-14.999,15c0,8.284,6.716,15,15.001,15
		l160.016-0.004l-53.923,53.923c-5.858,5.858-5.858,15.355-0.001,21.213c2.93,2.93,6.768,4.394,10.607,4.394
		c3.838,0,7.678-1.465,10.607-4.394l79.526-79.525C417.065,260.75,417.065,251.252,411.208,245.395z"/>
	<path style="fill:#F2F2F2;" d="M111.4,96.402c-8.284,0-15,6.716-15,15v289.2c0,8.284,6.716,15,15,15s15-6.716,15-15v-289.2
		C126.4,103.118,119.685,96.402,111.4,96.402z"/>
</g>
<path style="fill:#D9D9D9;" d="M411.208,245.395l-79.527-79.529c-5.858-5.858-15.355-5.858-21.213,0
	c-5.857,5.857-5.857,15.355,0,21.213l53.918,53.919L256,240.999v30l108.392-0.002l-53.923,53.923
	c-5.858,5.858-5.858,15.355-0.001,21.213c2.93,2.93,6.768,4.394,10.607,4.394c3.838,0,7.678-1.465,10.607-4.394l79.526-79.525
	C417.065,260.75,417.065,251.252,411.208,245.395z"/>
<g>
</g>
<g>
</g>
<g>
</g>
<g>
</g>
<g>
</g>
<g>
</g>
<g>
</g>
<g>
</g>
<g>
</g>
<g>
</g>
<g>
</g>
<g>
</g>
<g>
</g>
<g>
</g>
<g>
</g>
</svg>
