<?xml version="1.0" encoding="iso-8859-1"?>
<!-- Generator: Adobe Illustrator 19.0.0, SVG Export Plug-In . SVG Version: 6.00 Build 0)  -->
<svg version="1.1" id="Capa_1" xmlns="http://www.w3.org/2000/svg" xmlns:xlink="http://www.w3.org/1999/xlink" x="0px" y="0px"
	 viewBox="0 0 512 512" style="enable-background:new 0 0 512 512;" xml:space="preserve">
<path style="fill:#2488FF;" d="M497,0H47.133c-8.284,0-15,6.716-15,15v482c0,8.284,6.716,15,15,15H497c8.284,0,15-6.716,15-15V15
	C512,6.716,505.284,0,497,0z"/>
<path style="fill:#006DF0;" d="M497,0H288.134v512H497c8.284,0,15-6.716,15-15V15C512,6.716,505.284,0,497,0z"/>
<g>
	<path style="fill:#F2F2F2;" d="M288.133,289.2c-61.426,0-111.398,49.974-111.398,111.4c0,8.284,6.716,15,15,15h192.799
		c8.284,0,15-6.716,15-15C399.533,339.174,349.56,289.2,288.133,289.2z"/>
	<path style="fill:#F2F2F2;" d="M288.133,222.8c34.85,0,63.201-28.351,63.201-63.199s-28.352-63.2-63.201-63.2
		s-63.199,28.352-63.199,63.2S253.284,222.8,288.133,222.8z"/>
</g>
<g>
	<path style="fill:#4DBBEB;" d="M79.266,126.4H15c-8.284,0-15-6.716-15-15s6.716-15,15-15h64.266c8.284,0,15,6.716,15,15
		S87.55,126.4,79.266,126.4z"/>
	<path style="fill:#4DBBEB;" d="M79.266,222.8H15c-8.284,0-15-6.716-15-15s6.716-15,15-15h64.266c8.284,0,15,6.716,15,15
		S87.55,222.8,79.266,222.8z"/>
	<path style="fill:#4DBBEB;" d="M79.266,319.2H15c-8.284,0-15-6.716-15-15s6.716-15,15-15h64.266c8.284,0,15,6.716,15,15
		S87.55,319.2,79.266,319.2z"/>
	<path style="fill:#4DBBEB;" d="M79.266,415.601H15c-8.284,0-15-6.716-15-15s6.716-15,15-15h64.266c8.284,0,15,6.716,15,15
		S87.55,415.601,79.266,415.601z"/>
</g>
<g>
	<path style="fill:#D9D9D9;" d="M288.134,289.2v126.4h96.399c8.284,0,15-6.716,15-15C399.533,339.174,349.56,289.201,288.134,289.2z
		"/>
	<path style="fill:#D9D9D9;" d="M351.334,159.601c0-34.849-28.352-63.2-63.2-63.2V222.8
		C322.982,222.799,351.334,194.449,351.334,159.601z"/>
</g>
<g>
</g>
<g>
</g>
<g>
</g>
<g>
</g>
<g>
</g>
<g>
</g>
<g>
</g>
<g>
</g>
<g>
</g>
<g>
</g>
<g>
</g>
<g>
</g>
<g>
</g>
<g>
</g>
<g>
</g>
</svg>
