<?xml version="1.0" encoding="iso-8859-1"?>
<!-- Generator: Adobe Illustrator 19.0.0, SVG Export Plug-In . SVG Version: 6.00 Build 0)  -->
<svg version="1.1" id="Capa_1" xmlns="http://www.w3.org/2000/svg" xmlns:xlink="http://www.w3.org/1999/xlink" x="0px" y="0px"
	 viewBox="0 0 512 512" style="enable-background:new 0 0 512 512;" xml:space="preserve">
<path style="fill:#F2F2F2;" d="M497,0H15C6.717,0,0,6.717,0,15v385.6c0,8.284,6.717,15,15,15h177.801V497
	c0,6.067,3.654,11.536,9.26,13.858c1.855,0.769,3.805,1.142,5.736,1.142c3.904,0,7.741-1.524,10.611-4.394l92.004-92.007H497
	c8.284,0,15-6.716,15-15V15C512,6.717,505.284,0,497,0z"/>
<path style="fill:#D9D9D9;" d="M497,0H256v470.014l54.412-54.414H497c8.284,0,15-6.716,15-15V15C512,6.717,505.284,0,497,0z"/>
<g>
</g>
<g>
</g>
<g>
</g>
<g>
</g>
<g>
</g>
<g>
</g>
<g>
</g>
<g>
</g>
<g>
</g>
<g>
</g>
<g>
</g>
<g>
</g>
<g>
</g>
<g>
</g>
<g>
</g>
</svg>
