<?xml version="1.0" encoding="iso-8859-1"?>
<!-- Generator: Adobe Illustrator 19.0.0, SVG Export Plug-In . SVG Version: 6.00 Build 0)  -->
<svg version="1.1" id="Capa_1" xmlns="http://www.w3.org/2000/svg" xmlns:xlink="http://www.w3.org/1999/xlink" x="0px" y="0px"
	 viewBox="0 0 512 512" style="enable-background:new 0 0 512 512;" xml:space="preserve">
<path style="fill:#FED42D;" d="M364.887,125.712V15c0-8.284-6.717-15-15-15H15C6.715,0,0,6.716,0,15v482c0,8.284,6.715,15,15,15
	h334.887c8.283,0,15-6.716,15-15V386.289c0-8.284-6.717-15-15-15V140.712C358.17,140.712,364.887,133.996,364.887,125.712z"/>
<path style="fill:#FCBF29;" d="M364.887,125.712V15c0-8.284-6.717-15-15-15H182.443v512h167.443c8.283,0,15-6.716,15-15V386.289
	c0-8.284-6.717-15-15-15V140.712C358.17,140.712,364.887,133.996,364.887,125.712z"/>
<path style="fill:#61DE56;" d="M493.492,211.324c-11.936-11.938-27.807-18.512-44.728-18.512l-34.113-0.002
	c1.924-6.099,2.922-12.524,2.92-19.104c0-34.847-28.352-63.198-63.217-63.201c-16.871,0-32.736,6.575-44.672,18.514l-82.217,82.215
	c-8.842,8.808-14.83,19.893-17.314,32.05c-0.857,4.183-1.289,8.472-1.283,12.73c0,16.928,6.607,32.83,18.582,44.756l82.186,82.184
	c11.938,11.955,27.82,18.54,44.719,18.541c0.002,0,0.004,0,0.006,0c16.877,0,32.746-6.573,44.682-18.51
	c11.936-11.936,18.51-27.808,18.508-44.681c0.002-6.574-0.994-12.997-2.916-19.094l34.168,0.001
	c16.885-0.003,32.754-6.577,44.688-18.511C505.426,288.764,512,272.893,512,256.01C512.002,239.127,505.428,223.257,493.492,211.324
	z"/>
<path style="fill:#13C37B;" d="M208.867,256.014c0,16.928,6.607,32.83,18.582,44.756l82.186,82.184
	c11.938,11.955,27.82,18.54,44.719,18.541c0.002,0,0.004,0,0.006,0c16.877,0,32.746-6.573,44.682-18.51
	c11.936-11.936,18.51-27.808,18.508-44.681c0.002-6.574-0.994-12.997-2.916-19.094l34.168,0.001
	c16.885-0.003,32.754-6.577,44.688-18.511c11.936-11.936,18.51-27.807,18.51-44.69H208.867
	C208.867,256.012,208.867,256.012,208.867,256.014z"/>
<g>
</g>
<g>
</g>
<g>
</g>
<g>
</g>
<g>
</g>
<g>
</g>
<g>
</g>
<g>
</g>
<g>
</g>
<g>
</g>
<g>
</g>
<g>
</g>
<g>
</g>
<g>
</g>
<g>
</g>
</svg>
