<?xml version="1.0" encoding="iso-8859-1"?>
<!-- Generator: Adobe Illustrator 19.0.0, SVG Export Plug-In . SVG Version: 6.00 Build 0)  -->
<svg version="1.1" id="Capa_1" xmlns="http://www.w3.org/2000/svg" xmlns:xlink="http://www.w3.org/1999/xlink" x="0px" y="0px"
	 viewBox="0 0 512 512" style="enable-background:new 0 0 512 512;" xml:space="preserve">
<path style="fill:#4DBBEB;" d="M437.019,74.98C388.668,26.629,324.381,0,256.001,0S123.333,26.629,74.981,74.98
	C26.629,123.332,0,187.619,0,256c0,68.38,26.629,132.667,74.981,181.019S187.621,512,256.001,512
	c68.379,0,132.667-26.629,181.018-74.981C485.371,388.667,512,324.38,512,256C512,187.619,485.371,123.332,437.019,74.98z"/>
<path style="fill:#2488FF;" d="M437.019,74.981C388.666,26.629,324.379,0,255.999,0c0,0,0,0-0.001,0v512c0.001,0,0.001,0,0.001,0
	c68.379,0,132.667-26.628,181.02-74.979C485.371,388.668,512,324.381,512,256C512,187.62,485.371,123.333,437.019,74.981z"/>
<path style="fill:#F2F2F2;" d="M497,241H351.177c-1.207-60.331-9.668-116.73-24.142-160.156C304.761,14.025,276.113,0,256.001,0
	s-48.763,14.025-71.034,80.844C170.49,124.27,162.03,180.669,160.823,241H15c-8.283,0-15,6.717-15,15c0,8.284,6.717,15,15,15
	h145.822c1.207,60.33,9.668,116.729,24.145,160.156C207.239,497.975,235.889,512,256.001,512s48.76-14.025,71.034-80.845
	C341.51,387.729,349.97,331.33,351.177,271H497c8.283,0,15-6.716,15-15C512,247.717,505.283,241,497,241z M213.426,90.33
	C228.27,45.801,245.639,30,256.001,30s27.729,15.801,42.573,60.33c13.502,40.505,21.416,93.543,22.598,150.67H190.828
	C192.01,183.873,199.925,130.835,213.426,90.33z M298.574,421.669C283.73,466.199,266.363,482,256.001,482
	s-27.731-15.801-42.575-60.331C199.925,381.164,192.01,328.127,190.828,271h130.343C319.99,328.126,312.076,381.164,298.574,421.669
	z"/>
<path style="fill:#D9D9D9;" d="M497,241H351.177c-1.207-60.331-9.668-116.73-24.142-160.156C304.761,14.025,276.113,0,256.001,0
	C256,0,256,0,256,0v30c0,0,0,0,0.001,0c10.362,0,27.729,15.801,42.573,60.33c13.502,40.505,21.416,93.543,22.598,150.67H256v30
	h65.171c-1.182,57.126-9.096,110.164-22.598,150.669C283.73,466.199,266.363,482,256.001,482C256,482,256,482,256,482v30
	c0,0,0,0,0.001,0c20.112,0,48.76-14.025,71.034-80.845C341.51,387.729,349.97,331.33,351.177,271H497c8.283,0,15-6.716,15-15
	C512,247.717,505.283,241,497,241z"/>
<g>
</g>
<g>
</g>
<g>
</g>
<g>
</g>
<g>
</g>
<g>
</g>
<g>
</g>
<g>
</g>
<g>
</g>
<g>
</g>
<g>
</g>
<g>
</g>
<g>
</g>
<g>
</g>
<g>
</g>
</svg>
