<?xml version="1.0" encoding="iso-8859-1"?>
<!-- Generator: Adobe Illustrator 19.0.0, SVG Export Plug-In . SVG Version: 6.00 Build 0)  -->
<svg version="1.1" id="Capa_1" xmlns="http://www.w3.org/2000/svg" xmlns:xlink="http://www.w3.org/1999/xlink" x="0px" y="0px"
	 viewBox="0 0 511.998 511.998" style="enable-background:new 0 0 511.998 511.998;" xml:space="preserve">
<path style="fill:#4DBBEB;" d="M455.474,243.398c0.194-2.489,0.292-4.988,0.292-7.484c0-52.566-42.767-95.332-95.334-95.332
	c-9.331,0-18.422,1.318-27.182,3.934c-20.551-50.349-69.987-84.268-125.451-84.268c-74.714,0-135.498,60.785-135.498,135.5
	c0,0.209,0.001,0.418,0.002,0.628C28.056,219.699,0,265.674,0,316.249c0,74.715,60.785,135.5,135.5,135.5h265.1
	c61.426,0,111.398-49.974,111.398-111.4C511.998,299.939,490.151,263.029,455.474,243.398z"/>
<path style="fill:#2488FF;" d="M455.474,243.398c0.194-2.489,0.292-4.988,0.292-7.484c0-52.566-42.767-95.332-95.334-95.332
	c-9.331,0-18.422,1.318-27.182,3.934c-14.313-35.063-42.641-62.142-77.251-75.361V451.75H400.6
	c61.426,0,111.398-49.974,111.398-111.4C511.998,299.939,490.151,263.029,455.474,243.398z"/>
<g>
</g>
<g>
</g>
<g>
</g>
<g>
</g>
<g>
</g>
<g>
</g>
<g>
</g>
<g>
</g>
<g>
</g>
<g>
</g>
<g>
</g>
<g>
</g>
<g>
</g>
<g>
</g>
<g>
</g>
</svg>
