<?xml version="1.0" encoding="iso-8859-1"?>
<!-- Generator: Adobe Illustrator 19.0.0, SVG Export Plug-In . SVG Version: 6.00 Build 0)  -->
<svg version="1.1" id="Capa_1" xmlns="http://www.w3.org/2000/svg" xmlns:xlink="http://www.w3.org/1999/xlink" x="0px" y="0px"
	 viewBox="0 0 512 512" style="enable-background:new 0 0 512 512;" xml:space="preserve">
<path style="fill:#2488FF;" d="M416.667,0H95.333C42.766,0,0,42.767,0,95.334v321.332C0,469.233,42.766,512,95.333,512h321.334
	C469.234,512,512,469.233,512,416.666V95.334C512,42.767,469.234,0,416.667,0z"/>
<path style="fill:#006DF0;" d="M416.667,0H256v512h160.667C469.234,512,512,469.233,512,416.666V95.334
	C512,42.767,469.234,0,416.667,0z"/>
<path style="fill:#F2F2F2;" d="M169.24,271h-57.841c-8.284,0-15-6.716-15-15c0-8.283,6.716-15,15-15h57.841c8.284,0,15,6.717,15,15
	C184.24,264.284,177.524,271,169.24,271z"/>
<path style="fill:#D9D9D9;" d="M400.601,271h-57.84c-8.284,0-15-6.716-15-15c0-8.283,6.716-15,15-15h57.84c8.284,0,15,6.717,15,15
	C415.601,264.284,408.885,271,400.601,271z"/>
<g>
	<path style="fill:#F2F2F2;" d="M256,184.24c-8.284,0-15-6.716-15-15V111.4c0-8.284,6.716-15,15-15s15,6.716,15,15v57.84
		C271,177.524,264.284,184.24,256,184.24z"/>
	<path style="fill:#F2F2F2;" d="M256,415.6c-8.284,0-15-6.716-15-15v-57.84c0-8.284,6.716-15,15-15s15,6.716,15,15v57.84
		C271,408.884,264.284,415.6,256,415.6z"/>
	<path style="fill:#F2F2F2;" d="M153.751,373.246c-3.839,0-7.678-1.464-10.607-4.394c-5.857-5.858-5.857-15.355,0-21.213
		l40.9-40.898c5.857-5.857,15.355-5.858,21.213,0c5.857,5.858,5.857,15.355,0,21.213l-40.9,40.898
		C161.429,371.781,157.59,373.246,153.751,373.246z"/>
</g>
<path style="fill:#D9D9D9;" d="M317.349,209.65c-3.839,0-7.678-1.465-10.606-4.393c-5.857-5.858-5.857-15.356,0-21.214
	l40.898-40.898c5.857-5.857,15.355-5.857,21.213,0c5.857,5.857,5.857,15.356,0,21.213l-40.898,40.899
	C325.026,208.186,321.188,209.65,317.349,209.65z"/>
<path style="fill:#F2F2F2;" d="M194.651,209.652c-3.839,0-7.678-1.465-10.606-4.393l-40.9-40.9c-5.857-5.857-5.857-15.355,0-21.213
	c5.857-5.857,15.355-5.857,21.213,0l40.9,40.9c5.857,5.857,5.857,15.355,0,21.213C202.329,208.188,198.49,209.652,194.651,209.652z"
	/>
<g>
	<path style="fill:#D9D9D9;" d="M358.247,373.246c-3.839,0-7.677-1.464-10.607-4.394l-40.898-40.896
		c-5.857-5.857-5.857-15.354,0-21.213c5.857-5.857,15.355-5.859,21.213,0l40.898,40.896c5.857,5.858,5.857,15.355,0,21.213
		C365.926,371.781,362.086,373.246,358.247,373.246z"/>
	<path style="fill:#D9D9D9;" d="M271,169.24V111.4c0-8.283-6.715-15-14.999-15v87.84C264.285,184.24,271,177.523,271,169.24z"/>
	<path style="fill:#D9D9D9;" d="M271,400.6v-57.84c0-8.283-6.715-15-14.999-15v87.84C264.285,415.6,271,408.883,271,400.6z"/>
</g>
<g>
</g>
<g>
</g>
<g>
</g>
<g>
</g>
<g>
</g>
<g>
</g>
<g>
</g>
<g>
</g>
<g>
</g>
<g>
</g>
<g>
</g>
<g>
</g>
<g>
</g>
<g>
</g>
<g>
</g>
</svg>
