<?xml version="1.0" encoding="iso-8859-1"?>
<!-- Generator: Adobe Illustrator 19.0.0, SVG Export Plug-In . SVG Version: 6.00 Build 0)  -->
<svg version="1.1" id="Capa_1" xmlns="http://www.w3.org/2000/svg" xmlns:xlink="http://www.w3.org/1999/xlink" x="0px" y="0px"
	 viewBox="0 0 512 512" style="enable-background:new 0 0 512 512;" xml:space="preserve">
<path style="fill:#FED42D;" d="M501.311,48.833l-160.666-48.2c-2.813-0.844-5.809-0.844-8.621,0L175.668,47.54L19.311,0.633
	C14.77-0.73,9.852,0.136,6.047,2.966S0,10.259,0,15v433.8c0,6.624,4.346,12.464,10.69,14.367l160.668,48.2
	c2.813,0.844,5.809,0.844,8.621,0l156.355-46.907l156.355,46.907c1.414,0.425,2.865,0.633,4.309,0.633
	c3.19,0,6.336-1.018,8.955-2.966c3.805-2.83,6.047-7.293,6.047-12.034V63.2C512,56.576,507.654,50.737,501.311,48.833z"/>
<path style="fill:#FCBF29;" d="M332.024,0.633L175.668,47.54V512c1.451,0,2.904-0.211,4.311-0.633l156.355-46.907V0
	C334.881,0,333.43,0.211,332.024,0.633z"/>
<g>
</g>
<g>
</g>
<g>
</g>
<g>
</g>
<g>
</g>
<g>
</g>
<g>
</g>
<g>
</g>
<g>
</g>
<g>
</g>
<g>
</g>
<g>
</g>
<g>
</g>
<g>
</g>
<g>
</g>
</svg>
