<?xml version="1.0" encoding="iso-8859-1"?>
<!-- Generator: Adobe Illustrator 19.0.0, SVG Export Plug-In . SVG Version: 6.00 Build 0)  -->
<svg version="1.1" id="Capa_1" xmlns="http://www.w3.org/2000/svg" xmlns:xlink="http://www.w3.org/1999/xlink" x="0px" y="0px"
	 viewBox="0 0 512 512" style="enable-background:new 0 0 512 512;" xml:space="preserve">
<path style="fill:#2488FF;" d="M496.999,0H15.001c-8.284,0-15,6.716-15,15v482c0,8.284,6.716,15,15,15h481.998
	c8.284,0,15-6.716,15-15V15C511.999,6.716,505.283,0,496.999,0z"/>
<path style="fill:#006DF0;" d="M496.999,0h-241v512h241c8.284,0,15-6.716,15-15V15C511.999,6.717,505.283,0,496.999,0z"/>
<g>
	<path style="fill:#F2F2F2;" d="M135.503,271c-3.95,0-7.82-1.6-10.61-4.399c-2.79-2.79-4.39-6.65-4.39-10.601
		c0-3.949,1.6-7.81,4.39-10.609c2.79-2.79,6.66-4.391,10.61-4.391s7.82,1.601,10.6,4.391c2.801,2.8,4.4,6.66,4.4,10.609
		c0,3.95-1.6,7.81-4.4,10.601C143.312,269.4,139.453,271,135.503,271z"/>
	<path style="fill:#F2F2F2;" d="M256.003,271c-3.95,0-7.82-1.6-10.61-4.399c-2.79-2.79-4.39-6.65-4.39-10.601
		c0-3.949,1.6-7.81,4.39-10.609c2.79-2.79,6.66-4.391,10.61-4.391c3.95,0,7.82,1.601,10.6,4.391c2.801,2.8,4.4,6.66,4.4,10.609
		c0,3.95-1.6,7.81-4.4,10.601C263.813,269.4,259.953,271,256.003,271z"/>
</g>
<g>
	<path style="fill:#D9D9D9;" d="M376.503,271c-3.95,0-7.82-1.6-10.61-4.399c-2.79-2.79-4.39-6.65-4.39-10.601
		c0-3.949,1.6-7.819,4.39-10.609s6.66-4.391,10.61-4.391c3.95,0,7.82,1.601,10.6,4.391c2.801,2.8,4.4,6.66,4.4,10.609
		c0,3.95-1.6,7.81-4.4,10.601C384.313,269.4,380.453,271,376.503,271z"/>
	<path style="fill:#D9D9D9;" d="M266.602,245.391c-2.779-2.79-6.649-4.391-10.6-4.391v30c3.95,0,7.81-1.6,10.6-4.399
		c2.801-2.79,4.4-6.65,4.4-10.601C271.003,252.051,269.403,248.19,266.602,245.391z"/>
</g>
<g>
</g>
<g>
</g>
<g>
</g>
<g>
</g>
<g>
</g>
<g>
</g>
<g>
</g>
<g>
</g>
<g>
</g>
<g>
</g>
<g>
</g>
<g>
</g>
<g>
</g>
<g>
</g>
<g>
</g>
</svg>
