<?xml version="1.0" encoding="iso-8859-1"?>
<!-- Generator: Adobe Illustrator 19.0.0, SVG Export Plug-In . SVG Version: 6.00 Build 0)  -->
<svg version="1.1" id="Capa_1" xmlns="http://www.w3.org/2000/svg" xmlns:xlink="http://www.w3.org/1999/xlink" x="0px" y="0px"
	 viewBox="0 0 512 512" style="enable-background:new 0 0 512 512;" xml:space="preserve">
<circle style="fill:#F2F2F2;" cx="256" cy="256" r="241"/>
<path style="fill:#D9D9D9;" d="M426.413,85.588L85.588,426.414c94.116,94.116,246.709,94.116,340.825,0
	S520.529,179.703,426.413,85.588z"/>
<g>
	<path style="fill:#4DBBEB;" d="M74.981,437.02C26.628,388.667,0,324.38,0,256c0.001-68.38,26.629-132.667,74.981-181.019
		S187.62,0.001,256,0c68.38,0,132.667,26.628,181.02,74.981C485.372,123.333,512,187.62,512,256
		c0,68.381-26.628,132.668-74.98,181.02C388.668,485.372,324.381,512,256,512C187.62,512,123.333,485.371,74.981,437.02z
		 M415.807,96.194c-88.118-88.118-231.495-88.118-319.612,0s-88.118,231.495,0,319.612s231.495,88.118,319.612,0
		S503.924,184.312,415.807,96.194z"/>
	<path style="fill:#4DBBEB;" d="M96.399,256c0-8.284,6.716-15,15-15h81.68c8.284,0,15,6.716,15,15s-6.716,15-15,15h-81.68
		C103.115,271,96.399,264.284,96.399,256z"/>
</g>
<path style="fill:#2488FF;" d="M303.921,255.998c0-8.284,6.716-15,15-15h81.676c8.284,0,15,6.716,15,15s-6.716,15-15,15h-81.676
	C310.637,270.998,303.921,264.282,303.921,255.998z"/>
<path style="fill:#4DBBEB;" d="M240.997,193.09v-81.689c0-8.284,6.716-15,15-15c8.284,0,15,6.716,15,15v81.689
	c0,8.284-6.716,15-15,15C247.713,208.09,240.997,201.374,240.997,193.09z"/>
<path style="fill:#2488FF;" d="M240.997,400.6v-81.68c0-8.284,6.716-15,15-15c8.284,0,15,6.716,15,15v81.68c0,8.284-6.716,15-15,15
	C247.713,415.6,240.997,408.884,240.997,400.6z"/>
<path style="fill:#FD3018;" d="M159.134,372.246l147.692-56.803c3.961-1.523,7.092-4.654,8.615-8.615l56.803-147.693
	c2.129-5.535,0.798-11.8-3.394-15.991c-4.191-4.192-10.459-5.521-15.991-3.394l-147.688,56.809
	c-3.961,1.523-7.092,4.654-8.615,8.615l-56.808,147.688c-0.673,1.75-1,3.573-1,5.382c0,3.908,1.526,7.744,4.394,10.609
	C147.334,373.044,153.601,374.374,159.134,372.246z"/>
<path style="fill:#E61E14;" d="M143.143,368.853c4.191,4.191,10.458,5.521,15.991,3.394l147.692-56.803
	c3.961-1.523,7.092-4.654,8.615-8.615l56.803-147.693c2.129-5.535,0.798-11.8-3.394-15.991L143.143,368.853z"/>
<path style="fill:#2488FF;" d="M512,256c0-68.38-26.628-132.667-74.98-181.019l-21.213,21.213
	c88.118,88.118,88.118,231.495,0,319.612s-231.495,88.118-319.612,0l-21.213,21.213C123.333,485.371,187.62,512,256,512
	c68.381,0,132.668-26.628,181.02-74.98S512,324.38,512,256z"/>
<g>
</g>
<g>
</g>
<g>
</g>
<g>
</g>
<g>
</g>
<g>
</g>
<g>
</g>
<g>
</g>
<g>
</g>
<g>
</g>
<g>
</g>
<g>
</g>
<g>
</g>
<g>
</g>
<g>
</g>
</svg>
