<?xml version="1.0" encoding="iso-8859-1"?>
<!-- Generator: Adobe Illustrator 19.0.0, SVG Export Plug-In . SVG Version: 6.00 Build 0)  -->
<svg version="1.1" id="Capa_1" xmlns="http://www.w3.org/2000/svg" xmlns:xlink="http://www.w3.org/1999/xlink" x="0px" y="0px"
	 viewBox="0 0 512 512" style="enable-background:new 0 0 512 512;" xml:space="preserve">
<path style="fill:#2488FF;" d="M431.666,239.934c0-8.284-6.716-15-15-15s-15,6.716-15,15c0,80.32-65.346,145.666-145.666,145.666
	s-145.666-65.346-145.666-145.666c0-8.284-6.716-15-15-15s-15,6.716-15,15c0,91.809,70.799,167.383,160.666,175.02V497
	c0,8.284,6.716,15,15,15c8.284,0,15-6.716,15-15v-82.047C360.867,407.316,431.666,331.742,431.666,239.934z"/>
<path style="fill:#006DF0;" d="M416.666,224.934c-8.284,0-15,6.716-15,15c0,80.32-65.346,145.666-145.666,145.666l0,0V512l0,0
	c8.284,0,15-6.716,15-15v-82.047c89.867-7.637,160.666-83.211,160.666-175.02C431.666,231.649,424.95,224.934,416.666,224.934z"/>
<g>
	<path style="fill:#787780;" d="M256,0c-43.707,0-79.266,35.559-79.266,79.266v160.668c0,43.707,35.559,79.266,79.266,79.266
		c43.709,0,79.268-35.559,79.268-79.266V79.266C335.268,35.559,299.709,0,256,0z"/>
	<path style="fill:#787780;" d="M304.201,512h-96.4c-8.284,0-15-6.716-15-15c0-8.283,6.716-15,15-15h96.4c8.284,0,15,6.717,15,15
		C319.201,505.284,312.485,512,304.201,512z"/>
</g>
<g>
	<path style="fill:#57555C;" d="M335.268,239.934V79.266C335.268,35.559,299.709,0,256,0l0,0v319.199l0,0
		C299.709,319.199,335.268,283.641,335.268,239.934z"/>
	<path style="fill:#57555C;" d="M304.201,512c8.284,0,15-6.716,15-15c0-8.283-6.716-15-15-15H256v30H304.201z"/>
</g>
<g>
</g>
<g>
</g>
<g>
</g>
<g>
</g>
<g>
</g>
<g>
</g>
<g>
</g>
<g>
</g>
<g>
</g>
<g>
</g>
<g>
</g>
<g>
</g>
<g>
</g>
<g>
</g>
<g>
</g>
</svg>
