<?xml version="1.0" encoding="iso-8859-1"?>
<!-- Generator: Adobe Illustrator 19.0.0, SVG Export Plug-In . SVG Version: 6.00 Build 0)  -->
<svg version="1.1" id="Capa_1" xmlns="http://www.w3.org/2000/svg" xmlns:xlink="http://www.w3.org/1999/xlink" x="0px" y="0px"
	 viewBox="0 0 512 512" style="enable-background:new 0 0 512 512;" xml:space="preserve">
<path style="fill:#4DBBEB;" d="M260.629,188.167c0.005,34.845,28.353,63.195,63.192,63.198h0.007
	c16.901,0,32.785-6.588,44.713-18.539l24.125-24.121c2.951,5.675,6.791,10.927,11.444,15.578
	c11.936,11.935,27.807,18.508,44.688,18.508c16.881,0,32.751-6.573,44.686-18.505C505.424,212.353,512,196.481,512,179.59
	l-0.004-116.266c0.026-12.475-3.578-24.549-10.415-34.901c-2.344-3.556-5.068-6.894-8.096-9.918C481.548,6.571,465.682,0,448.811,0
	h-116.38c-16.882,0-32.753,6.575-44.687,18.512c-11.938,11.936-18.512,27.805-18.513,44.686
	c-0.001,16.882,6.574,32.753,18.508,44.684c4.646,4.649,9.892,8.485,15.561,11.437l-24.159,24.159
	C267.203,155.417,260.629,171.287,260.629,188.167z"/>
<g>
	<path style="fill:#2488FF;" d="M448.797,269.232c-16.882,0-32.752,6.574-44.684,18.509c-4.649,4.646-8.485,9.891-11.437,15.561
		l-24.16-24.161c-11.94-11.935-27.811-18.509-44.69-18.509c-16.88,0.001-32.751,6.575-44.688,18.512
		c-11.938,11.937-18.512,27.808-18.511,44.687c0,16.896,6.587,32.778,18.539,44.713l24.121,24.126
		c-5.674,2.951-10.924,6.79-15.575,11.442c-24.641,24.64-24.641,64.734-0.004,89.376C299.642,505.426,315.514,512,332.404,512
		l116.399-0.002c12.429,0,24.456-3.603,34.78-10.421c3.561-2.35,6.896-5.076,9.904-8.09c11.973-11.975,18.545-27.893,18.508-44.788
		V332.471c0.008-16.899-6.567-32.785-18.514-44.727C481.547,275.807,465.678,269.232,448.797,269.232z"/>
	<path style="fill:#2488FF;" d="M208.696,392.678l24.159-24.158c11.938-11.939,18.512-27.81,18.512-44.688
		c0-34.849-28.347-63.199-63.197-63.199c-16.898,0-32.782,6.586-44.718,18.538l-24.122,24.12
		c-2.951-5.674-6.789-10.924-11.442-15.576C95.951,275.78,80.08,269.207,63.2,269.207c-16.881,0-32.752,6.573-44.688,18.505
		C6.574,299.643,0,315.516,0,332.406v116.267c-0.026,12.475,3.578,24.547,10.421,34.91c2.345,3.552,5.067,6.887,8.09,9.907
		c11.935,11.935,27.805,18.507,44.687,18.507h116.366h0.002c16.877,0,32.749-6.573,44.692-18.512
		c11.935-11.937,18.507-27.807,18.508-44.687c0-16.882-6.575-32.753-18.509-44.684C219.611,399.465,214.366,395.629,208.696,392.678
		z"/>
</g>
<path style="fill:#4DBBEB;" d="M63.197,242.768h0.002c16.881,0,32.752-6.575,44.684-18.509c4.649-4.646,8.485-9.891,11.437-15.561
	l24.157,24.159c11.939,11.936,27.81,18.511,44.688,18.511h0.001c16.882-0.001,32.754-6.575,44.691-18.512
	c11.938-11.936,18.511-27.808,18.508-44.686c0-16.9-6.586-32.782-18.536-44.714l-24.123-24.124
	c5.676-2.952,10.927-6.79,15.579-11.444c24.635-24.64,24.635-64.733,0.001-89.377C212.351,6.574,196.478,0,179.59,0L63.189,0.002
	c-12.43,0-24.456,3.604-34.765,10.415c-3.546,2.336-6.883,5.06-9.92,8.096C6.531,30.487-0.04,46.406,0,63.301v116.224
	c-0.014,16.894,6.56,32.779,18.51,44.732C30.445,236.192,46.316,242.768,63.197,242.768z"/>
<path style="fill:#2488FF;" d="M323.828,251.365c16.901,0,32.785-6.588,44.713-18.539l24.125-24.121
	c2.951,5.675,6.791,10.927,11.444,15.578c11.936,11.935,27.807,18.508,44.688,18.508c16.881,0,32.751-6.573,44.686-18.505
	C505.424,212.353,512,196.481,512,179.59l-0.004-116.266c0.026-12.475-3.578-24.549-10.415-34.901
	c-2.343-3.554-5.065-6.89-8.091-9.913L279.165,232.834c11.442,11.442,27.238,18.529,44.656,18.531H323.828z"/>
<g>
	<path style="fill:#4DBBEB;" d="M260.629,323.83c0,16.896,6.587,32.778,18.539,44.713l24.121,24.126
		c-5.674,2.951-10.924,6.79-15.575,11.442c-24.641,24.64-24.641,64.734-0.004,89.376C299.642,505.426,315.514,512,332.404,512
		l116.399-0.002c12.429,0,24.456-3.603,34.78-10.421c3.561-2.35,6.896-5.076,9.904-8.09c0-0.001,0-0.001,0.001-0.001
		L279.143,279.141c-0.001,0.001-0.002,0.002-0.003,0.003C267.201,291.08,260.628,306.951,260.629,323.83z"/>
	<path style="fill:#4DBBEB;" d="M143.452,279.17l-24.122,24.12c-2.951-5.674-6.789-10.924-11.442-15.576
		C95.951,275.779,80.08,269.206,63.2,269.206c-16.881,0-32.752,6.573-44.688,18.505C6.574,299.643,0,315.516,0,332.406v116.267
		c-0.026,12.475,3.578,24.547,10.421,34.91c2.345,3.552,5.067,6.886,8.089,9.907l214.327-214.327
		c-11.442-11.444-27.242-18.531-44.667-18.531C171.272,260.632,155.388,267.218,143.452,279.17z"/>
</g>
<path style="fill:#2488FF;" d="M232.827,143.456l-24.123-24.124c5.676-2.952,10.927-6.79,15.579-11.444
	c24.635-24.64,24.635-64.733,0.001-89.377C212.351,6.574,196.478,0,179.59,0L63.189,0.002c-12.43,0-24.456,3.604-34.765,10.415
	c-3.544,2.335-6.879,5.058-9.915,8.091l214.348,214.348c11.937-11.937,18.51-27.807,18.507-44.686
	C251.363,171.27,244.777,155.388,232.827,143.456z"/>
<g>
</g>
<g>
</g>
<g>
</g>
<g>
</g>
<g>
</g>
<g>
</g>
<g>
</g>
<g>
</g>
<g>
</g>
<g>
</g>
<g>
</g>
<g>
</g>
<g>
</g>
<g>
</g>
<g>
</g>
</svg>
