<?xml version="1.0" encoding="iso-8859-1"?>
<!-- Generator: Adobe Illustrator 19.0.0, SVG Export Plug-In . SVG Version: 6.00 Build 0)  -->
<svg version="1.1" id="Capa_1" xmlns="http://www.w3.org/2000/svg" xmlns:xlink="http://www.w3.org/1999/xlink" x="0px" y="0px"
	 viewBox="0 0 512.003 512.003" style="enable-background:new 0 0 512.003 512.003;" xml:space="preserve">
<g>
	<path style="fill:#2488FF;" d="M279.143,232.86c11.933,11.936,27.8,18.509,44.678,18.509l116.338,0.001c0.004,0,0.037,0,0.04,0
		c16.881,0,32.753-6.574,44.693-18.514c11.936-11.936,18.509-27.806,18.509-44.687c-0.001-16.882-6.576-32.752-18.51-44.683
		c-4.647-4.649-9.892-8.485-15.561-11.438l24.162-24.16C505.427,95.95,512,80.079,512,63.201c0-16.881-6.574-32.752-18.511-44.69
		C481.553,6.574,465.683,0,448.803,0.001c-16.898,0-32.782,6.587-44.716,18.539l-24.124,24.122
		c-2.951-5.674-6.789-10.924-11.442-15.576c-11.937-11.937-27.807-18.511-44.688-18.51c-16.881,0-32.753,6.574-44.684,18.505
		c-11.94,11.929-18.516,27.802-18.516,44.694v116.271c-0.026,12.48,3.577,24.552,10.422,34.912
		C273.402,226.513,276.125,229.846,279.143,232.86z M440.198,236.369L440.198,236.369L440.198,236.369L440.198,236.369z"/>
	<path style="fill:#2488FF;" d="M493.461,404.089l-24.12-24.124c5.674-2.951,10.923-6.79,15.573-11.442
		c11.939-11.936,18.513-27.807,18.513-44.689s-6.574-32.753-18.507-44.685c-11.928-11.939-27.801-18.515-44.693-18.515
		l-116.27-0.001c-0.011,0-0.117,0-0.127,0c-12.433,0-24.461,3.604-34.784,10.423c-3.555,2.348-6.889,5.071-9.902,8.088
		c-11.973,11.97-18.545,27.888-18.508,44.789l-0.002,116.227c-0.011,16.896,6.564,32.782,18.515,44.732
		c11.936,11.936,27.805,18.509,44.685,18.509c16.882,0,32.752-6.574,44.685-18.509c4.648-4.647,8.485-9.893,11.436-15.563
		l24.159,24.161c11.939,11.936,27.81,18.511,44.69,18.511c16.882,0,32.753-6.573,44.689-18.51
		c11.938-11.937,18.511-27.807,18.51-44.687C512.002,431.901,505.413,416.017,493.461,404.089z"/>
	<path style="fill:#2488FF;" d="M240.948,289.055c-2.343-3.553-5.064-6.889-8.092-9.916c-11.937-11.933-27.805-18.505-44.681-18.505
		l-116.369-0.001c-16.889,0-32.763,6.575-44.696,18.512C15.174,291.08,8.6,306.951,8.6,323.832
		c-0.001,16.882,6.574,32.752,18.508,44.683c4.648,4.65,9.893,8.486,15.564,11.438L18.514,404.11
		C6.572,416.049-0.003,431.921,0,448.801c0,16.882,6.574,32.753,18.511,44.69c11.937,11.938,27.807,18.511,44.687,18.51
		c16.902,0,32.786-6.588,44.713-18.539l24.126-24.122c2.951,5.675,6.79,10.925,11.444,15.575
		c11.936,11.938,27.806,18.512,44.688,18.512c16.88,0,32.752-6.573,44.689-18.509c11.938-11.933,18.513-27.805,18.513-44.69
		l-0.004-116.271C251.392,311.478,247.787,299.404,240.948,289.055z"/>
	<path style="fill:#2488FF;" d="M232.858,27.111C220.922,15.174,205.051,8.6,188.17,8.6c-16.882,0-32.752,6.574-44.683,18.508
		c-4.649,4.648-8.486,9.893-11.438,15.564l-24.158-24.157C95.957,6.576,80.088,0.001,63.201,0.001
		c-16.882,0-32.753,6.574-44.689,18.511C6.574,30.448,0.001,46.319,0.002,63.198c0,16.9,6.588,32.783,18.539,44.713l24.122,24.126
		c-5.676,2.951-10.925,6.79-15.575,11.443C15.15,155.417,8.575,171.287,8.575,188.168c0,16.882,6.574,32.753,18.509,44.688
		c11.933,11.939,27.806,18.515,44.693,18.515h0.001l116.401-0.004c12.431,0,24.457-3.604,34.764-10.413
		c3.556-2.343,6.895-5.067,9.92-8.096c11.972-11.974,18.543-27.891,18.506-44.787l0.002-116.225
		C251.382,54.945,244.807,39.06,232.858,27.111z"/>
</g>
<g>
	<path style="fill:#006DF0;" d="M323.82,251.369l116.338,0.001c0.004,0,0.037,0,0.04,0c16.881,0,32.753-6.574,44.693-18.514
		c11.936-11.936,18.509-27.806,18.509-44.687c-0.001-16.882-6.576-32.752-18.51-44.683c-4.647-4.649-9.892-8.485-15.561-11.438
		l24.162-24.16C505.427,95.95,512,80.079,512,63.201c0-16.881-6.574-32.752-18.511-44.69L279.142,232.859
		c0,0.001,0.001,0.001,0.001,0.001C291.075,244.796,306.942,251.369,323.82,251.369z M440.198,236.369L440.198,236.369
		L440.198,236.369z"/>
	<path style="fill:#006DF0;" d="M493.492,493.491c11.938-11.937,18.511-27.807,18.51-44.687c0-16.903-6.589-32.788-18.541-44.716
		l-24.12-24.124c5.674-2.951,10.923-6.79,15.573-11.442c11.939-11.936,18.513-27.807,18.513-44.689s-6.574-32.753-18.507-44.685
		c-11.928-11.939-27.801-18.515-44.693-18.515l-116.27-0.001c-0.011,0-0.117,0-0.127,0c-12.433,0-24.461,3.604-34.784,10.423
		c-3.555,2.348-6.889,5.071-9.902,8.088L493.492,493.491C493.491,493.491,493.492,493.491,493.492,493.491z"/>
	<path style="fill:#006DF0;" d="M18.511,493.491c11.937,11.938,27.807,18.511,44.687,18.51c16.902,0,32.786-6.588,44.713-18.539
		l24.126-24.122c2.951,5.675,6.79,10.925,11.444,15.575c11.936,11.938,27.806,18.512,44.688,18.512
		c16.88,0,32.752-6.573,44.689-18.509c11.938-11.933,18.513-27.805,18.513-44.69l-0.004-116.271
		c0.026-12.479-3.578-24.553-10.417-34.901c-2.342-3.552-5.063-6.886-8.089-9.913L18.511,493.491L18.511,493.491z"/>
	<path style="fill:#006DF0;" d="M251.369,188.07l0.002-116.225c0.011-16.9-6.564-32.785-18.513-44.733
		C220.922,15.175,205.051,8.601,188.17,8.601c-16.882,0-32.752,6.574-44.683,18.508c-4.649,4.648-8.486,9.893-11.438,15.564
		l-24.158-24.157C95.957,6.576,80.088,0.001,63.201,0.001c-16.882,0-32.753,6.574-44.689,18.511v0.001L232.859,232.86
		c0.002-0.001,0.003-0.002,0.004-0.003C244.835,220.884,251.406,204.967,251.369,188.07z"/>
</g>
<g>
</g>
<g>
</g>
<g>
</g>
<g>
</g>
<g>
</g>
<g>
</g>
<g>
</g>
<g>
</g>
<g>
</g>
<g>
</g>
<g>
</g>
<g>
</g>
<g>
</g>
<g>
</g>
<g>
</g>
</svg>
