<?xml version="1.0" encoding="iso-8859-1"?>
<!-- Generator: Adobe Illustrator 19.0.0, SVG Export Plug-In . SVG Version: 6.00 Build 0)  -->
<svg version="1.1" id="Capa_1" xmlns="http://www.w3.org/2000/svg" xmlns:xlink="http://www.w3.org/1999/xlink" x="0px" y="0px"
	 viewBox="0 0 512 512" style="enable-background:new 0 0 512 512;" xml:space="preserve">
<path style="fill:#FED42D;" d="M252.821,507.606l254.785-254.78c2.814-2.814,4.394-6.628,4.394-10.607V15.002
	c0-8.284-6.717-15-15-15L269.781,0c-3.979,0-7.794,1.58-10.606,4.393L4.394,259.177C1.465,262.107,0,265.945,0,269.784
	c0,3.838,1.465,7.678,4.394,10.605l227.215,227.215C237.466,513.464,246.964,513.464,252.821,507.606z M372.785,139.221
	c-2.79-2.801-4.39-6.66-4.39-10.61c0-3.95,1.6-7.819,4.39-10.61c2.79-2.789,6.66-4.39,10.61-4.39c3.95,0,7.81,1.601,10.6,4.39
	c2.79,2.791,4.391,6.66,4.391,10.61c0,3.95-1.6,7.81-4.391,10.61c-2.79,2.789-6.659,4.39-10.6,4.39
	C379.445,143.611,375.575,142.01,372.785,139.221z"/>
<path style="fill:#FCBF29;" d="M252.821,507.606l254.785-254.78c2.814-2.814,4.394-6.628,4.394-10.607V15.002
	c0-4.142-1.68-7.892-4.394-10.607L393.998,118.003c2.789,2.79,4.389,6.659,4.389,10.607c0,3.95-1.6,7.81-4.391,10.61
	c-2.79,2.789-6.659,4.39-10.6,4.39c-3.95,0-7.82-1.601-10.61-4.39c-0.001-0.002-0.002-0.002-0.002-0.004L118.002,393.998
	l113.607,113.607C237.466,513.464,246.964,513.464,252.821,507.606z"/>
<g>
</g>
<g>
</g>
<g>
</g>
<g>
</g>
<g>
</g>
<g>
</g>
<g>
</g>
<g>
</g>
<g>
</g>
<g>
</g>
<g>
</g>
<g>
</g>
<g>
</g>
<g>
</g>
<g>
</g>
</svg>
