<?xml version="1.0" encoding="iso-8859-1"?>
<!-- Generator: Adobe Illustrator 19.0.0, SVG Export Plug-In . SVG Version: 6.00 Build 0)  -->
<svg version="1.1" id="Capa_1" xmlns="http://www.w3.org/2000/svg" xmlns:xlink="http://www.w3.org/1999/xlink" x="0px" y="0px"
	 viewBox="0 0 512 512" style="enable-background:new 0 0 512 512;" xml:space="preserve">
<path style="fill:#4DBBEB;" d="M416.667,0H95.333C42.766,0,0,42.767,0,95.334v321.332C0,469.233,42.766,512,95.333,512h321.334
	C469.234,512,512,469.233,512,416.666V95.334C512,42.767,469.234,0,416.667,0z"/>
<path style="fill:#2488FF;" d="M416.667,0H256v512h160.667C469.234,512,512,469.233,512,416.666V95.334
	C512,42.767,469.234,0,416.667,0z"/>
<path style="fill:#F2F2F2;" d="M393.249,248.35c-8.284,0-15,6.716-15,15c0.001,32.655-12.716,63.354-35.806,86.445
	c-23.09,23.09-53.789,35.806-86.443,35.805c-32.654,0.001-63.354-12.715-86.443-35.805c-23.09-23.09-35.807-53.79-35.806-86.445
	c0-67.409,54.841-122.25,122.25-122.25c17.16,0,33.778,3.518,49.038,10.201h-6.886c-8.284,0-15,6.716-15,15s6.716,15,15,15h54.898
	c0.099,0,0.194-0.013,0.294-0.015c0.393-0.008,0.785-0.021,1.176-0.06c0.261-0.025,0.514-0.072,0.77-0.111
	c0.228-0.033,0.454-0.059,0.68-0.104c0.278-0.055,0.55-0.131,0.822-0.201c0.2-0.051,0.402-0.094,0.601-0.154
	c0.266-0.08,0.523-0.179,0.782-0.273c0.201-0.072,0.405-0.139,0.605-0.221c0.243-0.101,0.477-0.219,0.714-0.332
	c0.206-0.098,0.414-0.188,0.616-0.297c0.232-0.123,0.451-0.264,0.676-0.398c0.195-0.117,0.393-0.228,0.584-0.355
	c0.257-0.171,0.5-0.361,0.746-0.548c0.143-0.109,0.291-0.208,0.432-0.323c0.772-0.633,1.479-1.34,2.111-2.111
	c0.1-0.121,0.186-0.25,0.28-0.375c0.203-0.264,0.407-0.528,0.593-0.807c0.115-0.172,0.213-0.35,0.319-0.525
	c0.148-0.243,0.301-0.483,0.436-0.736c0.097-0.182,0.178-0.369,0.267-0.553c0.124-0.258,0.252-0.514,0.361-0.779
	c0.072-0.176,0.13-0.355,0.195-0.533c0.104-0.282,0.211-0.563,0.299-0.854c0.051-0.168,0.086-0.34,0.131-0.51
	c0.08-0.303,0.162-0.605,0.223-0.914c0.035-0.178,0.055-0.358,0.082-0.537c0.049-0.304,0.103-0.604,0.133-0.913
	c0.024-0.253,0.026-0.509,0.038-0.763c0.011-0.232,0.035-0.461,0.035-0.696l0.002-54.9c0.001-8.285-6.716-15.001-14.999-15.001
	c-0.001,0,0,0-0.001,0c-8.284,0-14.999,6.716-15,14.999l-0.001,23.651c-24.27-15.59-52.516-23.951-82.052-23.951
	c-83.95,0-152.25,68.299-152.25,152.25c-0.001,40.668,15.836,78.902,44.592,107.658C177.1,399.765,215.333,415.601,256,415.6
	c0.003,0,0.002,0,0.005,0c40.663,0,78.897-15.837,107.651-44.592c28.757-28.757,44.594-66.99,44.593-107.658
	C408.249,255.065,401.533,248.35,393.249,248.35z"/>
<g>
	<path style="fill:#D9D9D9;" d="M256.001,141.1c17.16,0,33.778,3.518,49.038,10.201h-6.886c-8.284,0-15,6.716-15,15s6.716,15,15,15
		h54.898c0.099,0,0.194-0.013,0.294-0.015c0.393-0.008,0.785-0.021,1.176-0.06c0.261-0.025,0.514-0.072,0.77-0.111
		c0.228-0.033,0.454-0.059,0.68-0.104c0.278-0.055,0.55-0.131,0.822-0.201c0.2-0.051,0.402-0.094,0.601-0.154
		c0.266-0.08,0.523-0.179,0.782-0.273c0.201-0.072,0.405-0.139,0.605-0.221c0.243-0.101,0.477-0.219,0.714-0.332
		c0.206-0.098,0.414-0.188,0.616-0.297c0.232-0.123,0.451-0.264,0.676-0.398c0.195-0.117,0.393-0.228,0.584-0.355
		c0.257-0.171,0.5-0.361,0.746-0.548c0.143-0.109,0.291-0.208,0.432-0.323c0.772-0.633,1.479-1.34,2.111-2.111
		c0.1-0.121,0.186-0.25,0.28-0.375c0.203-0.264,0.407-0.528,0.593-0.807c0.115-0.172,0.213-0.35,0.319-0.525
		c0.148-0.243,0.301-0.483,0.436-0.736c0.097-0.182,0.178-0.369,0.267-0.553c0.124-0.258,0.252-0.514,0.361-0.779
		c0.072-0.176,0.13-0.355,0.195-0.533c0.104-0.282,0.211-0.563,0.299-0.854c0.051-0.168,0.086-0.34,0.131-0.51
		c0.08-0.303,0.162-0.605,0.223-0.914c0.035-0.178,0.055-0.358,0.082-0.537c0.049-0.304,0.103-0.604,0.133-0.913
		c0.024-0.253,0.026-0.509,0.038-0.763c0.011-0.232,0.035-0.461,0.035-0.696l0.002-54.9c0.001-8.285-6.716-15.001-14.999-15.001
		c-0.001,0,0,0-0.001,0c-8.284,0-14.999,6.716-15,14.999l-0.001,23.651c-24.27-15.59-52.516-23.951-82.052-23.951
		c-0.001,0-0.001,0-0.001,0v30C256,141.1,256,141.1,256.001,141.1z"/>
	<path style="fill:#D9D9D9;" d="M393.249,248.35c-8.284,0-15,6.716-15,15c0.001,32.655-12.716,63.354-35.806,86.445
		c-23.09,23.09-53.789,35.806-86.443,35.805l0,0v30l0,0c0.003,0,0.002,0,0.005,0c40.663,0,78.897-15.837,107.651-44.592
		c28.757-28.757,44.594-66.99,44.593-107.658C408.249,255.065,401.533,248.35,393.249,248.35z"/>
</g>
<g>
</g>
<g>
</g>
<g>
</g>
<g>
</g>
<g>
</g>
<g>
</g>
<g>
</g>
<g>
</g>
<g>
</g>
<g>
</g>
<g>
</g>
<g>
</g>
<g>
</g>
<g>
</g>
<g>
</g>
</svg>
