<?xml version="1.0" encoding="iso-8859-1"?>
<!-- Generator: Adobe Illustrator 19.0.0, SVG Export Plug-In . SVG Version: 6.00 Build 0)  -->
<svg version="1.1" id="Capa_1" xmlns="http://www.w3.org/2000/svg" xmlns:xlink="http://www.w3.org/1999/xlink" x="0px" y="0px"
	 viewBox="0 0 511.998 511.998" style="enable-background:new 0 0 511.998 511.998;" xml:space="preserve">
<path style="fill:#F2F2F2;" d="M496.998,96.399H15c-8.284,0-15,6.716-15,15v289.199c0,8.284,6.716,15,15,15h481.998
	c8.284,0,15-6.716,15-15V111.399C511.998,103.115,505.282,96.399,496.998,96.399z"/>
<path style="fill:#D9D9D9;" d="M496.998,96.399H255.999v319.199h240.999c8.284,0,15-6.716,15-15V111.399
	C511.998,103.115,505.282,96.399,496.998,96.399z"/>
<path style="fill:#2488FF;" d="M124.999,192.799c-8.284,0-15,6.716-15,15v96.4c0,8.284,6.716,15,15,15s15-6.716,15-15v-96.4
	C139.999,199.515,133.283,192.799,124.999,192.799z"/>
<g>
</g>
<g>
</g>
<g>
</g>
<g>
</g>
<g>
</g>
<g>
</g>
<g>
</g>
<g>
</g>
<g>
</g>
<g>
</g>
<g>
</g>
<g>
</g>
<g>
</g>
<g>
</g>
<g>
</g>
</svg>
