<?xml version="1.0" encoding="iso-8859-1"?>
<!-- Generator: Adobe Illustrator 19.0.0, SVG Export Plug-In . SVG Version: 6.00 Build 0)  -->
<svg version="1.1" id="Capa_1" xmlns="http://www.w3.org/2000/svg" xmlns:xlink="http://www.w3.org/1999/xlink" x="0px" y="0px"
	 viewBox="0 0 511.998 511.998" style="enable-background:new 0 0 511.998 511.998;" xml:space="preserve">
<path style="fill:#F2F2F2;" d="M496.998,96.399H15c-8.284,0-15,6.716-15,15v289.199c0,8.284,6.716,15,15,15h481.998
	c8.284,0,15-6.716,15-15V111.399C511.998,103.115,505.282,96.399,496.998,96.399z"/>
<path style="fill:#D9D9D9;" d="M496.998,96.399H255.999v319.199h240.999c8.284,0,15-6.716,15-15V111.399
	C511.998,103.115,505.282,96.399,496.998,96.399z"/>
<path style="fill:#006DF0;" d="M409.412,255.999l37.594-37.594c5.858-5.857,5.858-15.355,0-21.213
	c-5.857-5.857-15.355-5.857-21.213,0l-37.594,37.594l-37.594-37.594c-5.857-5.857-15.355-5.857-21.213,0s-5.858,15.355,0,21.213
	L366.986,256l-37.594,37.594c-5.858,5.857-5.858,15.355,0,21.213c2.929,2.929,6.768,4.394,10.606,4.394s7.678-1.465,10.606-4.394
	l37.594-37.594l37.594,37.594c2.929,2.929,6.768,4.394,10.607,4.394s7.678-1.465,10.606-4.394c5.858-5.857,5.858-15.355,0-21.213
	L409.412,255.999z"/>
<g>
</g>
<g>
</g>
<g>
</g>
<g>
</g>
<g>
</g>
<g>
</g>
<g>
</g>
<g>
</g>
<g>
</g>
<g>
</g>
<g>
</g>
<g>
</g>
<g>
</g>
<g>
</g>
<g>
</g>
</svg>
