<?xml version="1.0" encoding="iso-8859-1"?>
<!-- Generator: Adobe Illustrator 19.0.0, SVG Export Plug-In . SVG Version: 6.00 Build 0)  -->
<svg version="1.1" id="Capa_1" xmlns="http://www.w3.org/2000/svg" xmlns:xlink="http://www.w3.org/1999/xlink" x="0px" y="0px"
	 viewBox="0 0 512 512" style="enable-background:new 0 0 512 512;" xml:space="preserve">
<path style="fill:#2488FF;" d="M416.667,0H95.334C42.767,0,0,42.767,0,95.334v321.332C0,469.233,42.767,512,95.334,512h321.333
	C469.234,512,512,469.233,512,416.666V95.334C512,42.767,469.234,0,416.667,0z"/>
<path style="fill:#006DF0;" d="M416.667,0H256v512h160.667C469.234,512,512,469.233,512,416.666V95.334
	C512,42.767,469.234,0,416.667,0z"/>
<path style="fill:#F2F2F2;" d="M256,111.1c-29.536,0-57.783,8.361-82.052,23.951l-0.001-23.651c0-8.284-6.717-14.999-15-14.999
	c-8.285,0-15,6.716-15,15.001l0.002,54.9c0,0.225,0.023,0.444,0.033,0.667c0.012,0.265,0.015,0.529,0.041,0.793
	c0.029,0.305,0.082,0.603,0.13,0.901c0.028,0.183,0.048,0.367,0.083,0.55c0.061,0.306,0.143,0.604,0.222,0.903
	c0.045,0.173,0.082,0.349,0.134,0.521c0.086,0.287,0.191,0.563,0.295,0.842c0.066,0.182,0.125,0.365,0.199,0.545
	c0.107,0.261,0.232,0.512,0.354,0.764c0.091,0.19,0.175,0.383,0.274,0.569c0.131,0.247,0.28,0.483,0.426,0.721
	c0.109,0.181,0.21,0.364,0.328,0.54c0.182,0.273,0.383,0.532,0.582,0.793c0.1,0.128,0.188,0.262,0.291,0.389
	c0.632,0.771,1.339,1.478,2.11,2.109c0.14,0.114,0.286,0.213,0.429,0.32c0.246,0.189,0.491,0.379,0.75,0.552
	c0.191,0.128,0.391,0.238,0.587,0.356c0.222,0.135,0.44,0.273,0.671,0.396c0.207,0.11,0.42,0.203,0.631,0.305
	c0.232,0.109,0.46,0.225,0.697,0.323c0.209,0.086,0.422,0.155,0.635,0.231c0.248,0.09,0.494,0.186,0.75,0.263
	c0.215,0.065,0.436,0.112,0.653,0.168c0.255,0.066,0.507,0.136,0.767,0.188s0.521,0.081,0.783,0.12
	c0.222,0.031,0.44,0.073,0.666,0.096c0.494,0.049,0.99,0.074,1.486,0.074h54.891c8.284,0,15-6.716,15-15s-6.716-15-15-15h-6.887
	c15.26-6.684,31.878-10.201,49.039-10.201c67.408,0,122.25,54.841,122.25,122.25c0,32.655-12.715,63.355-35.805,86.445
	s-53.79,35.806-86.445,35.805c-32.653,0.001-63.352-12.715-86.442-35.805c-23.091-23.091-35.807-53.79-35.807-86.445
	c0-8.284-6.716-15-15-15s-15,6.716-15,15c0,40.668,15.837,78.902,44.593,107.658c28.757,28.757,66.99,44.593,107.656,44.592
	c0.002,0,0.002,0,0.004,0c40.666,0,78.899-15.837,107.654-44.592c28.756-28.756,44.592-66.99,44.592-107.658
	C408.25,179.398,339.951,111.1,256,111.1z"/>
<path style="fill:#D9D9D9;" d="M256,111.1L256,111.1v30l0,0c67.408,0,122.25,54.841,122.25,122.25
	c0,32.655-12.715,63.355-35.805,86.445S288.655,385.601,256,385.6v30c0.002,0,0.002,0,0.004,0
	c40.666,0,78.899-15.837,107.654-44.592c28.756-28.756,44.592-66.99,44.592-107.658C408.25,179.398,339.951,111.1,256,111.1z"/>
<g>
</g>
<g>
</g>
<g>
</g>
<g>
</g>
<g>
</g>
<g>
</g>
<g>
</g>
<g>
</g>
<g>
</g>
<g>
</g>
<g>
</g>
<g>
</g>
<g>
</g>
<g>
</g>
<g>
</g>
</svg>
