<?xml version="1.0" encoding="iso-8859-1"?>
<!-- Generator: Adobe Illustrator 19.0.0, SVG Export Plug-In . SVG Version: 6.00 Build 0)  -->
<svg version="1.1" id="Capa_1" xmlns="http://www.w3.org/2000/svg" xmlns:xlink="http://www.w3.org/1999/xlink" x="0px" y="0px"
	 viewBox="0 0 512 512" style="enable-background:new 0 0 512 512;" xml:space="preserve">
<path style="fill:#AEADB3;" d="M416.666,0H95.332C42.766,0,0,42.768,0,95.334v321.333C0,469.233,42.766,512,95.332,512h321.334
	C469.233,512,512,469.233,512,416.667V95.334C512,42.768,469.233,0,416.666,0z"/>
<path style="fill:#8B8892;" d="M416.667,0H255.999v512h160.668C469.233,512,512,469.233,512,416.666V95.334
	C512,42.767,469.233,0,416.667,0z"/>
<path style="fill:#787780;" d="M239.926,241H15c-8.284,0-15,6.716-15,15s6.716,15,15,15h224.926c8.284,0,15-6.716,15-15
	S248.21,241,239.926,241z"/>
<path style="fill:#57555C;" d="M497,241h-96.4c-8.284,0-15,6.716-15,15s6.716,15,15,15H497c8.284,0,15-6.716,15-15
	S505.284,241,497,241z"/>
<path style="fill:#F2F2F2;" d="M320.266,160.667c-52.567,0-95.334,42.767-95.334,95.333c0,52.567,42.767,95.334,95.334,95.334
	S415.6,308.567,415.6,256C415.6,203.434,372.833,160.667,320.266,160.667z"/>
<path style="fill:#D9D9D9;" d="M320.266,160.667c-0.356,0-0.711,0.01-1.066,0.014v190.64c0.355,0.004,0.71,0.014,1.066,0.014
	c52.567,0,95.334-42.767,95.334-95.334C415.6,203.434,372.833,160.667,320.266,160.667z"/>
<g>
</g>
<g>
</g>
<g>
</g>
<g>
</g>
<g>
</g>
<g>
</g>
<g>
</g>
<g>
</g>
<g>
</g>
<g>
</g>
<g>
</g>
<g>
</g>
<g>
</g>
<g>
</g>
<g>
</g>
</svg>
