<?xml version="1.0" encoding="iso-8859-1"?>
<!-- Generator: Adobe Illustrator 19.0.0, SVG Export Plug-In . SVG Version: 6.00 Build 0)  -->
<svg version="1.1" id="Capa_1" xmlns="http://www.w3.org/2000/svg" xmlns:xlink="http://www.w3.org/1999/xlink" x="0px" y="0px"
	 viewBox="0 0 512 512" style="enable-background:new 0 0 512 512;" xml:space="preserve">
<path style="fill:#AEADB3;" d="M416.666,0H95.332C42.766,0,0,42.768,0,95.334v321.333C0,469.233,42.766,512,95.332,512h321.334
	C469.233,512,512,469.233,512,416.667V95.334C512,42.768,469.233,0,416.666,0z"/>
<path style="fill:#8B8892;" d="M416.667,0H255.999v512h160.668C469.233,512,512,469.233,512,416.666V95.334
	C512,42.767,469.233,0,416.667,0z"/>
<g>
	<path style="fill:#787780;" d="M127.467,512c-8.284,0-15-6.716-15-15V207.8c0-8.284,6.716-15,15-15s15,6.716,15,15V497
		C142.467,505.284,135.751,512,127.467,512z"/>
	<path style="fill:#787780;" d="M127.467,126.4c-8.284,0-15-6.716-15-15V15c0-8.284,6.716-15,15-15s15,6.716,15,15v96.4
		C142.467,119.685,135.751,126.4,127.467,126.4z"/>
	<path style="fill:#787780;" d="M256,512c-8.284,0-15-6.716-15-15v-80.333c0-8.284,6.716-15,15-15s15,6.716,15,15V497
		C271,505.284,264.284,512,256,512z"/>
</g>
<path style="fill:#57555C;" d="M271,497v-80.333c0-8.284-6.716-15-15-15V512C264.284,512,271,505.284,271,497z"/>
<path style="fill:#787780;" d="M256,335.268c-8.284,0-15-6.716-15-15V15c0-8.284,6.716-15,15-15s15,6.716,15,15v305.268
	C271,328.552,264.284,335.268,256,335.268z"/>
<g>
	<path style="fill:#57555C;" d="M271,320.268V15c0-8.284-6.716-15-15-15v335.268C264.284,335.268,271,328.552,271,320.268z"/>
	<path style="fill:#57555C;" d="M384.533,512c-8.284,0-15-6.716-15-15V239.934c0-8.284,6.716-15,15-15s15,6.716,15,15V497
		C399.533,505.284,392.817,512,384.533,512z"/>
	<path style="fill:#57555C;" d="M384.533,158.533c-8.284,0-15-6.716-15-15V15c0-8.284,6.716-15,15-15s15,6.716,15,15v128.533
		C399.533,151.817,392.817,158.533,384.533,158.533z"/>
</g>
<g>
	<path style="fill:#F2F2F2;" d="M127.467,96.4c-34.85,0-63.201,28.351-63.201,63.199s28.352,63.2,63.201,63.2
		s63.199-28.352,63.199-63.2S162.315,96.4,127.467,96.4z"/>
	<path style="fill:#F2F2F2;" d="M256,305.268c-34.85,0-63.201,28.351-63.201,63.199s28.352,63.2,63.201,63.2
		s63.199-28.352,63.199-63.2S290.849,305.268,256,305.268z"/>
</g>
<g>
	<path style="fill:#D9D9D9;" d="M384.533,128.533c-34.85,0-63.201,28.352-63.201,63.2s28.352,63.2,63.201,63.2
		s63.199-28.352,63.199-63.2S419.382,128.533,384.533,128.533z"/>
	<path style="fill:#D9D9D9;" d="M256,305.268v126.399c34.849,0,63.199-28.352,63.199-63.2S290.849,305.268,256,305.268z"/>
</g>
<g>
</g>
<g>
</g>
<g>
</g>
<g>
</g>
<g>
</g>
<g>
</g>
<g>
</g>
<g>
</g>
<g>
</g>
<g>
</g>
<g>
</g>
<g>
</g>
<g>
</g>
<g>
</g>
<g>
</g>
</svg>
