<?xml version="1.0" encoding="iso-8859-1"?>
<!-- Generator: Adobe Illustrator 19.0.0, SVG Export Plug-In . SVG Version: 6.00 Build 0)  -->
<svg version="1.1" id="Capa_1" xmlns="http://www.w3.org/2000/svg" xmlns:xlink="http://www.w3.org/1999/xlink" x="0px" y="0px"
	 viewBox="0 0 512.003 512.003" style="enable-background:new 0 0 512.003 512.003;" xml:space="preserve">
<path style="fill:#F2F2F2;" d="M435.308,197.197L242.509,4.395c-2.814-2.813-6.629-4.394-10.607-4.394H39.101
	c-8.284,0-15,6.717-15,15v482.001c0,8.284,6.716,15,15,15h385.6c8.285,0,15-6.716,15-15v-289.2
	C439.701,203.825,438.121,200.011,435.308,197.197z"/>
<path style="fill:#D9D9D9;" d="M435.308,197.197L242.509,4.395c-2.814-2.813-6.629-4.394-10.607-4.394h-15v512.001h207.799
	c8.285,0,15-6.716,15-15v-289.2C439.701,203.825,438.121,200.011,435.308,197.197z"/>
<g>
	<path style="fill:#AEADB3;" d="M435.308,197.197L242.509,4.395c-4.289-4.291-10.742-5.576-16.348-3.252
		c-5.605,2.323-9.26,7.791-9.26,13.858v192.801c0,8.284,6.717,15,15,15H424.7c6.067,0,11.537-3.654,13.859-9.26
		C440.88,207.938,439.597,201.487,435.308,197.197z"/>
	<path style="fill:#AEADB3;" d="M487.645,183.781c0.341,0,0.342-0.531,0-0.531C487.303,183.25,487.303,183.781,487.645,183.781
		L487.645,183.781z"/>
</g>
<g>
</g>
<g>
</g>
<g>
</g>
<g>
</g>
<g>
</g>
<g>
</g>
<g>
</g>
<g>
</g>
<g>
</g>
<g>
</g>
<g>
</g>
<g>
</g>
<g>
</g>
<g>
</g>
<g>
</g>
</svg>
