<?xml version="1.0" encoding="iso-8859-1"?>
<!-- Generator: Adobe Illustrator 19.0.0, SVG Export Plug-In . SVG Version: 6.00 Build 0)  -->
<svg version="1.1" id="Capa_1" xmlns="http://www.w3.org/2000/svg" xmlns:xlink="http://www.w3.org/1999/xlink" x="0px" y="0px"
	 viewBox="0 0 512 512" style="enable-background:new 0 0 512 512;" xml:space="preserve">
<path style="fill:#FED42D;" d="M437.019,74.979C388.667,26.628,324.38,0,256,0C187.618,0,123.331,26.628,74.979,74.98
	C26.628,123.331,0,187.619,0,256v48.2c0,8.284,6.716,15,15,15h96.4c8.284,0,15-6.716,15-15V256c0-71.462,58.138-129.6,129.6-129.6
	S385.6,184.538,385.6,256v48.2c0,8.284,6.716,15,15,15H497c8.284,0,15-6.716,15-15V256C512,187.619,485.371,123.332,437.019,74.979z
	"/>
<path style="fill:#FCBF29;" d="M437.019,74.979C388.667,26.628,324.38,0,256,0v126.4c71.462,0,129.6,58.138,129.6,129.6v48.2
	c0,8.284,6.716,15,15,15H497c8.284,0,15-6.716,15-15V256C512,187.619,485.371,123.332,437.019,74.979z"/>
<path style="fill:#787780;" d="M127.467,289.2c-2.959,0-5.709,0.868-8.033,2.347c-2.324-1.479-5.074-2.347-8.033-2.347H15
	c-8.284,0-15,6.716-15,15V497c0,8.284,6.716,15,15,15h96.4c2.959,0,5.709-0.868,8.033-2.348c2.324,1.479,5.074,2.348,8.033,2.348
	c8.284,0,15-6.716,15-15V304.2C142.467,295.916,135.751,289.2,127.467,289.2z"/>
<path style="fill:#57555C;" d="M497,289.2h-96.4c-2.959,0-5.709,0.868-8.033,2.347c-2.324-1.479-5.074-2.347-8.033-2.347
	c-8.284,0-15,6.716-15,15V497c0,8.284,6.716,15,15,15c2.959,0,5.709-0.868,8.033-2.348c2.324,1.479,5.074,2.348,8.033,2.348H497
	c8.284,0,15-6.716,15-15V304.2C512,295.916,505.284,289.2,497,289.2z"/>
<g>
</g>
<g>
</g>
<g>
</g>
<g>
</g>
<g>
</g>
<g>
</g>
<g>
</g>
<g>
</g>
<g>
</g>
<g>
</g>
<g>
</g>
<g>
</g>
<g>
</g>
<g>
</g>
<g>
</g>
</svg>
