<?xml version="1.0" encoding="iso-8859-1"?>
<!-- Generator: Adobe Illustrator 19.0.0, SVG Export Plug-In . SVG Version: 6.00 Build 0)  -->
<svg version="1.1" id="Capa_1" xmlns="http://www.w3.org/2000/svg" xmlns:xlink="http://www.w3.org/1999/xlink" x="0px" y="0px"
	 viewBox="0 0 512.001 512.001" style="enable-background:new 0 0 512.001 512.001;" xml:space="preserve">
<path style="fill:#61DE56;" d="M281.863,480.825c-3.839,0-7.679-1.463-10.608-4.393c-5.858-5.858-5.859-15.357,0-21.215
	L444.02,282.443c24.49-24.489,37.977-57.049,37.977-91.682c0-34.635-13.487-67.195-37.977-91.684
	c-50.553-50.552-132.812-50.55-183.368,0L53.803,305.931c-31.751,31.755-31.751,83.423,0,115.176
	c31.751,31.747,83.418,31.751,115.175-0.002l206.849-206.856c12.95-12.954,12.95-34.027,0-46.976
	c-6.273-6.276-14.613-9.731-23.486-9.731s-17.216,3.455-23.491,9.731L156.081,340.041c-5.859,5.858-15.358,5.86-21.215,0
	c-5.859-5.858-5.859-15.357,0-21.215l172.771-172.771c11.942-11.94,27.819-18.518,44.706-18.518c16.888,0,32.764,6.577,44.702,18.52
	c24.647,24.644,24.648,64.751-0.001,89.405l-206.85,206.86c-21.725,21.721-50.27,32.583-78.805,32.586
	c-28.541,0.002-57.072-10.858-78.799-32.586c-43.45-43.452-43.45-114.153-0.001-157.607L239.438,77.863
	c62.255-62.251,163.547-62.251,225.797,0c30.156,30.155,46.764,70.25,46.765,112.899c0.001,42.648-16.607,82.743-46.765,112.899
	L292.471,476.432C289.542,479.359,285.703,480.825,281.863,480.825z"/>
<g>
	<path style="fill:#13C37B;" d="M375.827,167.274c12.95,12.948,12.95,34.022,0,46.976L168.978,421.105
		c-19.004,19.002-45.136,26.62-69.865,22.879l-24.668,24.669c11.931,4.17,24.436,6.257,36.941,6.255
		c28.535-0.002,57.08-10.864,78.805-32.586l206.851-206.86c24.649-24.653,24.648-64.761,0.001-89.405c-0.001,0-0.002,0-0.003-0.002
		l-21.215,21.215C375.826,167.272,375.826,167.274,375.827,167.274z"/>
	<path style="fill:#13C37B;" d="M465.236,77.863L465.236,77.863l-21.215,21.215l0,0c24.489,24.489,37.977,57.049,37.977,91.684
		c0,34.633-13.486,67.193-37.977,91.682L271.256,455.217c-5.859,5.858-5.858,15.357,0,21.215c2.929,2.93,6.769,4.393,10.608,4.393
		c3.839,0,7.679-1.465,10.607-4.393l172.765-172.771c30.157-30.155,46.766-70.252,46.765-112.899
		C511.999,148.113,495.392,108.02,465.236,77.863z"/>
</g>
<g>
</g>
<g>
</g>
<g>
</g>
<g>
</g>
<g>
</g>
<g>
</g>
<g>
</g>
<g>
</g>
<g>
</g>
<g>
</g>
<g>
</g>
<g>
</g>
<g>
</g>
<g>
</g>
<g>
</g>
</svg>
