<?xml version="1.0" encoding="iso-8859-1"?>
<!-- Generator: Adobe Illustrator 19.0.0, SVG Export Plug-In . SVG Version: 6.00 Build 0)  -->
<svg version="1.1" id="Capa_1" xmlns="http://www.w3.org/2000/svg" xmlns:xlink="http://www.w3.org/1999/xlink" x="0px" y="0px"
	 viewBox="0 0 512 512" style="enable-background:new 0 0 512 512;" xml:space="preserve">
<path style="fill:#FCBF29;" d="M511.998,15v96.398c0,8.285-6.716,15-15,15H304.201c-8.284,0-15-6.715-15-15V15
	c0-8.283,6.716-15,15-15h192.797C505.282,0,511.998,6.717,511.998,15z"/>
<path style="fill:#FED42D;" d="M511.998,111.399L512,497c0,3.978-1.58,7.793-4.394,10.605C504.794,510.419,500.978,512,497,512H15
	c-3.979,0-7.794-1.581-10.606-4.395C1.58,504.793,0,500.977,0,497l0.002-385.601c0-8.283,6.716-15,15-15h481.996
	C505.282,96.399,511.998,103.115,511.998,111.399z"/>
<g>
</g>
<g>
</g>
<g>
</g>
<g>
</g>
<g>
</g>
<g>
</g>
<g>
</g>
<g>
</g>
<g>
</g>
<g>
</g>
<g>
</g>
<g>
</g>
<g>
</g>
<g>
</g>
<g>
</g>
</svg>
