<?xml version="1.0" encoding="iso-8859-1"?>
<!-- Generator: Adobe Illustrator 19.0.0, SVG Export Plug-In . SVG Version: 6.00 Build 0)  -->
<svg version="1.1" id="Capa_1" xmlns="http://www.w3.org/2000/svg" xmlns:xlink="http://www.w3.org/1999/xlink" x="0px" y="0px"
	 viewBox="0 0 512 512" style="enable-background:new 0 0 512 512;" xml:space="preserve">
<path style="fill:#4DBBEB;" d="M416.666,0H95.334C42.767,0,0,42.768,0,95.334v321.333C0,469.233,42.767,512,95.334,512h321.332
	C469.233,512,512,469.233,512,416.667V95.334C512,42.768,469.233,0,416.666,0z"/>
<path style="fill:#2488FF;" d="M416.666,0H256v512h160.666C469.233,512,512,469.233,512,416.667V95.334
	C512,42.768,469.233,0,416.666,0z"/>
<path style="fill:#F2F2F2;" d="M304.199,303.133c8.284,0,15-6.716,15-15c0-8.283-6.716-15-15-15H271V159.6
	c0-18.306,14.894-33.199,33.199-33.199c8.284,0,15-6.716,15-15s-6.716-15-15-15c-19.301,0-36.598,8.706-48.199,22.387
	C244.398,105.106,227.101,96.4,207.799,96.4c-8.284,0-15,6.716-15,15s6.716,15,15,15c18.307,0,33.201,14.894,33.201,33.2v113.533
	h-33.201c-8.284,0-15,6.717-15,15c0,8.284,6.716,15,15,15H241V352.4c0,18.306-14.894,33.199-33.201,33.199c-8.284,0-15,6.716-15,15
	s6.716,15,15,15c19.302,0,36.599-8.706,48.201-22.387c11.602,13.681,28.898,22.387,48.199,22.387c8.284,0,15-6.716,15-15
	s-6.716-15-15-15C285.894,385.6,271,370.706,271,352.4v-49.268h33.199V303.133z"/>
<path style="fill:#D9D9D9;" d="M304.199,303.133c8.284,0,15-6.716,15-15c0-8.283-6.716-15-15-15H271V159.6
	c0-18.306,14.894-33.199,33.199-33.199c8.284,0,15-6.716,15-15s-6.716-15-15-15c-19.301,0-36.598,8.706-48.199,22.387v274.426
	c11.602,13.681,28.898,22.387,48.199,22.387c8.284,0,15-6.716,15-15s-6.716-15-15-15C285.894,385.6,271,370.706,271,352.4v-49.268
	h33.199V303.133z"/>
<g>
</g>
<g>
</g>
<g>
</g>
<g>
</g>
<g>
</g>
<g>
</g>
<g>
</g>
<g>
</g>
<g>
</g>
<g>
</g>
<g>
</g>
<g>
</g>
<g>
</g>
<g>
</g>
<g>
</g>
</svg>
