<?xml version="1.0" encoding="iso-8859-1"?>
<!-- Generator: Adobe Illustrator 19.0.0, SVG Export Plug-In . SVG Version: 6.00 Build 0)  -->
<svg version="1.1" id="Capa_1" xmlns="http://www.w3.org/2000/svg" xmlns:xlink="http://www.w3.org/1999/xlink" x="0px" y="0px"
	 viewBox="0 0 512 512" style="enable-background:new 0 0 512 512;" xml:space="preserve">
<path style="fill:#FED42D;" d="M437.019,74.98C388.667,26.629,324.38,0,256,0C187.619,0,123.332,26.629,74.98,74.98
	C26.629,123.332,0,187.619,0,256s26.629,132.668,74.98,181.02C123.332,485.371,187.619,512,256,512
	c68.38,0,132.667-26.629,181.019-74.98C485.371,388.668,512,324.381,512,256C512,187.62,485.371,123.332,437.019,74.98z"/>
<path style="fill:#FCBF29;" d="M437.02,74.981C388.666,26.629,324.379,0,256,0h-0.001v512H256c68.38,0,132.667-26.628,181.02-74.979
	C485.371,388.668,512,324.381,512,256C512,187.62,485.371,123.333,437.02,74.981z"/>
<path style="fill:#D9D9D9;" d="M304.199,374.279c-8.284,0-15-6.716-15-15V152.723c0-8.284,6.716-15,15-15s15,6.716,15,15V359.28
	C319.199,367.564,312.483,374.279,304.199,374.279z"/>
<path style="fill:#F2F2F2;" d="M207.799,374.279c-8.284,0-15-6.716-15-15V152.723c0-8.284,6.716-15,15-15s15,6.716,15,15V359.28
	C222.799,367.564,216.083,374.279,207.799,374.279z"/>
<g>
</g>
<g>
</g>
<g>
</g>
<g>
</g>
<g>
</g>
<g>
</g>
<g>
</g>
<g>
</g>
<g>
</g>
<g>
</g>
<g>
</g>
<g>
</g>
<g>
</g>
<g>
</g>
<g>
</g>
</svg>
