<?xml version="1.0" encoding="iso-8859-1"?>
<!-- Generator: Adobe Illustrator 19.0.0, SVG Export Plug-In . SVG Version: 6.00 Build 0)  -->
<svg version="1.1" id="Capa_1" xmlns="http://www.w3.org/2000/svg" xmlns:xlink="http://www.w3.org/1999/xlink" x="0px" y="0px"
	 viewBox="0 0 512 512" style="enable-background:new 0 0 512 512;" xml:space="preserve">
<path style="fill:#F2F2F2;" d="M497,96.4H15c-8.284,0-15,6.716-15,15V497c0,8.284,6.716,15,15,15h482c8.284,0,15-6.716,15-15V111.4
	C512,103.116,505.284,96.4,497,96.4z"/>
<path style="fill:#D9D9D9;" d="M497,96.4H256V512h241c8.284,0,15-6.716,15-15V111.4C512,103.116,505.284,96.4,497,96.4z"/>
<path style="fill:#E61E14;" d="M497,0h-96.4c-8.284,0-15,6.716-15,15v96.4c0,8.284,6.716,15,15,15H497c8.284,0,15-6.716,15-15V15
	C512,6.716,505.284,0,497,0z"/>
<path style="fill:#FCBF29;" d="M400.6,0h-96.4c-8.284,0-15,6.716-15,15v96.4c0,8.284,6.716,15,15,15h96.4c8.284,0,15-6.716,15-15V15
	C415.6,6.716,408.884,0,400.6,0z"/>
<path style="fill:#61DE56;" d="M304.199,0h-96.398c-8.284,0-15,6.716-15,15v96.4c0,8.284,6.716,15,15,15h96.398
	c8.284,0,15-6.716,15-15V15C319.199,6.716,312.483,0,304.199,0z"/>
<path style="fill:#4DBBEB;" d="M207.801,0H15C6.716,0,0,6.716,0,15v96.4c0,8.284,6.716,15,15,15h192.801c8.284,0,15-6.716,15-15V15
	C222.801,6.716,216.085,0,207.801,0z"/>
<g>
</g>
<g>
</g>
<g>
</g>
<g>
</g>
<g>
</g>
<g>
</g>
<g>
</g>
<g>
</g>
<g>
</g>
<g>
</g>
<g>
</g>
<g>
</g>
<g>
</g>
<g>
</g>
<g>
</g>
</svg>
