<?xml version="1.0" encoding="iso-8859-1"?>
<!-- Generator: Adobe Illustrator 19.0.0, SVG Export Plug-In . SVG Version: 6.00 Build 0)  -->
<svg version="1.1" id="Capa_1" xmlns="http://www.w3.org/2000/svg" xmlns:xlink="http://www.w3.org/1999/xlink" x="0px" y="0px"
	 viewBox="0 0 512 512" style="enable-background:new 0 0 512 512;" xml:space="preserve">
<path style="fill:#F2F2F2;" d="M163.322,348.678c-5.857-5.857-15.355-5.857-21.213,0L4.394,486.393
	c-5.858,5.857-5.858,15.355,0,21.213C7.323,510.536,11.161,512,15,512s7.678-1.465,10.606-4.394l137.715-137.713
	C169.18,364.034,169.18,354.536,163.322,348.678z"/>
<path style="fill:#D9D9D9;" d="M4.394,507.606C7.323,510.536,11.161,512,15,512s7.678-1.465,10.606-4.394l137.715-137.713
	c5.858-5.859,5.858-15.357,0-21.215L4.394,507.606z"/>
<path style="fill:#FD3018;" d="M512,152.713c0-3.979-1.58-7.793-4.394-10.605L369.89,4.393c-5.857-5.857-15.355-5.857-21.213,0
	L198.545,154.528c-14.877-3.301-30.224-4.998-45.831-4.998c-56.027,0-108.702,21.818-148.32,61.436
	C1.58,213.778,0,217.592,0,221.571s1.58,7.795,4.394,10.607l275.43,275.428c2.813,2.814,6.628,4.394,10.607,4.394
	s7.794-1.58,10.606-4.394c39.618-39.617,61.437-92.293,61.436-148.32c0-15.609-1.698-30.955-4.998-45.832l150.133-150.133
	C510.42,160.508,512,156.692,512,152.713z"/>
<path style="fill:#E61E14;" d="M512,152.713c0-3.979-1.58-7.793-4.394-10.605L438.749,73.25l-296.64,296.641l137.715,137.715
	c2.813,2.814,6.628,4.394,10.607,4.394s7.794-1.58,10.606-4.394c39.618-39.617,61.437-92.293,61.436-148.32
	c0-15.609-1.698-30.955-4.998-45.832l150.133-150.133C510.42,160.508,512,156.692,512,152.713z"/>
<g>
</g>
<g>
</g>
<g>
</g>
<g>
</g>
<g>
</g>
<g>
</g>
<g>
</g>
<g>
</g>
<g>
</g>
<g>
</g>
<g>
</g>
<g>
</g>
<g>
</g>
<g>
</g>
<g>
</g>
</svg>
