<?xml version="1.0" encoding="iso-8859-1"?>
<!-- Generator: Adobe Illustrator 19.0.0, SVG Export Plug-In . SVG Version: 6.00 Build 0)  -->
<svg version="1.1" id="Capa_1" xmlns="http://www.w3.org/2000/svg" xmlns:xlink="http://www.w3.org/1999/xlink" x="0px" y="0px"
	 viewBox="0 0 512 512" style="enable-background:new 0 0 512 512;" xml:space="preserve">
<path style="fill:#FD3018;" d="M437.016,74.982C388.662,26.629,324.375,0,255.996,0C187.615,0,123.328,26.629,74.978,74.982
	C26.628,123.336,0,187.626,0,256.01c0,68.374,26.628,132.658,74.978,181.009C123.33,485.371,187.617,512,255.996,512
	c68.371,0,132.655-26.629,181.01-74.98c48.353-48.352,74.987-112.635,74.994-181.009C512,187.627,485.37,123.337,437.016,74.982z
	 M482,256.009c-0.006,56.915-21.168,108.977-56.022,148.753L107.227,86.025C147.006,51.164,199.073,30,255.996,30
	C380.615,30,482,131.388,482,256.009z M30,256.01c0-56.922,21.16-108.99,56.016-148.77l318.75,318.734
	C364.985,460.836,312.918,482,255.996,482C131.382,482,30,380.621,30,256.01z"/>
<path style="fill:#E61E14;" d="M512,256.011c0-68.384-26.63-132.674-74.984-181.028C388.663,26.63,324.377,0.001,256,0v30
	c124.617,0.002,226,101.389,226,226.009c-0.006,56.915-21.168,108.977-56.022,148.753L256,234.791v42.426l148.766,148.758
	C364.986,460.835,312.92,481.999,256,482v30c68.369-0.001,132.652-26.63,181.006-74.98C485.359,388.668,511.993,324.385,512,256.011
	z"/>
<g>
</g>
<g>
</g>
<g>
</g>
<g>
</g>
<g>
</g>
<g>
</g>
<g>
</g>
<g>
</g>
<g>
</g>
<g>
</g>
<g>
</g>
<g>
</g>
<g>
</g>
<g>
</g>
<g>
</g>
</svg>
