<?xml version="1.0" encoding="iso-8859-1"?>
<!-- Generator: Adobe Illustrator 19.0.0, SVG Export Plug-In . SVG Version: 6.00 Build 0)  -->
<svg version="1.1" id="Capa_1" xmlns="http://www.w3.org/2000/svg" xmlns:xlink="http://www.w3.org/1999/xlink" x="0px" y="0px"
	 viewBox="0 0 512 512" style="enable-background:new 0 0 512 512;" xml:space="preserve">
<path style="fill:#2488FF;" d="M497,0H15C6.716,0,0,6.717,0,15v482c0,8.284,6.716,15,15,15h482c8.284,0,15-6.716,15-15V15
	C512,6.717,505.284,0,497,0z"/>
<path style="fill:#006DF0;" d="M497,0H256v512h241c8.284,0,15-6.716,15-15V15C512,6.717,505.284,0,497,0z"/>
<path style="fill:#F2F2F2;" d="M366.257,202.059c-2.321-5.605-7.792-9.26-13.858-9.26H159.6c-6.066,0-11.537,3.654-13.858,9.26
	c-2.321,5.605-1.038,12.057,3.252,16.347l96.4,96.4c2.813,2.813,6.628,4.393,10.606,4.393c3.978,0,7.794-1.58,10.607-4.393
	l96.398-96.4C367.295,214.115,368.578,207.664,366.257,202.059z"/>
<path style="fill:#D9D9D9;" d="M366.257,202.059c-2.321-5.605-7.792-9.26-13.858-9.26H256v126.4c3.978,0,7.794-1.58,10.607-4.393
	l96.398-96.4C367.295,214.115,368.578,207.664,366.257,202.059z"/>
<g>
</g>
<g>
</g>
<g>
</g>
<g>
</g>
<g>
</g>
<g>
</g>
<g>
</g>
<g>
</g>
<g>
</g>
<g>
</g>
<g>
</g>
<g>
</g>
<g>
</g>
<g>
</g>
<g>
</g>
</svg>
