<?xml version="1.0" encoding="iso-8859-1"?>
<!-- Generator: Adobe Illustrator 19.0.0, SVG Export Plug-In . SVG Version: 6.00 Build 0)  -->
<svg version="1.1" id="Capa_1" xmlns="http://www.w3.org/2000/svg" xmlns:xlink="http://www.w3.org/1999/xlink" x="0px" y="0px"
	 viewBox="0 0 512.001 512.001" style="enable-background:new 0 0 512.001 512.001;" xml:space="preserve">
<path style="fill:#2488FF;" d="M338.271,303.317c-6.566,0-12.98,0.996-19.071,2.916V205.781c6.099,1.926,12.523,2.924,19.103,2.923
	h0.003c16.879,0,32.749-6.574,44.687-18.511c11.938-11.938,18.513-27.809,18.513-44.683c0.008-16.877-6.567-32.75-18.513-44.695
	l-82.216-82.218c-8.807-8.84-19.892-14.827-32.064-17.316C264.545,0.431,260.276,0,255.988,0c-16.928,0-32.828,6.608-44.749,18.584
	l-82.184,82.182c-11.957,11.938-18.542,27.821-18.542,44.723c0,16.881,6.574,32.751,18.512,44.687s27.809,18.51,44.7,18.509
	c6.567,0,12.982-0.996,19.073-2.916v100.45c-6.098-1.925-12.523-2.923-19.102-2.922h-0.003c-16.879,0-32.749,6.574-44.686,18.511
	c-11.938,11.938-18.512,27.809-18.512,44.683c-0.008,16.876,6.566,32.748,18.511,44.695l82.216,82.216
	c8.805,8.842,19.89,14.829,32.064,17.318c4.168,0.85,8.436,1.281,12.686,1.281h0.037c16.929,0,32.83-6.607,44.751-18.584
	l82.184-82.182c11.956-11.938,18.54-27.82,18.54-44.723c0-16.881-6.574-32.75-18.511-44.686
	C371.036,309.889,355.165,303.315,338.271,303.317z"/>
<path style="fill:#006DF0;" d="M255.973,512h0.037c16.929,0,32.83-6.607,44.751-18.584l82.184-82.182
	c11.956-11.938,18.54-27.82,18.54-44.723c0-16.881-6.574-32.75-18.511-44.686c-11.938-11.936-27.809-18.51-44.703-18.508
	c-6.566,0-12.98,0.996-19.071,2.916V205.781c6.099,1.926,12.523,2.924,19.103,2.923h0.003c16.879,0,32.749-6.574,44.687-18.511
	c11.938-11.938,18.513-27.809,18.513-44.683c0.008-16.877-6.567-32.75-18.513-44.695l-82.216-82.218
	c-8.807-8.84-19.892-14.827-32.064-17.316C264.545,0.431,260.276,0,255.988,0L255.973,512z"/>
<g>
</g>
<g>
</g>
<g>
</g>
<g>
</g>
<g>
</g>
<g>
</g>
<g>
</g>
<g>
</g>
<g>
</g>
<g>
</g>
<g>
</g>
<g>
</g>
<g>
</g>
<g>
</g>
<g>
</g>
</svg>
