<?xml version="1.0" encoding="iso-8859-1"?>
<!-- Generator: Adobe Illustrator 19.0.0, SVG Export Plug-In . SVG Version: 6.00 Build 0)  -->
<svg version="1.1" id="Capa_1" xmlns="http://www.w3.org/2000/svg" xmlns:xlink="http://www.w3.org/1999/xlink" x="0px" y="0px"
	 viewBox="0 0 512 512" style="enable-background:new 0 0 512 512;" xml:space="preserve">
<path style="fill:#2488FF;" d="M493.414,211.238l-82.183-82.184c-11.94-11.955-27.822-18.541-44.721-18.541
	c-16.881,0-32.751,6.574-44.686,18.512c-11.937,11.938-18.51,27.81-18.507,44.68c-0.004,6.573,0.991,12.996,2.914,19.094H205.78
	c1.924-6.098,2.922-12.522,2.922-19.102c0-34.848-28.351-63.2-63.225-63.2c-16.867,0-32.729,6.574-44.663,18.512l-82.215,82.214
	c-8.842,8.805-14.83,19.89-17.316,32.057c-0.856,4.186-1.288,8.474-1.283,12.72c-0.005,16.933,6.603,32.838,18.583,44.763
	l82.182,82.181c11.937,11.958,27.819,18.544,44.724,18.544c16.88,0,32.749-6.574,44.686-18.512
	c11.938-11.938,18.511-27.81,18.508-44.685c0.002-6.572-0.994-12.993-2.916-19.089l100.45-0.001
	c-1.925,6.099-2.922,12.522-2.921,19.103c0,34.849,28.352,63.2,63.193,63.2h0.033c16.864,0,32.726-6.574,44.663-18.512
	l82.217-82.216c8.84-8.804,14.827-19.889,17.315-32.064c0.852-4.175,1.283-8.453,1.283-12.716
	C511.999,239.063,505.391,223.158,493.414,211.238z"/>
<path style="fill:#006DF0;" d="M493.414,211.238l-82.183-82.184c-11.94-11.955-27.822-18.541-44.721-18.541
	c-16.881,0-32.751,6.574-44.686,18.512c-11.937,11.938-18.51,27.81-18.507,44.68c-0.004,6.573,0.991,12.996,2.914,19.094h-50.232
	v126.402l50.216-0.001c-1.925,6.099-2.922,12.522-2.921,19.103c0,34.849,28.352,63.2,63.193,63.2h0.033
	c16.864,0,32.726-6.574,44.663-18.512l82.217-82.216c8.84-8.804,14.827-19.889,17.315-32.064c0.852-4.175,1.283-8.453,1.283-12.716
	C511.999,239.063,505.391,223.158,493.414,211.238z"/>
<g>
</g>
<g>
</g>
<g>
</g>
<g>
</g>
<g>
</g>
<g>
</g>
<g>
</g>
<g>
</g>
<g>
</g>
<g>
</g>
<g>
</g>
<g>
</g>
<g>
</g>
<g>
</g>
<g>
</g>
</svg>
