<?xml version="1.0" encoding="iso-8859-1"?>
<!-- Generator: Adobe Illustrator 19.0.0, SVG Export Plug-In . SVG Version: 6.00 Build 0)  -->
<svg version="1.1" id="Capa_1" xmlns="http://www.w3.org/2000/svg" xmlns:xlink="http://www.w3.org/1999/xlink" x="0px" y="0px"
	 viewBox="0 0 512.001 512.001" style="enable-background:new 0 0 512.001 512.001;" xml:space="preserve">
<path style="fill:#F2F2F2;" d="M509.454,247.639c-1.142-1.7-28.473-42.108-72.877-83.005c-26.29-24.213-53.146-43.556-79.821-57.491
	c-34.052-17.79-67.951-26.81-100.754-26.81s-66.702,9.02-100.754,26.81c-26.676,13.936-53.531,33.278-79.821,57.491
	C31.022,205.53,3.691,245.939,2.548,247.639c-3.397,5.058-3.397,11.667,0,16.725c1.143,1.7,28.474,42.107,72.878,83.004
	c26.29,24.213,53.145,43.556,79.821,57.491c34.053,17.789,67.951,26.809,100.754,26.809s66.701-9.02,100.754-26.809
	c26.676-13.935,53.531-33.278,79.821-57.491c44.404-40.897,71.735-81.304,72.877-83.004
	C512.85,259.306,512.851,252.696,509.454,247.639z"/>
<path style="fill:#D9D9D9;" d="M509.454,247.639c-1.142-1.7-28.473-42.108-72.877-83.005c-26.29-24.213-53.146-43.556-79.821-57.491
	c-34.052-17.79-67.95-26.81-100.753-26.81v351.334c32.803,0,66.7-9.02,100.753-26.809c26.676-13.935,53.531-33.278,79.821-57.491
	c44.404-40.897,71.735-81.304,72.877-83.004C512.85,259.306,512.851,252.696,509.454,247.639z"/>
<path style="fill:#787780;" d="M256.001,176.734c-43.707,0-79.266,35.56-79.266,79.268c0,43.707,35.559,79.266,79.266,79.266
	c43.708,0,79.268-35.559,79.268-79.266C335.269,212.293,299.709,176.734,256.001,176.734z"/>
<path style="fill:#57555C;" d="M335.269,256.001c0-43.707-35.559-79.268-79.267-79.268v158.533
	C299.71,335.267,335.269,299.708,335.269,256.001z"/>
<g>
</g>
<g>
</g>
<g>
</g>
<g>
</g>
<g>
</g>
<g>
</g>
<g>
</g>
<g>
</g>
<g>
</g>
<g>
</g>
<g>
</g>
<g>
</g>
<g>
</g>
<g>
</g>
<g>
</g>
</svg>
