<?xml version="1.0" encoding="iso-8859-1"?>
<!-- Generator: Adobe Illustrator 19.0.0, SVG Export Plug-In . SVG Version: 6.00 Build 0)  -->
<svg version="1.1" id="Capa_1" xmlns="http://www.w3.org/2000/svg" xmlns:xlink="http://www.w3.org/1999/xlink" x="0px" y="0px"
	 viewBox="0 0 512 512" style="enable-background:new 0 0 512 512;" xml:space="preserve">
<path style="fill:#607D8B;" d="M458.667,53.333H53.333C23.878,53.333,0,77.211,0,106.667v234.667
	c0,29.455,23.878,53.333,53.333,53.333h448c5.891,0,10.667-4.776,10.667-10.667V106.667C512,77.211,488.122,53.333,458.667,53.333z"
	/>
<circle style="fill:#ECEFF1;" cx="149.333" cy="224" r="74.667"/>
<path style="fill:#455A64;" d="M149.333,309.333C102.205,309.333,64,271.128,64,224s38.205-85.333,85.333-85.333
	s85.333,38.205,85.333,85.333S196.462,309.333,149.333,309.333z M149.333,160c-35.346,0-64,28.654-64,64s28.654,64,64,64
	s64-28.654,64-64S184.68,160,149.333,160z"/>
<circle style="fill:#ECEFF1;" cx="362.667" cy="224" r="74.667"/>
<path style="fill:#455A64;" d="M362.667,309.333c-47.128,0-85.333-38.205-85.333-85.333s38.205-85.333,85.333-85.333
	S448,176.872,448,224S409.795,309.333,362.667,309.333z M362.667,160c-35.346,0-64,28.654-64,64s28.654,64,64,64s64-28.654,64-64
	S398.013,160,362.667,160z"/>
<path style="fill:#42A5F5;" d="M503.744,341.333c-3.623-4.054-9.716-4.734-14.144-1.579l-73.6,52.48l-73.6-52.523
	c-4.428-3.156-10.521-2.476-14.144,1.579c-5.282,5.87-8.221,13.479-8.256,21.376v64c0,17.673,14.327,32,32,32h128
	c17.673,0,32-14.327,32-32v-64C511.955,354.784,509.017,347.193,503.744,341.333z"/>
<path style="fill:#2196F3;" d="M503.701,341.333c-6.036-6.748-14.648-10.624-23.701-10.667H352
	c-9.054,0.043-17.666,3.918-23.701,10.667c-3.946,4.374-3.598,11.119,0.776,15.065c0.302,0.273,0.62,0.528,0.952,0.764l79.787,56.96
	c3.703,2.637,8.67,2.637,12.373,0l79.787-56.96c4.797-3.42,5.912-10.081,2.492-14.878
	C504.229,341.953,503.974,341.636,503.701,341.333z"/>
<path style="fill:#455A64;" d="M362.667,309.333H149.333c-5.891,0-10.667-4.776-10.667-10.667c0-5.891,4.776-10.667,10.667-10.667
	h213.333c5.891,0,10.667,4.776,10.667,10.667C373.333,304.558,368.558,309.333,362.667,309.333z"/>
<g>
	<path style="fill:#2196F3;" d="M170.667,256c-2.831,0.005-5.548-1.115-7.552-3.115l-42.667-42.667
		c-4.092-4.237-3.975-10.99,0.262-15.083c4.134-3.992,10.687-3.992,14.82,0l42.667,42.667c4.159,4.172,4.149,10.926-0.024,15.085
		C176.18,254.875,173.482,255.994,170.667,256z"/>
	<path style="fill:#2196F3;" d="M128,256c-5.891,0.011-10.675-4.757-10.686-10.648c-0.005-2.84,1.123-5.565,3.134-7.571
		l42.667-42.667c4.237-4.092,10.99-3.975,15.083,0.262c3.992,4.134,3.992,10.687,0,14.82l-42.667,42.667
		C133.535,254.866,130.827,255.994,128,256z"/>
	<path style="fill:#2196F3;" d="M384,256c-2.831,0.005-5.548-1.115-7.552-3.115l-42.667-42.667
		c-4.093-4.237-3.975-10.99,0.262-15.083c4.134-3.993,10.687-3.993,14.821,0l42.667,42.667c4.159,4.172,4.148,10.926-0.024,15.085
		C389.513,254.875,386.815,255.994,384,256z"/>
	<path style="fill:#2196F3;" d="M341.333,256c-5.891,0.011-10.675-4.757-10.686-10.648c-0.005-2.84,1.123-5.565,3.134-7.571
		l42.667-42.667c4.093-4.237,10.845-4.355,15.083-0.262c4.237,4.093,4.354,10.845,0.262,15.083
		c-0.086,0.089-0.173,0.176-0.262,0.262l-42.667,42.667C346.868,254.866,344.16,255.994,341.333,256z"/>
</g>
<g>
</g>
<g>
</g>
<g>
</g>
<g>
</g>
<g>
</g>
<g>
</g>
<g>
</g>
<g>
</g>
<g>
</g>
<g>
</g>
<g>
</g>
<g>
</g>
<g>
</g>
<g>
</g>
<g>
</g>
</svg>
