<?xml version="1.0" encoding="iso-8859-1"?>
<!-- Generator: Adobe Illustrator 19.0.0, SVG Export Plug-In . SVG Version: 6.00 Build 0)  -->
<svg version="1.1" id="Capa_1" xmlns="http://www.w3.org/2000/svg" xmlns:xlink="http://www.w3.org/1999/xlink" x="0px" y="0px"
	 viewBox="0 0 512 512" style="enable-background:new 0 0 512 512;" xml:space="preserve">
<path style="fill:#607D8B;" d="M440.896,62.656c-11.04-3.838-16.878-15.898-13.041-26.938c2.125-6.112,6.929-10.916,13.041-13.041
	c4.424-2.364,7.163-6.995,7.104-12.011C448,4.776,443.224,0,437.333,0h-23.296c-4.51-0.001-8.533,2.835-10.048,7.083
	c-2.989,8.492-10.987,14.194-19.989,14.251c-9.01-0.048-17.019-5.751-20.011-14.251c-1.513-4.24-5.525-7.074-10.027-7.083h-25.259
	c-4.51-0.001-8.533,2.835-10.048,7.083c-2.989,8.492-10.987,14.194-19.989,14.251c-9.01-0.048-17.019-5.751-20.011-14.251
	c-1.513-4.24-5.525-7.074-10.027-7.083h-25.259c-4.51-0.001-8.533,2.835-10.048,7.083c-2.989,8.492-10.987,14.194-19.989,14.251
	c-9.01-0.048-17.019-5.751-20.011-14.251c-1.513-4.24-5.525-7.074-10.027-7.083h-25.259c-4.51-0.001-8.533,2.835-10.048,7.083
	c-2.989,8.492-10.987,14.194-19.989,14.251c-9.01-0.048-17.019-5.751-20.011-14.251c-1.513-4.24-5.525-7.074-10.027-7.083H74.667
	C68.438,0.923,63.868,6.334,64,12.629c0.003,4.515,2.848,8.54,7.104,10.048c11.04,3.838,16.878,15.898,13.041,26.938
	c-2.125,6.112-6.929,10.916-13.041,13.041c-4.256,1.508-7.101,5.533-7.104,10.048v25.259c0.003,4.515,2.848,8.54,7.104,10.048
	c11.04,3.838,16.878,15.898,13.041,26.938c-2.125,6.112-6.929,10.916-13.041,13.041c-4.256,1.508-7.101,5.533-7.104,10.048v25.259
	c0.003,4.515,2.848,8.54,7.104,10.048c11.04,3.838,16.878,15.898,13.041,26.938c-2.125,6.112-6.929,10.916-13.041,13.041
	c-4.256,1.508-7.101,5.533-7.104,10.048v25.259c0.003,4.515,2.848,8.54,7.104,10.048c11.04,3.838,16.878,15.898,13.041,26.938
	c-2.125,6.112-6.929,10.916-13.041,13.041c-4.256,1.508-7.101,5.533-7.104,10.048v25.259c0.003,4.515,2.848,8.54,7.104,10.048
	c11.04,3.838,16.878,15.898,13.041,26.938c-2.125,6.112-6.929,10.916-13.041,13.041c-4.256,1.508-7.101,5.533-7.104,10.048v25.259
	c0.003,4.515,2.848,8.54,7.104,10.048c11.04,3.838,16.878,15.898,13.041,26.938c-2.125,6.112-6.929,10.916-13.041,13.041
	c-4.424,2.364-7.163,6.995-7.104,12.011C64,507.224,68.776,512,74.667,512h23.296c4.51,0.001,8.533-2.835,10.048-7.083
	c3.821-11.046,15.872-16.903,26.918-13.082c6.137,2.123,10.959,6.945,13.082,13.082c1.513,4.24,5.525,7.074,10.027,7.083h25.259
	c4.51,0.001,8.533-2.835,10.048-7.083c3.821-11.046,15.872-16.903,26.918-13.082c6.137,2.123,10.959,6.945,13.082,13.082
	c1.515,4.248,5.538,7.083,10.048,7.083h25.259c4.51,0.001,8.533-2.835,10.048-7.083c3.821-11.046,15.872-16.903,26.918-13.082
	c6.137,2.123,10.959,6.945,13.082,13.082c1.515,4.248,5.538,7.083,10.048,7.083h25.259c4.51,0.001,8.533-2.835,10.048-7.083
	c3.821-11.046,15.872-16.903,26.918-13.082c6.137,2.123,10.959,6.945,13.082,13.082c1.515,4.248,5.538,7.083,10.048,7.083h23.232
	c6.229-0.923,10.799-6.334,10.667-12.629c-0.003-4.515-2.848-8.54-7.104-10.048c-11.04-3.838-16.878-15.898-13.041-26.938
	c2.125-6.112,6.929-10.916,13.041-13.041c4.256-1.508,7.101-5.533,7.104-10.048v-25.259c-0.003-4.515-2.848-8.54-7.104-10.048
	c-11.04-3.838-16.878-15.898-13.041-26.938c2.125-6.112,6.929-10.916,13.041-13.041c4.256-1.508,7.101-5.533,7.104-10.048v-25.259
	c-0.003-4.515-2.848-8.54-7.104-10.048c-11.04-3.838-16.878-15.898-13.041-26.938c2.125-6.112,6.929-10.916,13.041-13.041
	c4.256-1.508,7.101-5.533,7.104-10.048v-25.259c-0.003-4.515-2.848-8.54-7.104-10.048c-11.04-3.838-16.878-15.898-13.041-26.938
	c2.125-6.112,6.929-10.916,13.041-13.041c4.256-1.508,7.101-5.533,7.104-10.048v-25.259c-0.003-4.515-2.848-8.54-7.104-10.048
	c-11.04-3.838-16.878-15.898-13.041-26.938c2.125-6.112,6.929-10.916,13.041-13.041c4.256-1.508,7.101-5.533,7.104-10.048V72.704
	C447.997,68.189,445.152,64.164,440.896,62.656z"/>
<path style="fill:#FFC107;" d="M138.667,64h234.667C379.224,64,384,68.776,384,74.667v362.667c0,5.891-4.776,10.667-10.667,10.667
	H138.667c-5.891,0-10.667-4.776-10.667-10.667V74.667C128,68.776,132.776,64,138.667,64z"/>
<g>
</g>
<g>
</g>
<g>
</g>
<g>
</g>
<g>
</g>
<g>
</g>
<g>
</g>
<g>
</g>
<g>
</g>
<g>
</g>
<g>
</g>
<g>
</g>
<g>
</g>
<g>
</g>
<g>
</g>
</svg>
