<?xml version="1.0" encoding="iso-8859-1"?>
<!-- Generator: Adobe Illustrator 19.0.0, SVG Export Plug-In . SVG Version: 6.00 Build 0)  -->
<svg version="1.1" id="Capa_1" xmlns="http://www.w3.org/2000/svg" xmlns:xlink="http://www.w3.org/1999/xlink" x="0px" y="0px"
	 viewBox="0 0 490.667 490.667" style="enable-background:new 0 0 490.667 490.667;" xml:space="preserve">
<path style="fill:#1976D2;" d="M352,474.667c-2.831,0.005-5.548-1.115-7.552-3.115l-64-64c-4.093-4.237-3.975-10.99,0.262-15.083
	c4.134-3.993,10.687-3.993,14.821,0l64,64c4.159,4.172,4.149,10.926-0.023,15.085C357.514,473.542,354.816,474.661,352,474.667z"/>
<path style="fill:#FFA000;" d="M475.094,341.76c-10.021,9.996-23.605,15.599-37.76,15.573h-384
	c-14.155,0.025-27.739-5.577-37.76-15.573l174.08-174.08l29.44,21.333c15.596,11.522,36.884,11.522,52.48,0l29.44-21.333
	L475.094,341.76z"/>
<path style="fill:#FFD54F;" d="M480.427,37.974L301.014,167.68l-29.44,21.333c-15.596,11.522-36.884,11.522-52.48,0l-29.44-21.333
	L10.027,38.187C20.018,24.215,36.157,15.947,53.334,16h384C454.385,16.015,470.401,24.182,480.427,37.974z"/>
<g>
	<path style="fill:#FFC107;" d="M10.027,38.187L189.654,167.68L15.574,341.76C5.578,331.739-0.025,318.155,0,304V69.334
		C-0.047,58.151,3.464,47.242,10.027,38.187z"/>
	<path style="fill:#FFC107;" d="M490.667,69.334V304c0.025,14.155-5.577,27.739-15.573,37.76l-174.08-174.08L480.427,37.974
		C487.088,47.073,490.674,58.058,490.667,69.334z"/>
</g>
<circle style="fill:#2196F3;" cx="234.667" cy="346.667" r="85.333"/>
<g>
</g>
<g>
</g>
<g>
</g>
<g>
</g>
<g>
</g>
<g>
</g>
<g>
</g>
<g>
</g>
<g>
</g>
<g>
</g>
<g>
</g>
<g>
</g>
<g>
</g>
<g>
</g>
<g>
</g>
</svg>
