<?xml version="1.0" encoding="iso-8859-1"?>
<!-- Generator: Adobe Illustrator 19.0.0, SVG Export Plug-In . SVG Version: 6.00 Build 0)  -->
<svg version="1.1" id="Capa_1" xmlns="http://www.w3.org/2000/svg" xmlns:xlink="http://www.w3.org/1999/xlink" x="0px" y="0px"
	 viewBox="0 0 512.008 512.008" style="enable-background:new 0 0 512.008 512.008;" xml:space="preserve">
<path style="fill:#2196F3;" d="M438.686,233.067c-32.344-30.476-74.325-48.686-118.677-51.477V42.731
	c0.011-5.891-4.757-10.675-10.648-10.686c-2.84-0.005-5.565,1.123-7.571,3.134L88.456,248.512c-4.164,4.165-4.164,10.917,0,15.083
	L301.79,476.928c4.16,4.171,10.914,4.179,15.085,0.019c2.006-2.001,3.133-4.717,3.134-7.55v-137.92
	c34.688,3.371,142.4,21.696,171.093,119.573c1.65,5.655,7.571,8.903,13.227,7.253c4.551-1.327,7.68-5.499,7.68-10.24
	C512.008,351.638,487.347,279.296,438.686,233.067z"/>
<path style="fill:#1976D2;" d="M224.008,480.064c-2.831,0.005-5.548-1.115-7.552-3.115L3.123,263.616
	c-4.164-4.165-4.164-10.917,0-15.083L216.456,35.2c4.093-4.237,10.845-4.355,15.083-0.262c4.237,4.093,4.355,10.845,0.262,15.083
	c-0.086,0.089-0.173,0.176-0.262,0.262L25.758,256.064l205.781,205.781c4.171,4.16,4.179,10.914,0.019,15.085
	c-2.006,2.011-4.731,3.139-7.571,3.134H224.008z"/>
<g>
</g>
<g>
</g>
<g>
</g>
<g>
</g>
<g>
</g>
<g>
</g>
<g>
</g>
<g>
</g>
<g>
</g>
<g>
</g>
<g>
</g>
<g>
</g>
<g>
</g>
<g>
</g>
<g>
</g>
</svg>
