<?xml version="1.0" encoding="iso-8859-1"?>
<!-- Generator: Adobe Illustrator 19.0.0, SVG Export Plug-In . SVG Version: 6.00 Build 0)  -->
<svg version="1.1" id="Capa_1" xmlns="http://www.w3.org/2000/svg" xmlns:xlink="http://www.w3.org/1999/xlink" x="0px" y="0px"
	 viewBox="0 0 490.667 490.667" style="enable-background:new 0 0 490.667 490.667;" xml:space="preserve">
<path style="fill:#FFD54F;" d="M480.427,35.357L301.014,165.063l-29.44,21.333c-15.596,11.522-36.884,11.522-52.48,0l-29.44-21.333
	L10.027,35.57c9.991-13.972,26.13-22.241,43.307-22.187h384C454.385,13.398,470.401,21.565,480.427,35.357z"/>
<g>
	<path style="fill:#FFC107;" d="M10.027,35.57l179.627,129.493l-174.08,174.08C5.578,329.122-0.025,315.538,0,301.383V66.717
		C-0.047,55.533,3.464,44.625,10.027,35.57z"/>
	<path style="fill:#FFC107;" d="M490.667,66.717v234.667c0.025,14.155-5.577,27.739-15.573,37.76l-174.08-174.08L480.427,35.357
		C487.088,44.455,490.674,55.44,490.667,66.717z"/>
</g>
<g>
	<path style="fill:#455A64;" d="M255.19,310.791c1.649-3.989,0.731-8.579-2.325-11.627l-32-32
		c-4.237-4.092-10.99-3.975-15.083,0.262c-3.992,4.134-3.992,10.687,0,14.82l13.781,13.781h-16.896
		c-41.237,0-74.667,33.429-74.667,74.667s33.429,74.667,74.667,74.667c5.891,0,10.667-4.776,10.667-10.667
		c0-5.891-4.776-10.667-10.667-10.667c-29.455,0-53.333-23.878-53.333-53.333s23.878-53.333,53.333-53.333h16.917l-13.781,13.781
		c-4.237,4.093-4.355,10.845-0.262,15.083c4.093,4.237,10.845,4.354,15.083,0.262c0.089-0.086,0.176-0.173,0.262-0.262l32-32
		C253.871,313.242,254.653,312.075,255.19,310.791z"/>
	<path style="fill:#455A64;" d="M288,296.05c-5.891,0-10.667,4.776-10.667,10.667s4.776,10.667,10.667,10.667
		c29.455,0,53.333,23.878,53.333,53.333S317.456,424.05,288,424.05h-16.917l13.781-13.781c4.093-4.237,3.975-10.99-0.262-15.083
		c-4.134-3.993-10.687-3.993-14.821,0l-32,32c-4.171,4.16-4.179,10.914-0.019,15.085c0.006,0.006,0.013,0.013,0.019,0.019l32,32
		c4.237,4.093,10.99,3.975,15.083-0.262c3.993-4.134,3.993-10.687,0-14.821l-13.781-13.781H288
		c41.237,0,74.667-33.429,74.667-74.667S329.238,296.093,288,296.093V296.05z"/>
</g>
<path style="fill:#FFA000;" d="M301.014,165.063l-29.44,21.333c-15.596,11.522-36.884,11.522-52.48,0l-29.44-21.333l-174.08,174.08
	c10.021,9.996,23.605,15.599,37.76,15.573h54.72c6.514-38.298,35.421-68.922,73.28-77.632
	c-1.305-17.625,11.925-32.971,29.549-34.276c9.278-0.687,18.396,2.698,24.979,9.273l30.848,30.827
	c5.837-5.274,13.424-8.194,21.291-8.192c46.74,0.136,86.589,33.914,94.379,80h54.955c14.155,0.025,27.739-5.577,37.76-15.573
	L301.014,165.063z"/>
<g>
</g>
<g>
</g>
<g>
</g>
<g>
</g>
<g>
</g>
<g>
</g>
<g>
</g>
<g>
</g>
<g>
</g>
<g>
</g>
<g>
</g>
<g>
</g>
<g>
</g>
<g>
</g>
<g>
</g>
</svg>
