<?xml version="1.0" encoding="iso-8859-1"?>
<!-- Generator: Adobe Illustrator 19.0.0, SVG Export Plug-In . SVG Version: 6.00 Build 0)  -->
<svg version="1.1" id="Capa_1" xmlns="http://www.w3.org/2000/svg" xmlns:xlink="http://www.w3.org/1999/xlink" x="0px" y="0px"
	 viewBox="0 0 512.001 512.001" style="enable-background:new 0 0 512.001 512.001;" xml:space="preserve">
<path style="fill:#1E88E5;" d="M499.628,487.47c-10.128,12.16-25.134,19.194-40.96,19.2H53.334
	c-15.826-0.006-30.832-7.04-40.96-19.2l195.627-162.987l20.267,13.867c16.695,11.52,38.772,11.52,55.467,0l20.267-13.867
	L499.628,487.47z"/>
<path style="fill:#64B5F6;" d="M502.614,188.59L304.001,324.483l-20.267,13.867c-16.695,11.52-38.772,11.52-55.467,0l-20.267-13.867
	L9.388,188.376c9.994-14.411,26.409-23.017,43.947-23.04h405.333C476.285,165.243,492.781,173.971,502.614,188.59z"/>
<g>
	<path style="fill:#2196F3;" d="M208.001,324.483L12.374,487.47c-8.007-9.57-12.388-21.655-12.373-34.133V218.67
		c-0.065-10.823,3.214-21.403,9.387-30.293L208.001,324.483z"/>
	<path style="fill:#2196F3;" d="M512.001,218.67v234.667c0.014,12.478-4.366,24.563-12.373,34.133L304.001,324.483L502.614,188.59
		C508.756,197.416,512.033,207.917,512.001,218.67z"/>
</g>
<path style="fill:#CFD8DC;" d="M458.668,5.336H181.334c-5.891,0-10.667,4.776-10.667,10.667v117.333H53.334
	c-5.891,0-10.667,4.776-10.667,10.667v64c-0.001,3.525,1.74,6.823,4.651,8.811l174.933,119.637c20.353,13.95,47.189,13.95,67.541,0
	l174.933-119.68c2.882-1.989,4.604-5.266,4.608-8.768v-192C469.334,10.112,464.559,5.336,458.668,5.336z"/>
<path style="fill:#B0BEC5;" d="M185.409,6.147c-3.985-1.654-8.574-0.745-11.627,2.304l-128,128
	c-4.171,4.16-4.179,10.914-0.019,15.085c2.006,2.011,4.731,3.139,7.571,3.134h128c5.891,0,10.667-4.776,10.667-10.667v-128
	C192,11.686,189.398,7.796,185.409,6.147z"/>
<g>
</g>
<g>
</g>
<g>
</g>
<g>
</g>
<g>
</g>
<g>
</g>
<g>
</g>
<g>
</g>
<g>
</g>
<g>
</g>
<g>
</g>
<g>
</g>
<g>
</g>
<g>
</g>
<g>
</g>
</svg>
