<?xml version="1.0" encoding="iso-8859-1"?>
<!-- Generator: Adobe Illustrator 19.0.0, SVG Export Plug-In . SVG Version: 6.00 Build 0)  -->
<svg version="1.1" id="Capa_1" xmlns="http://www.w3.org/2000/svg" xmlns:xlink="http://www.w3.org/1999/xlink" x="0px" y="0px"
	 viewBox="0 0 490.667 490.667" style="enable-background:new 0 0 490.667 490.667;" xml:space="preserve">
<path style="fill:#FFD54F;" d="M480.427,48.64L301.014,178.347l-29.44,21.333c-15.596,11.522-36.884,11.522-52.48,0l-29.44-21.333
	L10.027,48.854c9.991-13.972,26.13-22.241,43.307-22.187h384C454.385,26.682,470.401,34.848,480.427,48.64z"/>
<g>
	<path style="fill:#FFC107;" d="M10.027,48.854l179.627,129.493l-174.08,174.08C5.578,342.406-0.025,328.822,0,314.667V80
		C-0.047,68.817,3.464,57.909,10.027,48.854z"/>
	<path style="fill:#FFC107;" d="M490.667,80v234.667c0.025,14.155-5.577,27.739-15.573,37.76l-174.08-174.08L480.427,48.64
		C487.088,57.739,490.674,68.724,490.667,80z"/>
</g>
<g>
	<path style="fill:#455A64;" d="M309.334,464h-128c-5.891,0-10.667-4.776-10.667-10.667c0-5.891,4.776-10.667,10.667-10.667h128
		c5.891,0,10.667,4.776,10.667,10.667C320,459.225,315.225,464,309.334,464z"/>
	<path style="fill:#455A64;" d="M309.334,421.334h-128c-5.891,0-10.667-4.776-10.667-10.667c0-5.891,4.776-10.667,10.667-10.667h128
		c5.891,0,10.667,4.776,10.667,10.667C320,416.558,315.225,421.334,309.334,421.334z"/>
	<path style="fill:#455A64;" d="M309.334,378.667h-128c-5.891,0-10.667-4.776-10.667-10.667s4.776-10.667,10.667-10.667h128
		c5.891,0,10.667,4.776,10.667,10.667S315.225,378.667,309.334,378.667z"/>
	<path style="fill:#455A64;" d="M309.334,336h-128c-5.891,0-10.667-4.776-10.667-10.667c0-5.891,4.776-10.667,10.667-10.667h128
		c5.891,0,10.667,4.776,10.667,10.667C320,331.225,315.225,336,309.334,336z"/>
</g>
<path style="fill:#FFA000;" d="M301.014,178.347l-29.44,21.333c-15.596,11.522-36.884,11.522-52.48,0l-29.44-21.333l-174.08,174.08
	c10.021,9.996,23.605,15.599,37.76,15.573h96c0.025-7.898,2.991-15.504,8.32-21.333c-11.865-12.987-10.955-33.133,2.032-44.998
	c5.912-5.401,13.641-8.377,21.648-8.336h128c17.59-0.091,31.924,14.095,32.016,31.685c0.042,8.007-2.935,15.737-8.336,21.648
	c5.329,5.829,8.295,13.435,8.32,21.333h96c14.155,0.025,27.739-5.577,37.76-15.573L301.014,178.347z"/>
<g>
</g>
<g>
</g>
<g>
</g>
<g>
</g>
<g>
</g>
<g>
</g>
<g>
</g>
<g>
</g>
<g>
</g>
<g>
</g>
<g>
</g>
<g>
</g>
<g>
</g>
<g>
</g>
<g>
</g>
</svg>
