<?xml version="1.0" encoding="iso-8859-1"?>
<!-- Generator: Adobe Illustrator 19.0.0, SVG Export Plug-In . SVG Version: 6.00 Build 0)  -->
<svg version="1.1" id="Capa_1" xmlns="http://www.w3.org/2000/svg" xmlns:xlink="http://www.w3.org/1999/xlink" x="0px" y="0px"
	 viewBox="0 0 490.667 490.667" style="enable-background:new 0 0 490.667 490.667;" xml:space="preserve">
<path style="fill:#FFA000;" d="M475.094,336.971c-10.021,9.996-23.605,15.599-37.76,15.573h-384
	c-14.155,0.025-27.739-5.577-37.76-15.573l174.08-174.08l29.44,21.333c15.596,11.522,36.884,11.522,52.48,0l29.44-21.333
	L475.094,336.971z"/>
<path style="fill:#FFD54F;" d="M480.427,33.184L301.014,162.891l-29.44,21.333c-15.596,11.522-36.884,11.522-52.48,0l-29.44-21.333
	L10.027,33.397c9.991-13.972,26.13-22.241,43.307-22.187h384C454.385,11.225,470.401,19.392,480.427,33.184z"/>
<g>
	<path style="fill:#FFC107;" d="M10.027,33.397l179.627,129.493l-174.08,174.08C5.578,326.949-0.025,313.365,0,299.211V64.544
		C-0.047,53.361,3.464,42.453,10.027,33.397z"/>
	<path style="fill:#FFC107;" d="M490.667,64.544v234.667c0.025,14.155-5.577,27.739-15.573,37.76l-174.08-174.08L480.427,33.184
		C487.088,42.283,490.674,53.268,490.667,64.544z"/>
</g>
<path style="fill:#455A64;" d="M356.032,326.816c-1.888-5.58-7.942-8.573-13.523-6.685c-0.253,0.086-0.503,0.181-0.749,0.285
	c-5.093,2.486-11.237,0.373-13.723-4.72c-2.245-4.598-0.759-10.147,3.483-13.008c4.715-3.532,5.674-10.217,2.142-14.932
	c-0.165-0.22-0.339-0.434-0.52-0.641c-16.813-19.459-39.621-32.773-64.832-37.845c-5.778-1.15-11.394,2.601-12.544,8.378
	c-0.065,0.327-0.115,0.656-0.149,0.987c-0.259,5.685-5.077,10.083-10.762,9.825c-5.322-0.242-9.582-4.502-9.825-9.825
	c-0.3-2.993-1.849-5.72-4.267-7.509c-2.413-1.779-5.464-2.461-8.405-1.877c-25.211,5.072-48.019,18.386-64.832,37.845
	c-3.886,4.427-3.447,11.167,0.98,15.053c0.207,0.182,0.421,0.355,0.641,0.52c4.698,3.169,5.938,9.547,2.768,14.245
	c-2.861,4.242-8.41,5.727-13.008,3.483c-5.423-2.302-11.685,0.228-13.987,5.651c-0.104,0.246-0.2,0.496-0.285,0.749
	c-8.835,24.193-8.835,50.73,0,74.923c1.892,5.579,7.949,8.567,13.528,6.675c0.244-0.083,0.485-0.174,0.723-0.275
	c5.102-2.467,11.238-0.33,13.705,4.772c2.209,4.57,0.746,10.068-3.443,12.935c-4.715,3.532-5.674,10.217-2.142,14.932
	c0.165,0.22,0.339,0.434,0.52,0.641c16.813,19.459,39.621,32.773,64.832,37.845c2.941,0.603,6-0.08,8.405-1.877
	c2.417-1.79,3.967-4.517,4.267-7.509c0.449-5.685,5.421-9.93,11.106-9.481c5.062,0.399,9.082,4.419,9.481,9.481
	c0.56,5.462,5.176,9.607,10.667,9.579c0.717,0.005,1.432-0.066,2.133-0.213c25.211-5.072,48.019-18.386,64.832-37.845
	c3.886-4.427,3.447-11.167-0.98-15.053c-0.207-0.182-0.421-0.355-0.641-0.52c-4.677-3.201-5.874-9.586-2.673-14.263
	c2.867-4.189,8.365-5.653,12.935-3.443c5.427,2.292,11.684-0.25,13.976-5.677c0.1-0.237,0.192-0.479,0.275-0.723
	c8.835-24.193,8.835-50.73,0-74.923L356.032,326.816z"/>
<circle style="fill:#FAFAFA;" cx="245.334" cy="364.277" r="53.333"/>
<g>
</g>
<g>
</g>
<g>
</g>
<g>
</g>
<g>
</g>
<g>
</g>
<g>
</g>
<g>
</g>
<g>
</g>
<g>
</g>
<g>
</g>
<g>
</g>
<g>
</g>
<g>
</g>
<g>
</g>
</svg>
