<?xml version="1.0" encoding="iso-8859-1"?>
<!-- Generator: Adobe Illustrator 19.0.0, SVG Export Plug-In . SVG Version: 6.00 Build 0)  -->
<svg version="1.1" id="Capa_1" xmlns="http://www.w3.org/2000/svg" xmlns:xlink="http://www.w3.org/1999/xlink" x="0px" y="0px"
	 viewBox="0 0 490.667 490.667" style="enable-background:new 0 0 490.667 490.667;" xml:space="preserve">
<path style="fill:#FFA000;" d="M475.094,336.427c-10.021,9.996-23.605,15.599-37.76,15.573h-384
	c-14.155,0.025-27.739-5.577-37.76-15.573l174.08-174.08l29.44,21.333c15.596,11.522,36.884,11.522,52.48,0l29.44-21.333
	L475.094,336.427z"/>
<path style="fill:#FFD54F;" d="M480.427,32.64L301.014,162.347l-29.44,21.333c-15.596,11.522-36.884,11.522-52.48,0l-29.44-21.333
	L10.027,32.854c9.991-13.972,26.13-22.241,43.307-22.187h384C454.385,10.682,470.401,18.848,480.427,32.64z"/>
<g>
	<path style="fill:#FFC107;" d="M10.027,32.854l179.627,129.493l-174.08,174.08C5.578,326.406-0.025,312.822,0,298.667V64
		C-0.047,52.817,3.464,41.909,10.027,32.854z"/>
	<path style="fill:#FFC107;" d="M490.667,64v234.667c0.025,14.155-5.577,27.739-15.573,37.76l-174.08-174.08L480.427,32.64
		C487.088,41.739,490.674,52.724,490.667,64z"/>
</g>
<circle style="fill:#2196F3;" cx="245.334" cy="362.667" r="117.333"/>
<g>
	<path style="fill:#FAFAFA;" d="M245.334,437.334c-1.401,0.053-2.793-0.24-4.053-0.853c-1.329-0.46-2.508-1.271-3.413-2.347
		c-2.067-1.928-3.221-4.641-3.179-7.467c-0.028-1.398,0.264-2.785,0.853-4.053c0.444-1.331,1.249-2.513,2.325-3.413
		c3.028-3.011,7.561-3.926,11.52-2.325c1.334,0.439,2.517,1.245,3.413,2.325c1.076,0.905,1.887,2.085,2.347,3.413
		c0.589,1.269,0.881,2.655,0.853,4.053C255.844,432.492,251.159,437.177,245.334,437.334L245.334,437.334z"/>
	<path style="fill:#FAFAFA;" d="M245.334,394.667L245.334,394.667c-5.891,0-10.667-4.776-10.667-10.667v-21.333
		c0.019-5.053,3.582-9.4,8.533-10.411l2.325-0.448c21.696-3.989,31.787-10.667,31.787-21.099c0-11.563-14.677-21.333-32-21.333
		c-16.704,0-31.061,9.067-32,20.181c-0.617,5.804-5.695,10.092-11.52,9.728c-5.866-0.497-10.22-5.653-9.728-11.52
		c4.843-25.01,27.915-42.233,53.269-39.765c26.383-2.516,49.996,16.375,53.333,42.667c0,20.373-14.336,34.133-42.667,40.704V384
		C256,389.891,251.225,394.667,245.334,394.667z"/>
</g>
<g>
</g>
<g>
</g>
<g>
</g>
<g>
</g>
<g>
</g>
<g>
</g>
<g>
</g>
<g>
</g>
<g>
</g>
<g>
</g>
<g>
</g>
<g>
</g>
<g>
</g>
<g>
</g>
<g>
</g>
</svg>
