<?xml version="1.0" encoding="iso-8859-1"?>
<!-- Generator: Adobe Illustrator 19.0.0, SVG Export Plug-In . SVG Version: 6.00 Build 0)  -->
<svg version="1.1" id="Capa_1" xmlns="http://www.w3.org/2000/svg" xmlns:xlink="http://www.w3.org/1999/xlink" x="0px" y="0px"
	 viewBox="0 0 490.667 490.667" style="enable-background:new 0 0 490.667 490.667;" xml:space="preserve">
<path style="fill:#FFA000;" d="M475.094,336.427c-10.021,9.996-23.605,15.599-37.76,15.573h-384
	c-14.155,0.025-27.739-5.577-37.76-15.573l174.08-174.08l29.44,21.333c15.596,11.522,36.884,11.522,52.48,0l29.44-21.333
	L475.094,336.427z"/>
<path style="fill:#FFD54F;" d="M480.427,32.64L301.014,162.347l-29.44,21.333c-15.596,11.522-36.884,11.522-52.48,0l-29.44-21.333
	L10.027,32.854c9.991-13.972,26.13-22.241,43.307-22.187h384C454.385,10.682,470.401,18.848,480.427,32.64z"/>
<g>
	<path style="fill:#FFC107;" d="M10.027,32.854l179.627,129.493l-174.08,174.08C5.578,326.406-0.025,312.822,0,298.667V64
		C-0.047,52.817,3.464,41.909,10.027,32.854z"/>
	<path style="fill:#FFC107;" d="M490.667,64v234.667c0.025,14.155-5.577,27.739-15.573,37.76l-174.08-174.08L480.427,32.64
		C487.088,41.739,490.674,52.724,490.667,64z"/>
</g>
<circle style="fill:#2196F3;" cx="245.334" cy="362.667" r="117.333"/>
<g>
	<path style="fill:#FAFAFA;" d="M288,416c-2.831,0.005-5.548-1.115-7.552-3.115l-85.333-85.333
		c-4.092-4.237-3.975-10.99,0.262-15.083c4.134-3.992,10.687-3.992,14.82,0l85.333,85.333c4.159,4.172,4.149,10.926-0.024,15.085
		C293.514,414.875,290.816,415.994,288,416z"/>
	<path style="fill:#FAFAFA;" d="M202.667,416c-5.891,0.011-10.675-4.757-10.686-10.648c-0.005-2.84,1.123-5.565,3.134-7.571
		l85.333-85.333c4.237-4.092,10.99-3.975,15.083,0.262c3.992,4.134,3.992,10.687,0,14.82l-85.333,85.333
		C208.202,414.866,205.494,415.994,202.667,416z"/>
</g>
<g>
</g>
<g>
</g>
<g>
</g>
<g>
</g>
<g>
</g>
<g>
</g>
<g>
</g>
<g>
</g>
<g>
</g>
<g>
</g>
<g>
</g>
<g>
</g>
<g>
</g>
<g>
</g>
<g>
</g>
</svg>
