<?xml version="1.0" encoding="iso-8859-1"?>
<!-- Generator: Adobe Illustrator 19.0.0, SVG Export Plug-In . SVG Version: 6.00 Build 0)  -->
<svg version="1.1" id="Capa_1" xmlns="http://www.w3.org/2000/svg" xmlns:xlink="http://www.w3.org/1999/xlink" x="0px" y="0px"
	 viewBox="0 0 512 512" style="enable-background:new 0 0 512 512;" xml:space="preserve">
<g>
	<path style="fill:#455A64;" d="M128,448h42.667c5.891,0,10.667,4.776,10.667,10.667v42.667c0,5.891-4.776,10.667-10.667,10.667H128
		c-5.891,0-10.667-4.776-10.667-10.667v-42.667C117.333,452.776,122.109,448,128,448z"/>
	<path style="fill:#455A64;" d="M341.333,448H384c5.891,0,10.667,4.776,10.667,10.667v42.667c0,5.891-4.776,10.667-10.667,10.667
		h-42.667c-5.891,0-10.667-4.776-10.667-10.667v-42.667C330.667,452.776,335.442,448,341.333,448z"/>
</g>
<g>
	<path style="fill:#F44336;" d="M256,0c-76.544,0.094-138.573,62.122-138.667,138.667c0,5.891,4.776,10.667,10.667,10.667h256
		c5.891,0,10.667-4.776,10.667-10.667C394.573,62.122,332.544,0.094,256,0z"/>
	<path style="fill:#F44336;" d="M128,170.667h256c5.891,0,10.667,4.776,10.667,10.667v277.333c0,5.891-4.776,10.667-10.667,10.667
		H128c-5.891,0-10.667-4.776-10.667-10.667V181.333C117.333,175.442,122.109,170.667,128,170.667z"/>
</g>
<path style="fill:#FAFAFA;" d="M298.667,106.667h-85.333c-5.891,0-10.667-4.776-10.667-10.667c0-5.891,4.776-10.667,10.667-10.667
	h85.333c5.891,0,10.667,4.776,10.667,10.667C309.333,101.891,304.558,106.667,298.667,106.667z"/>
<path style="fill:#CFD8DC;" d="M343.744,266.667c-3.623-4.054-9.716-4.734-14.144-1.579l-73.6,52.48l-73.6-52.544
	c-4.428-3.156-10.521-2.476-14.144,1.579c-5.273,5.86-8.211,13.451-8.256,21.333v64c-0.035,17.673,14.263,32.029,31.936,32.064
	c0.021,0,0.043,0,0.064,0h128c17.673,0,32-14.327,32-32v-64C351.955,280.118,349.017,272.526,343.744,266.667z"/>
<path style="fill:#ECEFF1;" d="M343.701,266.667C337.666,259.918,329.054,256.043,320,256H192
	c-9.054,0.043-17.666,3.918-23.701,10.667c-3.946,4.374-3.598,11.119,0.776,15.065c0.302,0.273,0.62,0.528,0.952,0.764l79.787,56.96
	c3.703,2.637,8.67,2.637,12.373,0l79.787-56.96c4.797-3.42,5.912-10.081,2.492-14.878
	C344.229,267.287,343.974,266.969,343.701,266.667z"/>
<path style="fill:#D32F2F;" d="M405.333,128H106.667c-17.673,0-32,14.327-32,32s14.327,32,32,32h298.667c17.673,0,32-14.327,32-32
	S423.006,128,405.333,128z"/>
<g>
</g>
<g>
</g>
<g>
</g>
<g>
</g>
<g>
</g>
<g>
</g>
<g>
</g>
<g>
</g>
<g>
</g>
<g>
</g>
<g>
</g>
<g>
</g>
<g>
</g>
<g>
</g>
<g>
</g>
</svg>
