<?xml version="1.0" encoding="iso-8859-1"?>
<!-- Generator: Adobe Illustrator 19.0.0, SVG Export Plug-In . SVG Version: 6.00 Build 0)  -->
<svg version="1.1" id="Capa_1" xmlns="http://www.w3.org/2000/svg" xmlns:xlink="http://www.w3.org/1999/xlink" x="0px" y="0px"
	 viewBox="0 0 512.014 512.014" style="enable-background:new 0 0 512.014 512.014;" xml:space="preserve">
<path style="fill:#455A64;" d="M309.34,352.014c-5.891,0-10.667,4.776-10.667,10.667v5.333l-22.549,11.285
	c-2.729-5.221-9.174-7.241-14.394-4.512c-3.447,1.802-5.64,5.337-5.723,9.226v117.333c0,5.891,4.776,10.667,10.667,10.667h42.667
	c5.891,0,10.667-4.776,10.667-10.667V362.681C320.007,356.79,315.231,352.014,309.34,352.014z"/>
<path style="fill:#607D8B;" d="M272.903,364.686c-2.772-2.02-6.355-2.561-9.6-1.451l-64,21.333
	c-4.354,1.45-7.293,5.523-7.296,10.112v106.667c0,5.891,4.776,10.667,10.667,10.667h74.667V373.347
	C277.341,369.914,275.69,366.691,272.903,364.686z"/>
<path style="fill:#F44336;" d="M394.674,42.681c-1.282,0-2.554,0.231-3.755,0.683l-170.667,64L102.919,150.03
	c-5.538,2.008-8.4,8.126-6.392,13.664c0.064,0.176,0.132,0.35,0.205,0.523L214.066,441.55c2.287,5.429,8.542,7.976,13.971,5.689
	c0.108-0.046,0.216-0.093,0.322-0.142l277.333-128c3.845-1.718,6.319-5.538,6.315-9.749V160.014
	C511.936,95.242,459.446,42.751,394.674,42.681z"/>
<path style="fill:#D32F2F;" d="M117.34,149.347C52.568,149.418,0.078,201.908,0.007,266.681v170.667
	c0,5.891,4.776,10.667,10.667,10.667h213.333c5.891,0,10.667-4.776,10.667-10.667V266.681
	C234.603,201.908,182.113,149.418,117.34,149.347z"/>
<path style="fill:#FFC107;" d="M358.578,2.275c-2.578-2.046-5.966-2.765-9.152-1.941l-85.333,21.333
	c-4.75,1.185-8.084,5.451-8.085,10.347v234.667c0,5.891,4.776,10.667,10.667,10.667c5.891,0,10.667-4.776,10.667-10.667V104.355
	l77.248-19.328c4.75-1.185,8.084-5.451,8.085-10.347v-64C362.675,7.398,361.164,4.298,358.578,2.275z"/>
<g>
	<path style="fill:#ECEFF1;" d="M186.951,236.281c-3.142-1.941-7.064-2.118-10.368-0.469l-42.667,21.333
		c-3.617,1.803-5.905,5.495-5.909,9.536v128c0,5.891,4.776,10.667,10.667,10.666c1.659,0,3.295-0.387,4.778-1.13l42.667-21.333
		c3.609-1.808,5.888-5.499,5.888-9.536v-128C192.005,241.654,190.093,238.224,186.951,236.281z"/>
	<path style="fill:#ECEFF1;" d="M101.618,236.281c-3.142-1.941-7.064-2.118-10.368-0.469l-42.667,21.333
		c-3.617,1.802-5.905,5.495-5.909,9.536v128c0,5.891,4.776,10.667,10.667,10.666c1.659,0,3.295-0.387,4.778-1.13l42.667-21.333
		c3.609-1.808,5.888-5.499,5.888-9.536v-128C106.672,241.654,104.759,238.224,101.618,236.281z"/>
</g>
<g>
</g>
<g>
</g>
<g>
</g>
<g>
</g>
<g>
</g>
<g>
</g>
<g>
</g>
<g>
</g>
<g>
</g>
<g>
</g>
<g>
</g>
<g>
</g>
<g>
</g>
<g>
</g>
<g>
</g>
</svg>
