<?xml version="1.0" encoding="iso-8859-1"?>
<!-- Generator: Adobe Illustrator 19.0.0, SVG Export Plug-In . SVG Version: 6.00 Build 0)  -->
<svg version="1.1" id="Capa_1" xmlns="http://www.w3.org/2000/svg" xmlns:xlink="http://www.w3.org/1999/xlink" x="0px" y="0px"
	 viewBox="0 0 512 512" style="enable-background:new 0 0 512 512;" xml:space="preserve">
<path style="fill:#455A64;" d="M309.333,352c-5.891,0-10.667,4.776-10.667,10.667V368l-22.549,11.285
	c-2.729-5.221-9.174-7.241-14.394-4.512c-3.447,1.802-5.64,5.337-5.723,9.226v117.333c0,5.891,4.776,10.667,10.667,10.667h42.667
	c5.891,0,10.667-4.776,10.667-10.667V362.667C320,356.776,315.224,352,309.333,352z"/>
<path style="fill:#607D8B;" d="M272.896,364.672c-2.772-2.02-6.355-2.561-9.6-1.451l-64,21.333
	c-4.354,1.45-7.293,5.523-7.296,10.112v106.667c0,5.891,4.776,10.667,10.667,10.667h74.667V373.333
	C277.334,369.9,275.683,366.677,272.896,364.672z"/>
<path style="fill:#F44336;" d="M394.667,0H384c-1.312-0.004-2.614,0.235-3.84,0.704L102.827,107.371
	c-5.499,2.113-8.245,8.283-6.132,13.782c0.044,0.114,0.09,0.228,0.138,0.34l117.333,277.333c1.672,3.949,5.547,6.512,9.835,6.507
	c1.546-0.004,3.074-0.339,4.48-0.981l277.333-128c3.774-1.747,6.189-5.527,6.187-9.685V117.333
	C511.918,52.566,459.434,0.082,394.667,0z"/>
<path style="fill:#D32F2F;" d="M117.333,106.667C52.566,106.749,0.082,159.233,0,224v170.667c0,5.891,4.776,10.667,10.667,10.667
	H224c5.891,0,10.667-4.776,10.667-10.667V224C234.584,159.233,182.101,106.749,117.333,106.667z"/>
<path style="fill:#FFC107;" d="M464.085,108.139c-3.277-1.945-7.344-1.994-10.667-0.128l-192,106.667
	c-5.149,2.863-7.002,9.358-4.139,14.507c2.863,5.149,9.358,7.002,14.507,4.139l133.547-74.155V224
	c0,5.891,4.776,10.667,10.667,10.666c1.659,0,3.295-0.387,4.778-1.13l42.667-21.333c3.609-1.808,5.888-5.499,5.888-9.536v-85.333
	C469.336,113.555,467.34,110.058,464.085,108.139z"/>
<g>
</g>
<g>
</g>
<g>
</g>
<g>
</g>
<g>
</g>
<g>
</g>
<g>
</g>
<g>
</g>
<g>
</g>
<g>
</g>
<g>
</g>
<g>
</g>
<g>
</g>
<g>
</g>
<g>
</g>
</svg>
