<?xml version="1.0" encoding="iso-8859-1"?>
<!-- Generator: Adobe Illustrator 19.0.0, SVG Export Plug-In . SVG Version: 6.00 Build 0)  -->
<svg version="1.1" id="Capa_1" xmlns="http://www.w3.org/2000/svg" xmlns:xlink="http://www.w3.org/1999/xlink" x="0px" y="0px"
	 viewBox="0 0 490.667 490.667" style="enable-background:new 0 0 490.667 490.667;" xml:space="preserve">
<path style="fill:#FFD54F;" d="M480.427,32.64L301.014,162.347l-29.44,21.333c-15.596,11.522-36.884,11.522-52.48,0l-29.44-21.333
	L10.027,32.854c9.991-13.972,26.13-22.241,43.307-22.187h384C454.385,10.682,470.401,18.848,480.427,32.64z"/>
<g>
	<path style="fill:#FFC107;" d="M10.027,32.854l179.627,129.493l-174.08,174.08C5.578,326.406-0.025,312.822,0,298.667V64
		C-0.047,52.817,3.464,41.909,10.027,32.854z"/>
	<path style="fill:#FFC107;" d="M490.667,64v234.667c0.025,14.155-5.577,27.739-15.573,37.76l-174.08-174.08L480.427,32.64
		C487.088,41.739,490.674,52.724,490.667,64z"/>
</g>
<path style="fill:#607D8B;" d="M309.334,352c-5.891,0-10.667-4.776-10.667-10.667V320c0-29.455-23.878-53.333-53.333-53.333
	S192,290.545,192,320v21.333c0,5.891-4.776,10.667-10.667,10.667s-10.667-4.776-10.667-10.667V320
	c0-41.237,33.429-74.667,74.667-74.667S320,278.763,320,320v21.333C320,347.225,315.225,352,309.334,352z"/>
<path style="fill:#455A64;" d="M160,330.667h170.667c5.891,0,10.667,4.776,10.667,10.667v128c0,5.891-4.776,10.667-10.667,10.667
	H160c-5.891,0-10.667-4.776-10.667-10.667v-128C149.334,335.443,154.109,330.667,160,330.667z"/>
<path style="fill:#FFA000;" d="M301.014,162.347l-29.44,21.333c-15.596,11.522-36.884,11.522-52.48,0l-29.44-21.333l-174.08,174.08
	c10.021,9.996,23.605,15.599,37.76,15.573H128v-10.667c0.071-13.857,9.053-26.093,22.251-30.315
	c4.658-52.519,51.009-91.317,103.528-86.659c46.062,4.086,82.573,40.597,86.659,86.659c13.19,4.229,22.161,16.464,22.229,30.315V352
	h74.667c14.155,0.025,27.739-5.577,37.76-15.573L301.014,162.347z"/>
<path style="fill:#ECEFF1;" d="M245.334,437.334c-5.891,0-10.667-4.776-10.667-10.667v-32c0-5.891,4.776-10.667,10.667-10.667
	S256,388.776,256,394.667v32C256,432.558,251.225,437.334,245.334,437.334z"/>
<path style="fill:#FAFAFA;" d="M245.334,416C233.552,416,224,406.449,224,394.667c0-11.782,9.551-21.333,21.333-21.333
	s21.333,9.551,21.333,21.333C266.667,406.449,257.116,416,245.334,416z"/>
<g>
</g>
<g>
</g>
<g>
</g>
<g>
</g>
<g>
</g>
<g>
</g>
<g>
</g>
<g>
</g>
<g>
</g>
<g>
</g>
<g>
</g>
<g>
</g>
<g>
</g>
<g>
</g>
<g>
</g>
</svg>
