<?xml version="1.0" encoding="iso-8859-1"?>
<!-- Generator: Adobe Illustrator 19.0.0, SVG Export Plug-In . SVG Version: 6.00 Build 0)  -->
<svg version="1.1" id="Capa_1" xmlns="http://www.w3.org/2000/svg" xmlns:xlink="http://www.w3.org/1999/xlink" x="0px" y="0px"
	 viewBox="0 0 490.669 490.669" style="enable-background:new 0 0 490.669 490.669;" xml:space="preserve">
<path style="fill:#FFC107;" d="M489.901,275.743c-0.762-5.236-5.247-9.122-10.539-9.131h-63.36
	c-29.455,0-53.333,23.878-53.333,53.333c-0.162,17.606-14.394,31.838-32,32H160.002c-17.673,0-32-14.327-32-32
	c0.108-14.106-5.521-27.651-15.595-37.525c-9.903-10.187-23.532-15.896-37.739-15.808H11.522c-5.124,0.003-9.522,3.648-10.475,8.683
	c-0.731,4.033-1.081,8.126-1.045,12.224v139.093c0,29.455,23.878,53.333,53.333,53.333h384c29.455,0,53.333-23.878,53.333-53.333
	V286.026C490.673,282.584,490.416,279.147,489.901,275.743z"/>
<path style="fill:#FFA000;" d="M469.336,250.399l-77.013-115.2c-11.847-17.883-31.882-28.622-53.333-28.587h-61.653v170.667
	c0,17.673-14.327,32-32,32s-32-14.327-32-32V106.613h-50.133c-28.682,0.062-55.43,14.477-71.253,38.4L23.042,249.759
	c-6.027,8.096-9.982,17.544-11.52,27.52h63.147c23.492,0.174,42.492,19.175,42.667,42.667c0.07,23.535,19.132,42.596,42.667,42.667
	h170.667c23.492-0.174,42.492-19.175,42.667-42.667c0.07-23.535,19.132-42.596,42.667-42.667h63.36
	C478.087,267.679,474.659,258.49,469.336,250.399z"/>
<path style="fill:#FFC107;" d="M478.211,244.469l-76.992-115.2c-13.851-20.831-37.214-33.341-62.229-33.323h-61.653v21.333h61.653
	c17.881-0.005,34.574,8.95,44.459,23.851l76.971,115.2c2.141,3.246,3.922,6.715,5.312,10.347h-49.728
	c-29.455,0-53.333,23.878-53.333,53.333c-0.197,17.581-14.419,31.775-32,31.936H160.002c-17.673,0-32-14.327-32-32
	c0.108-14.106-5.521-27.651-15.595-37.525c-9.903-10.187-23.532-15.896-37.739-15.808H25.602c1.71-3.893,3.857-7.579,6.4-10.987
	l68.885-104.747c13.804-20.961,37.216-33.585,62.315-33.6h50.133V95.946h-50.133c-32.288,0.002-62.412,16.234-80.171,43.2
	L14.466,243.423c-7.058,9.507-11.686,20.595-13.483,32.299c-0.86,5.828,3.167,11.25,8.995,12.11
	c0.511,0.075,1.027,0.114,1.544,0.114h63.147c17.606,0.162,31.838,14.394,32,32c0,29.455,23.878,53.333,53.333,53.333h170.667
	c29.387-0.163,53.17-23.946,53.333-53.333c0-17.673,14.327-32,32-32h63.36c5.891,0.05,10.707-4.685,10.757-10.576
	c0.004-0.494-0.026-0.988-0.09-1.478C488.504,264.662,484.464,253.921,478.211,244.469z"/>
<path style="fill:#455A64;" d="M295.554,56.394l-42.667-42.667c-1.351-1.288-3.024-2.187-4.843-2.603
	c-0.428-0.114-0.862-0.2-1.301-0.256c-1.836-0.309-3.72-0.125-5.461,0.533l0,0h-0.107c-1.24,0.495-2.376,1.219-3.349,2.133
	L195.16,56.202c-4.237,4.093-4.355,10.845-0.262,15.083c4.093,4.237,10.845,4.355,15.083,0.262c0.089-0.086,0.176-0.173,0.262-0.262
	l24.427-24.256v230.251c0,5.891,4.776,10.667,10.667,10.667c5.891,0,10.667-4.776,10.667-10.667V47.029l24.448,24.448
	c4.093,4.237,10.845,4.355,15.083,0.262s4.355-10.845,0.262-15.083c-0.086-0.089-0.173-0.176-0.262-0.262L295.554,56.394z"/>
<g>
</g>
<g>
</g>
<g>
</g>
<g>
</g>
<g>
</g>
<g>
</g>
<g>
</g>
<g>
</g>
<g>
</g>
<g>
</g>
<g>
</g>
<g>
</g>
<g>
</g>
<g>
</g>
<g>
</g>
</svg>
