<?xml version="1.0" encoding="iso-8859-1"?>
<!-- Generator: Adobe Illustrator 19.0.0, SVG Export Plug-In . SVG Version: 6.00 Build 0)  -->
<svg version="1.1" id="Capa_1" xmlns="http://www.w3.org/2000/svg" xmlns:xlink="http://www.w3.org/1999/xlink" x="0px" y="0px"
	 viewBox="0 0 512.005 512.005" style="enable-background:new 0 0 512.005 512.005;" xml:space="preserve">
<path style="fill:#FFC107;" d="M511.257,307.802c-0.769-5.285-5.327-9.186-10.667-9.131h-63.253
	c-29.455,0-53.333,23.878-53.333,53.333c-0.173,17.601-14.399,31.827-32,32h-192c-17.673,0-32-14.327-32-32
	c0.113-14.107-5.517-27.653-15.595-37.525c-9.904-10.185-23.532-15.893-37.739-15.808H11.524c-5.124,0.003-9.522,3.648-10.475,8.683
	c-0.731,4.033-1.081,8.126-1.045,12.224v139.093c0,29.455,23.878,53.333,53.333,53.333H458.67c29.455,0,53.333-23.878,53.333-53.333
	V318.085C512.004,314.644,511.754,311.207,511.257,307.802z"/>
<path style="fill:#FFA000;" d="M500.697,309.338h-63.36c-23.535,0.07-42.596,19.132-42.667,42.667
	c-0.174,23.492-19.175,42.492-42.667,42.667h-192c-23.535-0.07-42.596-19.132-42.667-42.667
	c-0.174-23.492-19.175-42.492-42.667-42.667H11.524c1.538-9.976,5.493-19.424,11.52-27.52L91.95,177.071
	c15.824-23.923,42.571-38.338,71.253-38.4h197.12c21.451-0.035,41.486,10.704,53.333,28.587l77.013,115.2
	C495.994,290.549,499.421,299.737,500.697,309.338z"/>
<path style="fill:#FFC107;" d="M352.004,405.338h-192c-29.455,0-53.333-23.878-53.333-53.333c0.064-8.44-3.31-16.542-9.344-22.443
	c-5.925-6.154-14.114-9.609-22.656-9.557H11.524c-5.891-0.006-10.662-4.786-10.656-10.677c0.001-0.525,0.04-1.049,0.117-1.568
	c1.8-11.696,6.429-22.776,13.483-32.277l68.565-104.277c17.758-26.966,47.883-43.198,80.171-43.2h197.12
	c25.012-0.006,48.366,12.512,62.208,33.344l77.013,115.2c6.212,9.458,10.221,20.189,11.733,31.403
	c0.766,5.841-3.348,11.197-9.189,11.963c-0.49,0.064-0.984,0.094-1.478,0.09h-63.275c-17.673,0-32,14.327-32,32l0,0
	C405.174,381.392,381.391,405.175,352.004,405.338z M25.604,298.671H74.67c14.207-0.085,27.834,5.623,37.739,15.808
	c10.078,9.872,15.708,23.418,15.595,37.525c0,17.673,14.327,32,32,32h192c17.601-0.173,31.827-14.399,32-32
	c0-29.455,23.878-53.333,53.333-53.333h49.728c-1.386-3.633-3.168-7.103-5.312-10.347l-76.971-115.2
	c-9.899-14.876-26.59-23.806-44.459-23.787h-197.12c-25.118,0.005-48.55,12.639-62.357,33.621L32.004,287.685
	C29.46,291.092,27.313,294.778,25.604,298.671z"/>
<path style="fill:#CFD8DC;" d="M458.67,0.005H181.337c-5.891,0-10.667,4.776-10.667,10.667v117.333H53.337
	c-5.891,0-10.667,4.776-10.667,10.667v160h32c8.542-0.049,16.73,3.406,22.656,9.557c6.063,5.925,9.439,14.072,9.344,22.549
	c2.455,30.362,28.016,53.629,58.475,53.227h186.859c28.838-0.157,52.394-23.081,53.333-51.904
	c-0.334-18.044,13.958-32.975,32-33.429h32v-288C469.337,4.78,464.561,0.005,458.67,0.005z"/>
<path style="fill:#B0BEC5;" d="M185.412,0.815c-3.985-1.654-8.574-0.745-11.627,2.304l-128,128
	c-4.171,4.16-4.179,10.914-0.019,15.085c2.006,2.011,4.731,3.139,7.571,3.134h128c5.891,0,10.667-4.776,10.667-10.667v-128
	C192.003,6.355,189.401,2.464,185.412,0.815z"/>
<g>
</g>
<g>
</g>
<g>
</g>
<g>
</g>
<g>
</g>
<g>
</g>
<g>
</g>
<g>
</g>
<g>
</g>
<g>
</g>
<g>
</g>
<g>
</g>
<g>
</g>
<g>
</g>
<g>
</g>
</svg>
