<?xml version="1.0" encoding="iso-8859-1"?>
<!-- Generator: Adobe Illustrator 19.0.0, SVG Export Plug-In . SVG Version: 6.00 Build 0)  -->
<svg version="1.1" id="Capa_1" xmlns="http://www.w3.org/2000/svg" xmlns:xlink="http://www.w3.org/1999/xlink" x="0px" y="0px"
	 viewBox="0 0 490.667 490.667" style="enable-background:new 0 0 490.667 490.667;" xml:space="preserve">
<path style="fill:#FFA000;" d="M475.094,336.427c-10.021,9.996-23.605,15.599-37.76,15.573h-384
	c-14.155,0.025-27.739-5.577-37.76-15.573l174.08-174.08l29.44,21.333c15.596,11.522,36.884,11.522,52.48,0l29.44-21.333
	L475.094,336.427z"/>
<path style="fill:#FFD54F;" d="M480.427,32.64L301.014,162.347l-29.44,21.333c-15.596,11.522-36.884,11.522-52.48,0l-29.44-21.333
	L10.027,32.854c9.991-13.972,26.13-22.241,43.307-22.187h384C454.385,10.682,470.401,18.848,480.427,32.64z"/>
<g>
	<path style="fill:#FFC107;" d="M10.027,32.854l179.627,129.493l-174.08,174.08C5.578,326.406-0.025,312.822,0,298.667V64
		C-0.047,52.817,3.464,41.909,10.027,32.854z"/>
	<path style="fill:#FFC107;" d="M490.667,64v234.667c0.025,14.155-5.577,27.739-15.573,37.76l-174.08-174.08L480.427,32.64
		C487.088,41.739,490.674,52.724,490.667,64z"/>
</g>
<circle style="fill:#2196F3;" cx="245.334" cy="362.667" r="117.333"/>
<g>
	<path style="fill:#FAFAFA;" d="M224,416c-2.831,0.005-5.548-1.115-7.552-3.115l-42.667-42.667c-4.164-4.165-4.164-10.917,0-15.083
		l42.667-42.667c4.237-4.092,10.99-3.975,15.083,0.262c3.992,4.134,3.992,10.687,0,14.82l-35.115,35.115l35.115,35.115
		c4.171,4.16,4.179,10.914,0.019,15.085C229.55,414.872,226.833,416,224,416z"/>
	<path style="fill:#FAFAFA;" d="M309.334,416c-5.891,0-10.667-4.776-10.667-10.667c0-17.673-14.327-32-32-32h-85.333
		c-5.891,0-10.667-4.776-10.667-10.667c0-5.891,4.776-10.667,10.667-10.667h85.333C296.122,352,320,375.879,320,405.334
		C320,411.225,315.225,416,309.334,416z"/>
</g>
<g>
</g>
<g>
</g>
<g>
</g>
<g>
</g>
<g>
</g>
<g>
</g>
<g>
</g>
<g>
</g>
<g>
</g>
<g>
</g>
<g>
</g>
<g>
</g>
<g>
</g>
<g>
</g>
<g>
</g>
</svg>
