<?xml version="1.0" encoding="iso-8859-1"?>
<!-- Generator: Adobe Illustrator 19.0.0, SVG Export Plug-In . SVG Version: 6.00 Build 0)  -->
<svg version="1.1" id="Capa_1" xmlns="http://www.w3.org/2000/svg" xmlns:xlink="http://www.w3.org/1999/xlink" x="0px" y="0px"
	 viewBox="0 0 490.667 490.667" style="enable-background:new 0 0 490.667 490.667;" xml:space="preserve">
<path style="fill:#FFA000;" d="M475.094,336.202c-10.021,9.996-23.605,15.599-37.76,15.573h-384
	c-14.155,0.025-27.739-5.577-37.76-15.573l174.08-174.08l29.44,21.333c15.596,11.522,36.884,11.522,52.48,0l29.44-21.333
	L475.094,336.202z"/>
<path style="fill:#FFD54F;" d="M480.427,32.416L301.014,162.122l-29.44,21.333c-15.596,11.522-36.884,11.522-52.48,0l-29.44-21.333
	L10.027,32.629c9.991-13.972,26.13-22.241,43.307-22.187h384C454.385,10.457,470.401,18.624,480.427,32.416z"/>
<g>
	<path style="fill:#FFC107;" d="M10.027,32.629l179.627,129.493l-174.08,174.08C5.578,326.181-0.025,312.597,0,298.442V63.776
		C-0.047,52.592,3.464,41.684,10.027,32.629z"/>
	<path style="fill:#FFC107;" d="M490.667,63.776v234.667c0.025,14.155-5.577,27.739-15.573,37.76l-174.08-174.08L480.427,32.416
		C487.088,41.515,490.674,52.5,490.667,63.776z"/>
</g>
<path style="fill:#F44336;" d="M379.307,320.693c-1.457-4.408-5.598-7.366-10.24-7.317h-86.763l-26.837-82.603
	c-2.48-5.602-9.032-8.134-14.634-5.654c-2.522,1.116-4.538,3.132-5.654,5.654l-26.816,82.603H121.6
	c-5.891,0.07-10.609,4.902-10.539,10.793c0.039,3.313,1.616,6.42,4.267,8.407l70.272,51.2l-26.944,82.475
	c-1.827,5.601,1.233,11.622,6.833,13.448c3.257,1.062,6.826,0.496,9.593-1.523l70.251-51.051l70.251,51.051
	c4.759,3.472,11.432,2.427,14.904-2.332c2.019-2.768,2.585-6.336,1.523-9.593l-26.944-82.475l70.4-51.2
	C379.174,329.856,380.722,325.068,379.307,320.693z"/>
<g>
</g>
<g>
</g>
<g>
</g>
<g>
</g>
<g>
</g>
<g>
</g>
<g>
</g>
<g>
</g>
<g>
</g>
<g>
</g>
<g>
</g>
<g>
</g>
<g>
</g>
<g>
</g>
<g>
</g>
</svg>
