<?xml version="1.0" encoding="iso-8859-1"?>
<!-- Generator: Adobe Illustrator 19.0.0, SVG Export Plug-In . SVG Version: 6.00 Build 0)  -->
<svg version="1.1" id="Capa_1" xmlns="http://www.w3.org/2000/svg" xmlns:xlink="http://www.w3.org/1999/xlink" x="0px" y="0px"
	 viewBox="0 0 490.667 490.667" style="enable-background:new 0 0 490.667 490.667;" xml:space="preserve">
<path style="fill:#FFA000;" d="M475.094,336.427c-10.021,9.996-23.605,15.599-37.76,15.573h-384
	c-14.155,0.025-27.739-5.577-37.76-15.573l174.08-174.08l29.44,21.333c15.596,11.522,36.884,11.522,52.48,0l29.44-21.333
	L475.094,336.427z"/>
<path style="fill:#FFD54F;" d="M480.427,32.64L301.014,162.347l-29.44,21.333c-15.596,11.522-36.884,11.522-52.48,0l-29.44-21.333
	L10.027,32.854c9.991-13.972,26.13-22.241,43.307-22.187h384C454.385,10.682,470.401,18.848,480.427,32.64z"/>
<g>
	<path style="fill:#FFC107;" d="M10.027,32.854l179.627,129.493l-174.08,174.08C5.578,326.406-0.025,312.822,0,298.667V64
		C-0.047,52.817,3.464,41.909,10.027,32.854z"/>
	<path style="fill:#FFC107;" d="M490.667,64v234.667c0.025,14.155-5.577,27.739-15.573,37.76l-174.08-174.08L480.427,32.64
		C487.088,41.739,490.674,52.724,490.667,64z"/>
</g>
<circle style="fill:#FAFAFA;" cx="245.334" cy="362.667" r="106.667"/>
<g>
	<path style="fill:#F44336;" d="M245.334,480C180.532,480,128,427.468,128,362.667s52.532-117.333,117.333-117.333
		s117.333,52.532,117.333,117.333C362.585,427.434,310.101,479.918,245.334,480z M245.334,266.667c-53.019,0-96,42.981-96,96
		s42.981,96,96,96s96-42.981,96-96S298.353,266.667,245.334,266.667z"/>
	<path style="fill:#F44336;" d="M320.768,448.747c-2.831,0.005-5.548-1.115-7.552-3.115L162.368,294.806
		c-4.092-4.237-3.975-10.99,0.262-15.083c4.134-3.992,10.687-3.992,14.82,0L328.299,430.55c4.171,4.16,4.179,10.914,0.019,15.085
		c-2.006,2.011-4.731,3.139-7.571,3.134L320.768,448.747z"/>
</g>
<g>
</g>
<g>
</g>
<g>
</g>
<g>
</g>
<g>
</g>
<g>
</g>
<g>
</g>
<g>
</g>
<g>
</g>
<g>
</g>
<g>
</g>
<g>
</g>
<g>
</g>
<g>
</g>
<g>
</g>
</svg>
