<?xml version="1.0" encoding="iso-8859-1"?>
<!-- Generator: Adobe Illustrator 19.0.0, SVG Export Plug-In . SVG Version: 6.00 Build 0)  -->
<svg version="1.1" id="Capa_1" xmlns="http://www.w3.org/2000/svg" xmlns:xlink="http://www.w3.org/1999/xlink" x="0px" y="0px"
	 viewBox="0 0 512.005 512.005" style="enable-background:new 0 0 512.005 512.005;" xml:space="preserve">
<path style="fill:#CFD8DC;" d="M437.345,0.005H202.679c-2.831-0.005-5.548,1.115-7.552,3.115l-128,128
	c-1.999,2.004-3.12,4.721-3.115,7.552v362.667c0,5.891,4.776,10.667,10.667,10.667h362.667c5.891,0,10.667-4.776,10.667-10.667
	V10.671C448.012,4.78,443.236,0.005,437.345,0.005z"/>
<path style="fill:#B0BEC5;" d="M206.753,0.815c-3.985-1.654-8.574-0.745-11.627,2.304l-128,128
	c-4.171,4.16-4.179,10.914-0.019,15.085c2.006,2.011,4.731,3.139,7.571,3.134h128c5.891,0,10.667-4.776,10.667-10.667v-128
	C213.345,6.355,210.742,2.464,206.753,0.815z"/>
<path style="fill:#455A64;" d="M360.78,367.258c-1.994-2.874-5.27-4.588-8.768-4.587h-64c-5.891,0-10.667,4.776-10.667,10.667
	c0,1.282,0.231,2.554,0.683,3.755l32,85.333c2.074,5.514,8.225,8.303,13.739,6.229c2.877-1.082,5.147-3.352,6.229-6.229l32-85.333
	C363.23,373.814,362.776,370.138,360.78,367.258z"/>
<path style="fill:#EC407A;" d="M362.679,85.338v53.333h-85.333V85.338c0-23.564,19.103-42.667,42.667-42.667
	S362.679,61.774,362.679,85.338z"/>
<path style="fill:#FFC107;" d="M362.679,138.671v234.667c0,5.891-4.776,10.667-10.667,10.667h-64
	c-5.891,0-10.667-4.776-10.667-10.667V138.671H362.679z"/>
<g>
</g>
<g>
</g>
<g>
</g>
<g>
</g>
<g>
</g>
<g>
</g>
<g>
</g>
<g>
</g>
<g>
</g>
<g>
</g>
<g>
</g>
<g>
</g>
<g>
</g>
<g>
</g>
<g>
</g>
</svg>
