<?xml version="1.0" encoding="iso-8859-1"?>
<!-- Generator: Adobe Illustrator 19.0.0, SVG Export Plug-In . SVG Version: 6.00 Build 0)  -->
<svg version="1.1" id="Capa_1" xmlns="http://www.w3.org/2000/svg" xmlns:xlink="http://www.w3.org/1999/xlink" x="0px" y="0px"
	 viewBox="0 0 490.667 490.667" style="enable-background:new 0 0 490.667 490.667;" xml:space="preserve">
<path style="fill:#FFD54F;" d="M480.427,43.307L301.014,173.014l-29.44,21.333c-15.596,11.522-36.884,11.522-52.48,0l-29.44-21.333
	L10.027,43.52c9.991-13.972,26.13-22.241,43.307-22.187h384C454.385,21.348,470.401,29.515,480.427,43.307z"/>
<g>
	<path style="fill:#FFC107;" d="M10.027,43.52l179.627,129.493l-174.08,174.08C5.578,337.072-0.025,323.488,0,309.334V74.667
		C-0.047,63.484,3.464,52.576,10.027,43.52z"/>
	<path style="fill:#FFC107;" d="M490.667,74.667v234.667c0.025,14.155-5.577,27.739-15.573,37.76l-174.08-174.08L480.427,43.307
		C487.088,52.406,490.674,63.391,490.667,74.667z"/>
</g>
<path style="fill:#455A64;" d="M288,469.334H181.334c-41.237,0-74.667-33.429-74.667-74.667S140.097,320,181.334,320H320
	c29.455,0,53.333,23.878,53.333,53.333S349.456,426.667,320,426.667H181.334c-17.673,0-32-14.327-32-32s14.327-32,32-32H288
	c5.891,0,10.667,4.776,10.667,10.667c0,5.891-4.776,10.667-10.667,10.667H181.334c-5.891,0-10.667,4.776-10.667,10.667
	c0,5.891,4.776,10.667,10.667,10.667H320c17.673,0,32-14.327,32-32s-14.327-32-32-32H181.334c-29.455,0-53.333,23.878-53.333,53.333
	S151.879,448,181.334,448H288c5.891,0,10.667,4.776,10.667,10.667C298.667,464.558,293.892,469.334,288,469.334z"/>
<path style="fill:#FFA000;" d="M301.014,173.014l-29.44,21.333c-15.596,11.522-36.884,11.522-52.48,0l-29.44-21.333l-174.08,174.08
	c10.021,9.996,23.605,15.599,37.76,15.573h37.888c13.475-38.247,49.561-63.876,90.112-64H320c36.994,0.16,68.294,27.385,73.579,64
	h43.755c14.155,0.025,27.739-5.577,37.76-15.573L301.014,173.014z"/>
<g>
</g>
<g>
</g>
<g>
</g>
<g>
</g>
<g>
</g>
<g>
</g>
<g>
</g>
<g>
</g>
<g>
</g>
<g>
</g>
<g>
</g>
<g>
</g>
<g>
</g>
<g>
</g>
<g>
</g>
</svg>
