<?xml version="1.0" encoding="iso-8859-1"?>
<!-- Generator: Adobe Illustrator 19.0.0, SVG Export Plug-In . SVG Version: 6.00 Build 0)  -->
<svg version="1.1" id="Capa_1" xmlns="http://www.w3.org/2000/svg" xmlns:xlink="http://www.w3.org/1999/xlink" x="0px" y="0px"
	 viewBox="0 0 512.01 512.01" style="enable-background:new 0 0 512.01 512.01;" xml:space="preserve">
<path style="fill:#546E7A;" d="M353.899,149.508c-5.776-1.051-11.315,2.763-12.395,8.533l-1.515,8.363
	c-26.374-16.769-58.639-21.517-88.725-13.056c-43.864,11.402-78.405,45.188-90.773,88.789c-8.853,28.678-3.564,59.856,14.251,84.011
	c16.274,22.834,42.552,36.43,70.592,36.523c34.237-0.959,65.416-19.944,81.984-49.92c17.05,32.75,51.839,52.333,88.683,49.92
	c54.94-5.041,96.754-51.501,96-106.667c0-141.385-114.615-256-256-256S0,114.619,0,256.004s114.615,256,256,256
	c57.841,0.234,114.018-19.34,159.189-55.467c4.753-3.48,5.785-10.155,2.305-14.908c-3.48-4.753-10.155-5.785-14.908-2.305
	c-0.229,0.168-0.451,0.345-0.666,0.53c-41.411,33.102-92.905,51.034-145.92,50.816c-129.603,0-234.667-105.064-234.667-234.667
	S126.397,21.337,256,21.337s234.667,105.064,234.667,234.667c0.612,43.36-31.609,80.185-74.667,85.333
	c-34.453,0-74.667-16.768-74.837-62.101l21.333-117.333C363.544,156.106,359.695,150.557,353.899,149.508z M245.333,341.337
	c-21.203-0.129-41.051-10.449-53.333-27.733c-13.812-18.666-17.945-42.781-11.136-64.981c9.913-36.662,38.833-65.125,75.648-74.453
	c26.686-8.036,55.617-2.454,77.397,14.933c0.569,0.454,1.184,0.847,1.835,1.173l-15.189,84.181c0,0.213-0.213,0.363-0.256,0.576
	C313.027,311.457,282.372,338.57,245.333,341.337z"/>
<g>
</g>
<g>
</g>
<g>
</g>
<g>
</g>
<g>
</g>
<g>
</g>
<g>
</g>
<g>
</g>
<g>
</g>
<g>
</g>
<g>
</g>
<g>
</g>
<g>
</g>
<g>
</g>
<g>
</g>
</svg>
