<?xml version="1.0" encoding="iso-8859-1"?>
<!-- Generator: Adobe Illustrator 19.0.0, SVG Export Plug-In . SVG Version: 6.00 Build 0)  -->
<svg version="1.1" id="Capa_1" xmlns="http://www.w3.org/2000/svg" xmlns:xlink="http://www.w3.org/1999/xlink" x="0px" y="0px"
	 viewBox="0 0 512 512" style="enable-background:new 0 0 512 512;" xml:space="preserve">
<path style="fill:#F44336;" d="M480,80H32C14.368,80,0,94.368,0,112v288c0,17.664,14.368,32,32,32h448c17.664,0,32-14.336,32-32V112
	C512,94.368,497.664,80,480,80z"/>
<path style="fill:#FAFAFA;" d="M368,176c-44.128,0-80,35.904-80,80c0,18.08,6.24,34.592,16.384,48h-96.8
	C217.76,290.592,224,274.08,224,256c0-44.096-35.904-80-80-80s-80,35.904-80,80c0,44.128,35.904,80,80,80h224
	c44.128,0,80-35.872,80-80C448,211.904,412.128,176,368,176z M96,256c0-26.464,21.536-48,48-48s48,21.536,48,48s-21.536,48-48,48
	S96,282.464,96,256z M368,304c-26.464,0-48-21.536-48-48s21.536-48,48-48s48,21.536,48,48S394.464,304,368,304z"/>
<g>
</g>
<g>
</g>
<g>
</g>
<g>
</g>
<g>
</g>
<g>
</g>
<g>
</g>
<g>
</g>
<g>
</g>
<g>
</g>
<g>
</g>
<g>
</g>
<g>
</g>
<g>
</g>
<g>
</g>
</svg>
