<?xml version="1.0" encoding="iso-8859-1"?>
<!-- Generator: Adobe Illustrator 19.0.0, SVG Export Plug-In . SVG Version: 6.00 Build 0)  -->
<svg version="1.1" id="Capa_1" xmlns="http://www.w3.org/2000/svg" xmlns:xlink="http://www.w3.org/1999/xlink" x="0px" y="0px"
	 viewBox="0 0 512 512" style="enable-background:new 0 0 512 512;" xml:space="preserve">
<path style="fill:#607D8B;" d="M400,416H112c-8.832,0-16,7.168-16,16v64c0,8.832,7.168,16,16,16h288c8.832,0,16-7.168,16-16v-64
	C416,423.168,408.832,416,400,416z"/>
<path style="fill:#F44336;" d="M389.888,353.12C348.096,336.544,320,295.072,320,249.92v-63.712c0-13.344,6.432-24.384,11.84-31.328
	C345.024,137.92,352,117.536,352,96c0-52.928-43.072-96-96-96s-96,43.072-96,96c0,21.568,6.976,41.952,20.16,58.88
	c5.408,6.944,11.84,17.952,11.84,31.328v63.712c0,45.152-28.096,86.624-69.92,103.2c-7.136,2.848-11.264,10.336-9.824,17.888
	C113.728,378.56,120.32,384,128,384h256c7.68,0,14.272-5.44,15.712-12.992S397.024,355.968,389.888,353.12z"/>
<path style="fill:#455A64;" d="M464,352H48c-8.832,0-16,7.168-16,16v64c0,8.832,7.168,16,16,16h416c8.832,0,16-7.168,16-16v-64
	C480,359.168,472.832,352,464,352z"/>
<g>
</g>
<g>
</g>
<g>
</g>
<g>
</g>
<g>
</g>
<g>
</g>
<g>
</g>
<g>
</g>
<g>
</g>
<g>
</g>
<g>
</g>
<g>
</g>
<g>
</g>
<g>
</g>
<g>
</g>
</svg>
