<?xml version="1.0" encoding="iso-8859-1"?>
<!-- Generator: Adobe Illustrator 19.0.0, SVG Export Plug-In . SVG Version: 6.00 Build 0)  -->
<svg version="1.1" id="Capa_1" xmlns="http://www.w3.org/2000/svg" xmlns:xlink="http://www.w3.org/1999/xlink" x="0px" y="0px"
	 viewBox="0 0 511.995 511.995" style="enable-background:new 0 0 511.995 511.995;" xml:space="preserve">
<path style="fill:#1976D2;" d="M80,223.998H16c-8.832,0-16,7.168-16,16v224c0,8.832,7.168,16,16,16h64c8.832,0,16-7.168,16-16v-224
	C96,231.166,88.832,223.998,80,223.998z"/>
<path style="fill:#FFD54F;" d="M501.888,258.526c-16.256-20.96-46.464-24.704-67.328-8.416l-118.016,91.776
	c-8.448,6.56-18.816,10.112-29.472,10.112H176c44.192,0,80-35.808,80-80c0-8.832-7.168-16-16-16H96v96v96h212.992
	c17.792,0,35.072-5.92,49.12-16.864l135.36-105.28C514.4,309.598,518.144,279.454,501.888,258.526z"/>
<path style="fill:#ECEFF1;" d="M384,127.998H128v-80c0-8.832,7.168-16,16-16h224c8.832,0,16,7.168,16,16V127.998z"/>
<path style="fill:#CFD8DC;" d="M384,63.998v112c0,8.8-7.2,16-16,16H144c-8.8,0-16-7.2-16-16v-112l128,64L384,63.998z"/>
<g>
</g>
<g>
</g>
<g>
</g>
<g>
</g>
<g>
</g>
<g>
</g>
<g>
</g>
<g>
</g>
<g>
</g>
<g>
</g>
<g>
</g>
<g>
</g>
<g>
</g>
<g>
</g>
<g>
</g>
</svg>
