<?xml version="1.0" encoding="iso-8859-1"?>
<!-- Generator: Adobe Illustrator 19.0.0, SVG Export Plug-In . SVG Version: 6.00 Build 0)  -->
<svg version="1.1" id="Capa_1" xmlns="http://www.w3.org/2000/svg" xmlns:xlink="http://www.w3.org/1999/xlink" x="0px" y="0px"
	 viewBox="0 0 512.067 512.067" style="enable-background:new 0 0 512.067 512.067;" xml:space="preserve">
<path style="fill:#64B5F6;" d="M510.72,150.433l-20.8,48.32L304,256.034l-130.56-72.32l19.84-46.08c2.56-5.76,8.32-9.6,14.72-9.6
	h288c5.44,0,10.56,2.56,13.44,7.04C512.32,139.873,512.96,145.313,510.72,150.433z"/>
<g>
	<path style="fill:#2196F3;" d="M489.92,198.753l-75.2,175.68c-2.56,5.76-8.32,9.6-14.72,9.6H112c-5.44,0-10.24-2.56-13.44-7.04
		c-2.88-4.8-3.52-10.24-1.28-15.36l76.16-177.92L304,256.034L489.92,198.753z"/>
	<path style="fill:#2196F3;" d="M144,160.033H16c-8.832,0-16-7.168-16-16s7.168-16,16-16h128c8.832,0,16,7.168,16,16
		S152.832,160.033,144,160.033z"/>
	<path style="fill:#2196F3;" d="M102.72,256.034H16c-8.832,0-16-7.168-16-16s7.168-16,16-16h86.72c8.832,0,16,7.168,16,16
		S111.552,256.034,102.72,256.034z"/>
	<path style="fill:#2196F3;" d="M61.76,352.034H16c-8.832,0-16-7.168-16-16s7.168-16,16-16h45.76c8.832,0,16,7.168,16,16
		S70.624,352.034,61.76,352.034z"/>
</g>
<g>
</g>
<g>
</g>
<g>
</g>
<g>
</g>
<g>
</g>
<g>
</g>
<g>
</g>
<g>
</g>
<g>
</g>
<g>
</g>
<g>
</g>
<g>
</g>
<g>
</g>
<g>
</g>
<g>
</g>
</svg>
