<?xml version="1.0" encoding="iso-8859-1"?>
<!-- Generator: Adobe Illustrator 19.0.0, SVG Export Plug-In . SVG Version: 6.00 Build 0)  -->
<svg version="1.1" id="Capa_1" xmlns="http://www.w3.org/2000/svg" xmlns:xlink="http://www.w3.org/1999/xlink" x="0px" y="0px"
	 viewBox="0 0 512 512" style="enable-background:new 0 0 512 512;" xml:space="preserve">
<path style="fill:#F44336;" d="M512,112v32L256,256L0,144v-32c0-17.6,14.4-32,32-32h448C497.6,80,512,94.4,512,112z"/>
<path style="fill:#D32F2F;" d="M512,144v256c0,17.6-14.4,32-32,32H32c-17.6,0-32-14.4-32-32V144l256,112L512,144z"/>
<circle style="fill:#FAFAFA;" cx="256" cy="256" r="112"/>
<path style="fill:#F44336;" d="M208,272.032c-8.832,0-16-7.168-16-16.032c0-8.8,7.168-16,16-16h96c8.832,0,16,7.168,16,16
	s-7.168,16-16,16L208,272.032z"/>
<g>
</g>
<g>
</g>
<g>
</g>
<g>
</g>
<g>
</g>
<g>
</g>
<g>
</g>
<g>
</g>
<g>
</g>
<g>
</g>
<g>
</g>
<g>
</g>
<g>
</g>
<g>
</g>
<g>
</g>
</svg>
