<?xml version="1.0" encoding="iso-8859-1"?>
<!-- Generator: Adobe Illustrator 19.0.0, SVG Export Plug-In . SVG Version: 6.00 Build 0)  -->
<svg version="1.1" id="Capa_1" xmlns="http://www.w3.org/2000/svg" xmlns:xlink="http://www.w3.org/1999/xlink" x="0px" y="0px"
	 viewBox="0 0 512 512" style="enable-background:new 0 0 512 512;" xml:space="preserve">
<path style="fill:#F44336;" d="M512,177.568V224L256,336L0,224v-46.432c0-10.944,5.6-21.12,14.816-27.008L247.52,2.432
	c5.184-3.232,11.776-3.232,16.96,0L497.184,150.56C506.4,156.448,512,166.624,512,177.568z"/>
<path style="fill:#ECEFF1;" d="M416,0H96C78.368,0,64,14.368,64,32v352c0,8.832,7.168,16,16,16h352c8.832,0,16-7.168,16-16V32
	C448,14.368,433.664,0,416,0z"/>
<g>
	<path style="fill:#90A4AE;" d="M144,96h224c8.832,0,16-7.168,16-16s-7.168-16-16-16H144c-8.832,0-16,7.168-16,16S135.168,96,144,96
		z"/>
	<path style="fill:#90A4AE;" d="M368,128H144c-8.832,0-16,7.168-16,16s7.168,16,16,16h224c8.832,0,16-7.168,16-16
		S376.832,128,368,128z"/>
	<path style="fill:#90A4AE;" d="M272,192H144c-8.832,0-16,7.168-16,16s7.168,16,16,16h128c8.832,0,16-7.168,16-16
		S280.832,192,272,192z"/>
</g>
<path style="fill:#D32F2F;" d="M512,224v256c0,17.6-14.4,32-32,32H32c-17.6,0-32-14.4-32-32V224l256,112L512,224z"/>
<g>
</g>
<g>
</g>
<g>
</g>
<g>
</g>
<g>
</g>
<g>
</g>
<g>
</g>
<g>
</g>
<g>
</g>
<g>
</g>
<g>
</g>
<g>
</g>
<g>
</g>
<g>
</g>
<g>
</g>
</svg>
