<?xml version="1.0" encoding="iso-8859-1"?>
<!-- Generator: Adobe Illustrator 19.0.0, SVG Export Plug-In . SVG Version: 6.00 Build 0)  -->
<svg version="1.1" id="Capa_1" xmlns="http://www.w3.org/2000/svg" xmlns:xlink="http://www.w3.org/1999/xlink" x="0px" y="0px"
	 viewBox="0 0 480 480" style="enable-background:new 0 0 480 480;" xml:space="preserve">
<path style="fill:#455A64;" d="M464,96c8.832,0,16-7.168,16-16s-7.168-16-16-16c-4.416,0-8.416-1.792-11.328-4.672
	C468.832,51.552,480,35.072,480,16c0-8.832-7.168-16-16-16c-19.072,0-35.552,11.168-43.328,27.328C417.792,24.416,416,20.416,416,16
	c0-8.832-7.168-16-16-16s-16,7.168-16,16s-7.2,16-16,16s-16-7.168-16-16s-7.168-16-16-16s-16,7.168-16,16s-7.2,16-16,16
	s-16-7.168-16-16s-7.168-16-16-16s-16,7.168-16,16s-7.168,16-16,16s-16-7.168-16-16s-7.168-16-16-16s-16,7.168-16,16
	s-7.168,16-16,16s-16-7.168-16-16s-7.168-16-16-16s-16,7.168-16,16s-7.168,16-16,16s-16-7.168-16-16S88.832,0,80,0S64,7.168,64,16
	c0,4.416-1.792,8.416-4.672,11.328C51.552,11.168,35.072,0,16,0C7.168,0,0,7.168,0,16c0,19.072,11.168,35.552,27.328,43.328
	C24.416,62.208,20.416,64,16,64C7.168,64,0,71.168,0,80s7.168,16,16,16s16,7.168,16,16s-7.168,16-16,16s-16,7.168-16,16
	s7.168,16,16,16s16,7.168,16,16s-7.168,16-16,16s-16,7.168-16,16s7.168,16,16,16s16,7.168,16,16s-7.168,16-16,16s-16,7.168-16,16
	s7.168,16,16,16s16,7.2,16,16s-7.168,16-16,16s-16,7.168-16,16s7.168,16,16,16s16,7.2,16,16s-7.168,16-16,16s-16,7.168-16,16
	s7.168,16,16,16c4.416,0,8.416,1.792,11.328,4.672C11.168,428.448,0,444.928,0,464c0,8.832,7.168,16,16,16
	c19.072,0,35.552-11.168,43.328-27.328C62.208,455.584,64,459.584,64,464c0,8.832,7.168,16,16,16s16-7.168,16-16
	c0-8.8,7.168-16,16-16s16,7.2,16,16c0,8.832,7.168,16,16,16s16-7.168,16-16c0-8.8,7.168-16,16-16s16,7.2,16,16
	c0,8.832,7.168,16,16,16s16-7.168,16-16c0-8.8,7.168-16,16-16s16,7.2,16,16c0,8.832,7.168,16,16,16s16-7.168,16-16
	c0-8.8,7.2-16,16-16s16,7.2,16,16c0,8.832,7.168,16,16,16s16-7.168,16-16c0-8.8,7.2-16,16-16s16,7.2,16,16c0,8.832,7.168,16,16,16
	s16-7.168,16-16c0-4.416,1.792-8.416,4.672-11.328C428.448,468.832,444.928,480,464,480c8.832,0,16-7.168,16-16
	c0-19.072-11.168-35.552-27.328-43.328c2.912-2.88,6.912-4.672,11.328-4.672c8.832,0,16-7.168,16-16s-7.168-16-16-16
	c-8.8,0-16-7.2-16-16s7.2-16,16-16c8.832,0,16-7.168,16-16s-7.168-16-16-16c-8.8,0-16-7.2-16-16s7.2-16,16-16
	c8.832,0,16-7.168,16-16s-7.168-16-16-16c-8.8,0-16-7.168-16-16s7.2-16,16-16c8.832,0,16-7.168,16-16s-7.168-16-16-16
	c-8.8,0-16-7.168-16-16s7.2-16,16-16c8.832,0,16-7.168,16-16s-7.168-16-16-16c-8.8,0-16-7.168-16-16S455.2,96,464,96z"/>
<rect x="80" y="80" style="fill:#FAFAFA;" width="320" height="320"/>
<path style="fill:#4CAF50;" d="M366.304,312.832l-80-160c-5.44-10.848-23.2-10.848-28.64,0L208,252.224l-17.696-35.392
	c-5.44-10.848-23.2-10.848-28.64,0l-48,96c-2.496,4.96-2.208,10.848,0.704,15.552C117.28,333.088,122.464,336,128,336h64h32h128
	c5.536,0,10.688-2.88,13.632-7.584C368.544,323.68,368.768,317.824,366.304,312.832z"/>
<g>
</g>
<g>
</g>
<g>
</g>
<g>
</g>
<g>
</g>
<g>
</g>
<g>
</g>
<g>
</g>
<g>
</g>
<g>
</g>
<g>
</g>
<g>
</g>
<g>
</g>
<g>
</g>
<g>
</g>
</svg>
