<?xml version="1.0" encoding="iso-8859-1"?>
<!-- Generator: Adobe Illustrator 19.0.0, SVG Export Plug-In . SVG Version: 6.00 Build 0)  -->
<svg version="1.1" id="Capa_1" xmlns="http://www.w3.org/2000/svg" xmlns:xlink="http://www.w3.org/1999/xlink" x="0px" y="0px"
	 viewBox="0 0 512 512" style="enable-background:new 0 0 512 512;" xml:space="preserve">
<g>
	<path style="fill:#F44336;" d="M400,128H112c-8.832,0-16,7.168-16,16v336c0,17.664,14.368,32,32,32h256c17.664,0,32-14.336,32-32
		V144C416,135.168,408.832,128,400,128z"/>
	<path style="fill:#F44336;" d="M409.984,67.488l-80-64C327.168,1.248,323.616,0,320,0H192c-3.648,0-7.168,1.248-10.016,3.488
		l-80,64c-5.28,4.256-7.328,11.392-5.088,17.824S105.216,96,112,96h288c6.784,0,12.832-4.288,15.104-10.688
		S415.328,71.744,409.984,67.488z"/>
</g>
<rect x="160" y="192" style="fill:#FAFAFA;" width="192" height="32"/>
<path style="fill:#D32F2F;" d="M432,64H80c-8.832,0-16,7.168-16,16v64c0,8.832,7.168,16,16,16h352c8.832,0,16-7.168,16-16V80
	C448,71.168,440.832,64,432,64z"/>
<path style="fill:#ECEFF1;" d="M352,384H160v-80c0-8.832,7.168-16,16-16h160c8.832,0,16,7.168,16,16V384z"/>
<path style="fill:#CFD8DC;" d="M352,320v80c0,8.8-7.2,16-16,16H176c-8.8,0-16-7.2-16-16v-80l96,32L352,320z"/>
<g>
</g>
<g>
</g>
<g>
</g>
<g>
</g>
<g>
</g>
<g>
</g>
<g>
</g>
<g>
</g>
<g>
</g>
<g>
</g>
<g>
</g>
<g>
</g>
<g>
</g>
<g>
</g>
<g>
</g>
</svg>
