<?xml version="1.0" encoding="iso-8859-1"?>
<!-- Generator: Adobe Illustrator 19.0.0, SVG Export Plug-In . SVG Version: 6.00 Build 0)  -->
<svg version="1.1" id="Capa_1" xmlns="http://www.w3.org/2000/svg" xmlns:xlink="http://www.w3.org/1999/xlink" x="0px" y="0px"
	 viewBox="0 0 512 512" style="enable-background:new 0 0 512 512;" xml:space="preserve">
<path style="fill:#FFD54F;" d="M464,192H48c-8.832,0-16-7.168-16-16v-16l80-64h288l80,64v16C480,184.832,472.832,192,464,192z"/>
<path style="fill:#ECEFF1;" d="M400,0H112c-8.832,0-16,7.168-16,16v192c0,8.832,7.168,16,16,16h288c8.832,0,16-7.168,16-16V16
	C416,7.168,408.832,0,400,0z"/>
<path style="fill:#FFC107;" d="M464,192H48c-8.832,0-16-7.168-16-16v320c0,8.832,7.168,16,16,16h416c8.832,0,16-7.168,16-16V176
	C480,184.832,472.832,192,464,192z"/>
<path style="fill:#FFD54F;" d="M464,512H48c-8.832,0-16-7.168-16-16v-16l80-64h288l80,64v16C480,504.832,472.832,512,464,512z"/>
<g>
	<path style="fill:#90A4AE;" d="M336,64H176c-8.832,0-16,7.168-16,16s7.168,16,16,16h160c8.832,0,16-7.168,16-16S344.832,64,336,64z
		"/>
	<path style="fill:#90A4AE;" d="M272,128h-96c-8.832,0-16,7.168-16,16s7.168,16,16,16h96c8.832,0,16-7.168,16-16
		S280.832,128,272,128z"/>
</g>
<path style="fill:#F44336;" d="M256,352c-26.464,0-48-21.536-48-48s21.536-48,48-48s48,21.536,48,48S282.464,352,256,352z M256,288
	c-8.832,0-16,7.2-16,16s7.168,16,16,16s16-7.2,16-16S264.832,288,256,288z"/>
<g>
</g>
<g>
</g>
<g>
</g>
<g>
</g>
<g>
</g>
<g>
</g>
<g>
</g>
<g>
</g>
<g>
</g>
<g>
</g>
<g>
</g>
<g>
</g>
<g>
</g>
<g>
</g>
<g>
</g>
</svg>
