<?xml version="1.0" encoding="iso-8859-1"?>
<!-- Generator: Adobe Illustrator 19.0.0, SVG Export Plug-In . SVG Version: 6.00 Build 0)  -->
<svg version="1.1" id="Capa_1" xmlns="http://www.w3.org/2000/svg" xmlns:xlink="http://www.w3.org/1999/xlink" x="0px" y="0px"
	 viewBox="0 0 512 512" style="enable-background:new 0 0 512 512;" xml:space="preserve">
<path style="fill:#FFC107;" d="M432,0H80c-8.832,0-16,7.168-16,16v480c0,8.832,7.168,16,16,16h352c8.832,0,16-7.168,16-16V16
	C448,7.168,440.832,0,432,0z"/>
<rect x="240" y="80" style="fill:#FAFAFA;" width="32" height="96"/>
<path style="fill:#FFD54F;" d="M432,0H80c-8.832,0-16,7.168-16,16v16l80,64h224l80-64V16C448,7.168,440.832,0,432,0z"/>
<path style="fill:#F44336;" d="M256,256c-26.464,0-48-21.536-48-48s21.536-48,48-48s48,21.536,48,48S282.464,256,256,256z M256,192
	c-8.832,0-16,7.168-16,16s7.168,16,16,16s16-7.168,16-16S264.832,192,256,192z"/>
<g>
</g>
<g>
</g>
<g>
</g>
<g>
</g>
<g>
</g>
<g>
</g>
<g>
</g>
<g>
</g>
<g>
</g>
<g>
</g>
<g>
</g>
<g>
</g>
<g>
</g>
<g>
</g>
<g>
</g>
</svg>
