<?xml version="1.0" encoding="iso-8859-1"?>
<!-- Generator: Adobe Illustrator 19.0.0, SVG Export Plug-In . SVG Version: 6.00 Build 0)  -->
<svg version="1.1" id="Capa_1" xmlns="http://www.w3.org/2000/svg" xmlns:xlink="http://www.w3.org/1999/xlink" x="0px" y="0px"
	 viewBox="0 0 512 512" style="enable-background:new 0 0 512 512;" xml:space="preserve">
<path style="fill:#FFC107;" d="M416,0H96c-8.832,0-16,7.168-16,16v480c0,8.832,7.168,16,16,16h320c8.832,0,16-7.168,16-16V16
	C432,7.168,424.832,0,416,0z"/>
<path style="fill:#FFA000;" d="M256,448c-8.832,0-16-7.168-16-16V80c0-8.832,7.168-16,16-16s16,7.168,16,16v352
	C272,440.832,264.832,448,256,448z"/>
<g>
	<path style="fill:#FFD54F;" d="M416,0H96c-8.832,0-16,7.168-16,16v16l80,64h192l80-64V16C432,7.168,424.832,0,416,0z"/>
	<path style="fill:#FFD54F;" d="M416,512H96c-8.832,0-16-7.168-16-16v-16l80-64h192l80,64v16C432,504.832,424.832,512,416,512z"/>
</g>
<g>
</g>
<g>
</g>
<g>
</g>
<g>
</g>
<g>
</g>
<g>
</g>
<g>
</g>
<g>
</g>
<g>
</g>
<g>
</g>
<g>
</g>
<g>
</g>
<g>
</g>
<g>
</g>
<g>
</g>
</svg>
