<?xml version="1.0" encoding="iso-8859-1"?>
<!-- Generator: Adobe Illustrator 19.0.0, SVG Export Plug-In . SVG Version: 6.00 Build 0)  -->
<svg version="1.1" id="Capa_1" xmlns="http://www.w3.org/2000/svg" xmlns:xlink="http://www.w3.org/1999/xlink" x="0px" y="0px"
	 viewBox="0 0 512 512" style="enable-background:new 0 0 512 512;" xml:space="preserve">
<path style="fill:#607D8B;" d="M315.328,436.672l-64-64c-6.24-6.24-16.384-6.24-22.624,0c-3.136,3.136-4.704,7.2-4.704,11.264
	c0-4.064-1.568-8.128-4.672-11.264c-6.24-6.24-16.384-6.24-22.624,0l-64,64c-4.576,4.576-5.952,11.456-3.456,17.44
	C131.68,460.096,137.536,464,144,464h160c6.464,0,12.32-3.904,14.784-9.888S319.872,441.248,315.328,436.672z"/>
<path style="fill:#455A64;" d="M448,336V80c0-17.632-14.336-32-32-32H32C14.368,48,0,62.368,0,80v256H448z"/>
<rect x="32" y="80" style="fill:#FAFAFA;" width="384" height="224"/>
<path style="fill:#B0BEC5;" d="M0,336v32c0,17.664,14.368,32,32,32h384c17.664,0,32-14.336,32-32v-32H0z"/>
<path style="fill:#64B5F6;" d="M512,208H256v-80c0-8.832,7.168-16,16-16h224c8.832,0,16,7.168,16,16V208z"/>
<path style="fill:#2196F3;" d="M512,144v112c0,8.8-7.2,16-16,16H272c-8.8,0-16-7.2-16-16V144l128,64L512,144z"/>
<g>
</g>
<g>
</g>
<g>
</g>
<g>
</g>
<g>
</g>
<g>
</g>
<g>
</g>
<g>
</g>
<g>
</g>
<g>
</g>
<g>
</g>
<g>
</g>
<g>
</g>
<g>
</g>
<g>
</g>
</svg>
