<?xml version="1.0" encoding="iso-8859-1"?>
<!-- Generator: Adobe Illustrator 19.0.0, SVG Export Plug-In . SVG Version: 6.00 Build 0)  -->
<svg version="1.1" id="Capa_1" xmlns="http://www.w3.org/2000/svg" xmlns:xlink="http://www.w3.org/1999/xlink" x="0px" y="0px"
	 viewBox="0 0 512 512" style="enable-background:new 0 0 512 512;" xml:space="preserve">
<path style="fill:#455A64;" d="M448,416H32V112c0-17.632,14.368-32,32-32h352c17.664,0,32,14.368,32,32V416z"/>
<rect x="64" y="112" style="fill:#FAFAFA;" width="352" height="256"/>
<path style="fill:#B0BEC5;" d="M464,432H16c-8.832,0-16-7.168-16-16v-16h480v16C480,424.832,472.832,432,464,432z"/>
<path style="fill:#64B5F6;" d="M512,240H256v-80c0-8.832,7.168-16,16-16h224c8.832,0,16,7.168,16,16V240z"/>
<path style="fill:#2196F3;" d="M512,176v112c0,8.8-7.2,16-16,16H272c-8.8,0-16-7.2-16-16V176l128,64L512,176z"/>
<g>
</g>
<g>
</g>
<g>
</g>
<g>
</g>
<g>
</g>
<g>
</g>
<g>
</g>
<g>
</g>
<g>
</g>
<g>
</g>
<g>
</g>
<g>
</g>
<g>
</g>
<g>
</g>
<g>
</g>
</svg>
