<?xml version="1.0" encoding="iso-8859-1"?>
<!-- Generator: Adobe Illustrator 19.0.0, SVG Export Plug-In . SVG Version: 6.00 Build 0)  -->
<svg version="1.1" id="Capa_1" xmlns="http://www.w3.org/2000/svg" xmlns:xlink="http://www.w3.org/1999/xlink" x="0px" y="0px"
	 viewBox="0 0 512 512" style="enable-background:new 0 0 512 512;" xml:space="preserve">
<path style="fill:#CFD8DC;" d="M512,64v32L304,208L96,96V64c0-17.6,14.4-32,32-32h352C497.6,32,512,46.4,512,64z"/>
<path style="fill:#ECEFF1;" d="M512,96v192c0,17.6-14.4,32-32,32H128c-17.6,0-32-14.4-32-32V96l208,112L512,96z"/>
<path style="fill:#F44336;" d="M416,224v32L208,368L0,256v-32c0-17.6,14.4-32,32-32h352C401.6,192,416,206.4,416,224z"/>
<path style="fill:#D32F2F;" d="M416,256v192c0,17.6-14.4,32-32,32H32c-17.6,0-32-14.4-32-32V256l208,112L416,256z"/>
<g>
</g>
<g>
</g>
<g>
</g>
<g>
</g>
<g>
</g>
<g>
</g>
<g>
</g>
<g>
</g>
<g>
</g>
<g>
</g>
<g>
</g>
<g>
</g>
<g>
</g>
<g>
</g>
<g>
</g>
</svg>
