<?xml version="1.0" encoding="iso-8859-1"?>
<!-- Generator: Adobe Illustrator 19.0.0, SVG Export Plug-In . SVG Version: 6.00 Build 0)  -->
<svg version="1.1" id="Capa_1" xmlns="http://www.w3.org/2000/svg" xmlns:xlink="http://www.w3.org/1999/xlink" x="0px" y="0px"
	 viewBox="0 0 512 512" style="enable-background:new 0 0 512 512;" xml:space="preserve">
<path style="fill:#ECEFF1;" d="M416,0H96C78.368,0,64,14.368,64,32v352c0,8.832,7.168,16,16,16h352c8.832,0,16-7.168,16-16V32
	C448,14.368,433.664,0,416,0z"/>
<path style="fill:#FFA000;" d="M496,288h-96c-6.048,0-11.584,3.424-14.304,8.832L358.112,352H153.92l-27.584-55.168
	C123.616,291.424,118.08,288,112,288H16c-8.832,0-16,7.168-16,16v176c0,17.664,14.368,32,32,32h448c17.664,0,32-14.336,32-32V304
	C512,295.168,504.832,288,496,288z"/>
<circle style="fill:#FFC107;" cx="160" cy="96" r="32"/>
<path style="fill:#4CAF50;" d="M384,256c-8.576-17.824-34.976-57.76-81.696-151.168C299.584,99.424,294.048,96,288,96l0,0
	c-6.08,0-11.616,3.424-14.304,8.864l-40.192,80.576l-12.192-18.304C218.336,162.656,213.344,160,208,160s-10.336,2.656-13.312,7.136
	L128,256H384z"/>
<g>
</g>
<g>
</g>
<g>
</g>
<g>
</g>
<g>
</g>
<g>
</g>
<g>
</g>
<g>
</g>
<g>
</g>
<g>
</g>
<g>
</g>
<g>
</g>
<g>
</g>
<g>
</g>
<g>
</g>
</svg>
