<?xml version="1.0" encoding="iso-8859-1"?>
<!-- Generator: Adobe Illustrator 19.0.0, SVG Export Plug-In . SVG Version: 6.00 Build 0)  -->
<svg version="1.1" id="Capa_1" xmlns="http://www.w3.org/2000/svg" xmlns:xlink="http://www.w3.org/1999/xlink" x="0px" y="0px"
	 viewBox="0 0 512 512" style="enable-background:new 0 0 512 512;" xml:space="preserve">
<path style="fill:#ECEFF1;" d="M416,0H96C78.368,0,64,14.368,64,32v352c0,8.832,7.168,16,16,16h352c8.832,0,16-7.168,16-16V32
	C448,14.368,433.664,0,416,0z"/>
<g>
	<path style="fill:#90A4AE;" d="M368,128H144c-8.832,0-16-7.168-16-16s7.168-16,16-16h224c8.832,0,16,7.168,16,16
		S376.832,128,368,128z"/>
	<path style="fill:#90A4AE;" d="M368,192H144c-8.832,0-16-7.168-16-16s7.168-16,16-16h224c8.832,0,16,7.168,16,16
		S376.832,192,368,192z"/>
	<path style="fill:#90A4AE;" d="M272,256H144c-8.832,0-16-7.168-16-16s7.168-16,16-16h128c8.832,0,16,7.168,16,16
		S280.832,256,272,256z"/>
</g>
<path style="fill:#FFA000;" d="M496,288h-96c-6.048,0-11.584,3.424-14.304,8.832L358.112,352H153.92l-27.584-55.168
	C123.616,291.424,118.08,288,112,288H16c-8.832,0-16,7.168-16,16v176c0,17.664,14.368,32,32,32h448c17.664,0,32-14.336,32-32V304
	C512,295.168,504.832,288,496,288z"/>
<g>
</g>
<g>
</g>
<g>
</g>
<g>
</g>
<g>
</g>
<g>
</g>
<g>
</g>
<g>
</g>
<g>
</g>
<g>
</g>
<g>
</g>
<g>
</g>
<g>
</g>
<g>
</g>
<g>
</g>
</svg>
