<?xml version="1.0" encoding="iso-8859-1"?>
<!-- Generator: Adobe Illustrator 19.0.0, SVG Export Plug-In . SVG Version: 6.00 Build 0)  -->
<svg version="1.1" id="Capa_1" xmlns="http://www.w3.org/2000/svg" xmlns:xlink="http://www.w3.org/1999/xlink" x="0px" y="0px"
	 viewBox="0 0 512 512" style="enable-background:new 0 0 512 512;" xml:space="preserve">
<path style="fill:#D32F2F;" d="M480,144H32V80c0-17.664,14.336-32,32-32h384c17.664,0,32,14.336,32,32V144z"/>
<path style="fill:#F44336;" d="M512,144v32L256,288L0,176v-32c0-17.6,14.4-32,32-32h448C497.6,112,512,126.4,512,144z"/>
<path style="fill:#D32F2F;" d="M512,176v256c0,17.6-14.4,32-32,32H32c-17.6,0-32-14.4-32-32V176l256,112L512,176z"/>
<g>
</g>
<g>
</g>
<g>
</g>
<g>
</g>
<g>
</g>
<g>
</g>
<g>
</g>
<g>
</g>
<g>
</g>
<g>
</g>
<g>
</g>
<g>
</g>
<g>
</g>
<g>
</g>
<g>
</g>
</svg>
