<?xml version="1.0" encoding="iso-8859-1"?>
<!-- Generator: Adobe Illustrator 19.0.0, SVG Export Plug-In . SVG Version: 6.00 Build 0)  -->
<svg version="1.1" id="Capa_1" xmlns="http://www.w3.org/2000/svg" xmlns:xlink="http://www.w3.org/1999/xlink" x="0px" y="0px"
	 viewBox="0 0 496 496" style="enable-background:new 0 0 496 496;" xml:space="preserve">
<path style="fill:#F44336;" d="M416,88v32L208,232L0,120V88c0-17.6,14.4-32,32-32h352C401.6,56,416,70.4,416,88z"/>
<path style="fill:#D32F2F;" d="M416,120v192c0,17.6-14.4,32-32,32H32c-17.6,0-32-14.4-32-32V120l208,112L416,120z"/>
<path style="fill:#FAFAFA;" d="M417.1,311.8l-0.2-23.5c-15.3-4.8-32.1-8.3-48.9-8.3h-16v-32c0-12.1-6.8-23.2-17.7-28.6
	c-10.8-5.4-23.8-4.2-33.5,3l-128,96c-8.1,6-12.8,16.7-12.8,26.7h223.9C401.5,345.1,417.1,329.4,417.1,311.8z"/>
<path style="fill:#455A64;" d="M320,312h48c70.7,0,128,57.3,128,128l-7.7-7.7c-36.2-36.2-84.8-56.3-136-56.3H320v64l-128-96l128-96
	V312z"/>
<g>
</g>
<g>
</g>
<g>
</g>
<g>
</g>
<g>
</g>
<g>
</g>
<g>
</g>
<g>
</g>
<g>
</g>
<g>
</g>
<g>
</g>
<g>
</g>
<g>
</g>
<g>
</g>
<g>
</g>
</svg>
