<?xml version="1.0" encoding="iso-8859-1"?>
<!-- Generator: Adobe Illustrator 19.0.0, SVG Export Plug-In . SVG Version: 6.00 Build 0)  -->
<svg version="1.1" id="Capa_1" xmlns="http://www.w3.org/2000/svg" xmlns:xlink="http://www.w3.org/1999/xlink" x="0px" y="0px"
	 viewBox="0 0 512 512" style="enable-background:new 0 0 512 512;" xml:space="preserve">
<path style="fill:#F44336;" d="M416,96v32L208,240L0,128V96c0-17.6,14.4-32,32-32h352C401.6,64,416,78.4,416,96z"/>
<path style="fill:#D32F2F;" d="M416,128v192c0,17.6-14.4,32-32,32H32c-17.6,0-32-14.4-32-32V128l208,112L416,128z"/>
<path style="fill:#FAFAFA;" d="M403.2,230.4c-9.7-7.3-22.7-8.5-33.5-3c-10.8,5.4-17.7,16.5-17.7,28.6v32h-16
	c-52.1,0-98.3,25.6-127.5,64.2l175.6,0.3c17.6,0,32.3-14.8,32.3-32.4l0.1-79.8L403.2,230.4z"/>
<path style="fill:#455A64;" d="M384,256l128,96l-128,96v-64h-32.3c-51.2,0-99.8,20.2-136,56.3L208,448c0-70.7,57.3-128,128-128h48
	V256z"/>
<g>
</g>
<g>
</g>
<g>
</g>
<g>
</g>
<g>
</g>
<g>
</g>
<g>
</g>
<g>
</g>
<g>
</g>
<g>
</g>
<g>
</g>
<g>
</g>
<g>
</g>
<g>
</g>
<g>
</g>
</svg>
