<?xml version="1.0" encoding="iso-8859-1"?>
<!-- Generator: Adobe Illustrator 19.0.0, SVG Export Plug-In . SVG Version: 6.00 Build 0)  -->
<svg version="1.1" id="Capa_1" xmlns="http://www.w3.org/2000/svg" xmlns:xlink="http://www.w3.org/1999/xlink" x="0px" y="0px"
	 viewBox="0 0 512 512" style="enable-background:new 0 0 512 512;" xml:space="preserve">
<path style="fill:#455A64;" d="M448,64h-48V16c0-8.832-7.168-16-16-16H96C69.536,0,48,21.536,48,48v400c0,35.296,28.704,64,64,64
	h336c8.832,0,16-7.168,16-16V80C464,71.168,456.832,64,448,64z"/>
<g>
	<path style="fill:#FAFAFA;" d="M96,32h272v32H96c-8.832,0-16-7.168-16-16S87.168,32,96,32z"/>
	<path style="fill:#FAFAFA;" d="M275.104,161.248c-47.072-5.952-93.952,11.104-125.664,45.888
		c-32.128,35.328-44.416,82.816-33.664,130.304c11.936,52.768,53.728,94.656,106.528,106.72c11.328,2.592,22.624,3.872,33.792,3.872
		c22.144,0,43.744-5.024,63.744-14.944c7.936-3.936,11.168-13.536,7.264-21.44c-3.968-8-13.6-11.168-21.44-7.264
		c-23.392,11.648-49.76,14.592-76.224,8.576c-40.224-9.184-73.344-42.4-82.432-82.624c-8.416-37.12,1.088-74.176,26.112-101.664
		c24.992-27.488,60.608-40.576,97.856-35.68C326.272,200.096,368,250.4,368,309.952V320c0,17.632-14.336,32-32,32
		c-8.8,0-16-7.168-16-16v-80c0-8.832-7.168-16-16-16c-6.56,0-12.16,3.968-14.624,9.6C279.84,243.584,268.64,240,256,240
		c-37.696,0-64,29.6-64,72s26.304,72,64,72c17.408,0,32.192-6.528,43.264-17.472C308.064,377.12,321.184,384,336,384
		c35.296,0,64-28.704,64-64v-10.048C400,234.336,346.272,170.432,275.104,161.248z M256,352c-19.744,0-32-15.328-32-40
		s12.256-40,32-40s32,15.328,32,40S275.744,352,256,352z"/>
</g>
<g>
</g>
<g>
</g>
<g>
</g>
<g>
</g>
<g>
</g>
<g>
</g>
<g>
</g>
<g>
</g>
<g>
</g>
<g>
</g>
<g>
</g>
<g>
</g>
<g>
</g>
<g>
</g>
<g>
</g>
</svg>
