<?xml version="1.0" encoding="iso-8859-1"?>
<!-- Generator: Adobe Illustrator 19.0.0, SVG Export Plug-In . SVG Version: 6.00 Build 0)  -->
<svg version="1.1" id="Capa_1" xmlns="http://www.w3.org/2000/svg" xmlns:xlink="http://www.w3.org/1999/xlink" x="0px" y="0px"
	 viewBox="0 0 512 512" style="enable-background:new 0 0 512 512;" xml:space="preserve">
<path style="fill:#FFC107;" d="M496,0H144c-8.832,0-16,7.168-16,16v480c0,8.832,7.168,16,16,16h352c8.832,0,16-7.168,16-16V16
	C512,7.168,504.832,0,496,0z"/>
<path style="fill:#FFD54F;" d="M496,0H144c-8.832,0-16,7.168-16,16v16l80,64h224l80-64V16C512,7.168,504.832,0,496,0z"/>
<path style="fill:#F44336;" d="M416,192v32L208,336L0,224v-32c0-17.6,14.4-32,32-32h352C401.6,160,416,174.4,416,192z"/>
<path style="fill:#D32F2F;" d="M416,224v192c0,17.6-14.4,32-32,32H32c-17.6,0-32-14.4-32-32V224l208,112L416,224z"/>
<g>
</g>
<g>
</g>
<g>
</g>
<g>
</g>
<g>
</g>
<g>
</g>
<g>
</g>
<g>
</g>
<g>
</g>
<g>
</g>
<g>
</g>
<g>
</g>
<g>
</g>
<g>
</g>
<g>
</g>
</svg>
