<?xml version="1.0" encoding="iso-8859-1"?>
<!-- Generator: Adobe Illustrator 19.0.0, SVG Export Plug-In . SVG Version: 6.00 Build 0)  -->
<svg version="1.1" id="Capa_1" xmlns="http://www.w3.org/2000/svg" xmlns:xlink="http://www.w3.org/1999/xlink" x="0px" y="0px"
	 viewBox="0 0 479.992 479.992" style="enable-background:new 0 0 479.992 479.992;" xml:space="preserve">
<path style="fill:#455A64;" d="M475.84,229.236l-160-176c-4.448-4.896-11.424-6.528-17.632-4.16
	C292.064,51.444,288,57.364,288,63.988v96H16c-8.832,0-16,7.168-16,16v128c0,8.832,7.168,16,16,16h272v96
	c0,6.624,4.064,12.544,10.208,14.944c1.888,0.704,3.84,1.056,5.792,1.056c4.416,0,8.736-1.856,11.84-5.248l160-176
	C481.376,244.66,481.376,235.316,475.84,229.236z"/>
<g>
</g>
<g>
</g>
<g>
</g>
<g>
</g>
<g>
</g>
<g>
</g>
<g>
</g>
<g>
</g>
<g>
</g>
<g>
</g>
<g>
</g>
<g>
</g>
<g>
</g>
<g>
</g>
<g>
</g>
</svg>
