<?xml version="1.0" encoding="iso-8859-1"?>
<!-- Generator: Adobe Illustrator 19.0.0, SVG Export Plug-In . SVG Version: 6.00 Build 0)  -->
<svg version="1.1" id="Capa_1" xmlns="http://www.w3.org/2000/svg" xmlns:xlink="http://www.w3.org/1999/xlink" x="0px" y="0px"
	 viewBox="0 0 512 512" style="enable-background:new 0 0 512 512;" xml:space="preserve">
<path style="fill:#FFC107;" d="M495.989,0c0,0-24,496-400,416c-20.992-59.008-38.016-152,80-256c-6.016,80.992,33.984,96,33.984,96
	s-7.296-102.112,48.704-134.112C347.701,74.88,425.973,56.992,495.989,0z"/>
<g>
	<path style="fill:#455A64;" d="M31.989,512c-2.688,0-5.408-0.672-7.904-2.08c-7.68-4.384-10.336-14.112-5.984-21.824
		c3.168-5.568,79.456-137.248,262.656-230.368c7.84-4.032,17.472-0.896,21.504,7.008c4,7.872,0.864,17.504-7.008,21.504
		C121.141,374.784,46.645,502.624,45.909,503.904C42.933,509.088,37.525,512,31.989,512z"/>
	<path style="fill:#455A64;" d="M351.989,512h-256c-8.832,0-16-7.168-16-16s7.168-16,16-16h256c8.832,0,16,7.168,16,16
		S360.821,512,351.989,512z"/>
</g>
<g>
</g>
<g>
</g>
<g>
</g>
<g>
</g>
<g>
</g>
<g>
</g>
<g>
</g>
<g>
</g>
<g>
</g>
<g>
</g>
<g>
</g>
<g>
</g>
<g>
</g>
<g>
</g>
<g>
</g>
</svg>
