<?xml version="1.0" encoding="iso-8859-1"?>
<!-- Generator: Adobe Illustrator 19.0.0, SVG Export Plug-In . SVG Version: 6.00 Build 0)  -->
<svg version="1.1" id="Capa_1" xmlns="http://www.w3.org/2000/svg" xmlns:xlink="http://www.w3.org/1999/xlink" x="0px" y="0px"
	 viewBox="0 0 512 512" style="enable-background:new 0 0 512 512;" xml:space="preserve">
<path style="fill:#F44336;" d="M512,112v32L256,256L0,144v-32c0-17.6,14.4-32,32-32h448C497.6,80,512,94.4,512,112z"/>
<path style="fill:#D32F2F;" d="M512,144v256c0,17.6-14.4,32-32,32H32c-17.6,0-32-14.4-32-32V144l256,112L512,144z"/>
<path style="fill:#ECEFF1;" d="M309.984,144c-19.424,0-38.688,6.56-53.984,17.984C240.704,150.56,221.408,144,201.984,144
	C156,144,120,178.144,120,221.728c0,60.416,106.176,130.4,127.456,143.808C250.08,367.2,253.024,368,256,368
	c2.912,0,5.824-0.768,8.416-2.368C277.472,357.568,392,285.024,392,221.728C392,178.144,355.968,144,309.984,144z"/>
<g>
</g>
<g>
</g>
<g>
</g>
<g>
</g>
<g>
</g>
<g>
</g>
<g>
</g>
<g>
</g>
<g>
</g>
<g>
</g>
<g>
</g>
<g>
</g>
<g>
</g>
<g>
</g>
<g>
</g>
</svg>
