<?xml version="1.0" encoding="iso-8859-1"?>
<!-- Generator: Adobe Illustrator 19.0.0, SVG Export Plug-In . SVG Version: 6.00 Build 0)  -->
<svg version="1.1" id="Capa_1" xmlns="http://www.w3.org/2000/svg" xmlns:xlink="http://www.w3.org/1999/xlink" x="0px" y="0px"
	 viewBox="0 0 512 512" style="enable-background:new 0 0 512 512;" xml:space="preserve">
<path style="fill:#FFA000;" d="M480,144H32V80c0-17.664,14.336-32,32-32h384c17.664,0,32,14.336,32,32V144z"/>
<path style="fill:#FFC107;" d="M480,112H32c-17.632,0-32,14.368-32,32v288c0,17.664,14.368,32,32,32h448c17.664,0,32-14.336,32-32
	V144C512,126.368,497.664,112,480,112z"/>
<g>
	<path style="fill:#FAFAFA;" d="M432,176h-96c-8.832,0-16,7.168-16,16v96c0,8.832,7.168,16,16,16h96c8.832,0,16-7.168,16-16v-96
		C448,183.168,440.832,176,432,176z"/>
	<path style="fill:#FAFAFA;" d="M272,400H80c-8.832,0-16-7.168-16-16s7.168-16,16-16h192c8.832,0,16,7.168,16,16
		S280.832,400,272,400z"/>
	<path style="fill:#FAFAFA;" d="M208,336H80c-8.832,0-16-7.168-16-16s7.168-16,16-16h128c8.832,0,16,7.168,16,16
		S216.832,336,208,336z"/>
</g>
<g>
</g>
<g>
</g>
<g>
</g>
<g>
</g>
<g>
</g>
<g>
</g>
<g>
</g>
<g>
</g>
<g>
</g>
<g>
</g>
<g>
</g>
<g>
</g>
<g>
</g>
<g>
</g>
<g>
</g>
</svg>
