<?xml version="1.0" encoding="iso-8859-1"?>
<!-- Generator: Adobe Illustrator 19.0.0, SVG Export Plug-In . SVG Version: 6.00 Build 0)  -->
<svg version="1.1" id="Capa_1" xmlns="http://www.w3.org/2000/svg" xmlns:xlink="http://www.w3.org/1999/xlink" x="0px" y="0px"
	 viewBox="0 0 496 496" style="enable-background:new 0 0 496 496;" xml:space="preserve">
<path style="fill:#1E88E5;" d="M384,360H32c-17.7,0-32-14.3-32-32V72c0-17.7,14.3-32,32-32h352c17.7,0,32,14.3,32,32v256
	C416,345.7,401.7,360,384,360z"/>
<path style="fill:#2196F3;" d="M384,360H32c-18,0-32-14-32-32c0-5.1,2.4-9.9,6.5-12.9l192-144c2.8-2.1,6.1-3.1,9.5-3.1
	s6.7,1,9.5,3.1l192,144c4.1,3,6.5,7.8,6.5,12.9C416,346,402,360,384,360z"/>
<path style="fill:#64B5F6;" d="M384,40H32C14,40,0,54,0,72c0,5.1,2.4,9.9,6.5,12.9l192,144c2.8,2.1,6.1,3.1,9.5,3.1s6.7-1,9.5-3.1
	l192-144c4.1-3,6.5-7.8,6.5-12.9C416,54,402,40,384,40z"/>
<path style="fill:#FAFAFA;" d="M416.9,328.1v-23.7c-15.3-4.8-32.1-8.3-48.9-8.3h-16v-32c0-12.1-6.8-23.2-17.7-28.6
	c-10.8-5.4-23.8-4.2-33.5,3l-128,96c-8.1,6-13.3,16.6-13.3,26.6l224.1-0.6C401.2,360.4,416.9,345.7,416.9,328.1z"/>
<path style="fill:#455A64;" d="M320,328h48c70.7,0,128,57.3,128,128l-7.7-7.7c-36.2-36.2-84.8-56.3-136-56.3H320v64l-128-96l128-96
	V328z"/>
<g>
</g>
<g>
</g>
<g>
</g>
<g>
</g>
<g>
</g>
<g>
</g>
<g>
</g>
<g>
</g>
<g>
</g>
<g>
</g>
<g>
</g>
<g>
</g>
<g>
</g>
<g>
</g>
<g>
</g>
</svg>
