<?xml version="1.0" encoding="iso-8859-1"?>
<!-- Generator: Adobe Illustrator 19.0.0, SVG Export Plug-In . SVG Version: 6.00 Build 0)  -->
<svg version="1.1" id="Capa_1" xmlns="http://www.w3.org/2000/svg" xmlns:xlink="http://www.w3.org/1999/xlink" x="0px" y="0px"
	 viewBox="0 0 512 512" style="enable-background:new 0 0 512 512;" xml:space="preserve">
<path style="fill:#1E88E5;" d="M384,368H32c-17.7,0-32-14.3-32-32V80c0-17.7,14.3-32,32-32h352c17.7,0,32,14.3,32,32v256
	C416,353.7,401.7,368,384,368z"/>
<path style="fill:#2196F3;" d="M384,368H32c-18,0-32-14-32-32c0-5.1,2.4-9.9,6.5-12.9l192-144c2.8-2.1,6.1-3.1,9.5-3.1
	s6.7,1,9.5,3.1l192,144c4.1,3,6.5,7.8,6.5,12.9C416,354,402,368,384,368z"/>
<path style="fill:#64B5F6;" d="M384,48H32C14,48,0,62,0,80c0,5.1,2.4,9.9,6.5,12.9l192,144c2.8,2.1,6.1,3.1,9.5,3.1s6.7-1,9.5-3.1
	l192-144c4.1-3,6.5-7.8,6.5-12.9C416,62,402,48,384,48z"/>
<path style="fill:#FAFAFA;" d="M403.2,246.4c-9.7-7.3-22.7-8.5-33.5-3c-10.8,5.4-17.7,16.5-17.7,28.6v32h-16
	c-52.1,0-98.1,25.6-127.3,64.2L384,369c17.6,0,33-15.3,33-32.9v-79.5L403.2,246.4z"/>
<path style="fill:#455A64;" d="M384,272l128,96l-128,96v-64h-32.3c-51.2,0-99.8,20.2-136,56.3L208,464c0-70.7,57.3-128,128-128h48
	V272z"/>
<g>
</g>
<g>
</g>
<g>
</g>
<g>
</g>
<g>
</g>
<g>
</g>
<g>
</g>
<g>
</g>
<g>
</g>
<g>
</g>
<g>
</g>
<g>
</g>
<g>
</g>
<g>
</g>
<g>
</g>
</svg>
