<?xml version="1.0" encoding="iso-8859-1"?>
<!-- Generator: Adobe Illustrator 19.0.0, SVG Export Plug-In . SVG Version: 6.00 Build 0)  -->
<svg version="1.1" id="Capa_1" xmlns="http://www.w3.org/2000/svg" xmlns:xlink="http://www.w3.org/1999/xlink" x="0px" y="0px"
	 viewBox="0 0 512 512" style="enable-background:new 0 0 512 512;" xml:space="preserve">
<g>
	<path style="fill:#FFA000;" d="M496,320h-96c-6.88,0-12.992,4.416-15.2,10.944L356.48,384H155.552L127.2,330.944
		C125.024,324.416,118.912,320,112,320H16c-8.832,0-16,7.168-16,16v144c0,17.664,14.368,32,32,32h448c17.664,0,32-14.336,32-32V336
		C512,327.168,504.832,320,496,320z"/>
	<path style="fill:#FFA000;" d="M510.592,105.536c-0.224-0.544-0.672-0.928-0.96-1.44c-0.8-1.408-1.696-2.72-2.88-3.808
		c-0.128-0.128-0.192-0.32-0.32-0.416l-112-96C391.488,1.344,387.808,0,384,0H128c-3.808,0-7.52,1.344-10.4,3.872l-112,96
		c-0.16,0.096-0.192,0.288-0.32,0.416c-1.216,1.12-2.112,2.432-2.944,3.872c-0.256,0.48-0.704,0.864-0.928,1.376
		C0.544,107.52,0,109.696,0,112v144c0,17.664,14.368,32,32,32h448c17.664,0,32-14.336,32-32V112
		C512,109.696,511.456,107.52,510.592,105.536z"/>
</g>
<path style="fill:#FAFAFA;" d="M133.92,32h244.16l74.656,64H400c-6.048,0-11.584,3.424-14.304,8.832L358.112,160H153.92
	l-27.584-55.168C123.616,99.424,118.08,96,112,96H59.264L133.92,32z"/>
<g>
</g>
<g>
</g>
<g>
</g>
<g>
</g>
<g>
</g>
<g>
</g>
<g>
</g>
<g>
</g>
<g>
</g>
<g>
</g>
<g>
</g>
<g>
</g>
<g>
</g>
<g>
</g>
<g>
</g>
</svg>
