<?xml version="1.0" encoding="iso-8859-1"?>
<!-- Generator: Adobe Illustrator 19.0.0, SVG Export Plug-In . SVG Version: 6.00 Build 0)  -->
<svg version="1.1" id="Capa_1" xmlns="http://www.w3.org/2000/svg" xmlns:xlink="http://www.w3.org/1999/xlink" x="0px" y="0px"
	 viewBox="0 0 512 512" style="enable-background:new 0 0 512 512;" xml:space="preserve">
<path style="fill:#2196F3;" d="M396.864,144.032C381.952,70.016,317.088,16,240,16c-66.304,0-125.056,40.448-148.864,101.536
	C37.824,133.6,0,183.712,0,240c0,70.592,57.408,128,128,128h272c61.76,0,112-50.24,112-112
	C512,193.248,459.296,142.336,396.864,144.032z"/>
<path style="fill:#FAFAFA;" d="M448.512,272c0-17.664-14.336-32-32-32h-320c-17.664,0-32,14.336-32,32v78.464
	C83.296,361.312,104.8,368,128,368h272c17.44,0,33.76-4.352,48.512-11.52V272z"/>
<path style="fill:#F44336;" d="M416,288v35.84L256,384L96,323.84V288c0-8.832,7.168-16,16-16h288C408.832,272,416,279.168,416,288z"
	/>
<path style="fill:#D32F2F;" d="M416,323.84V480c0,8.832-7.168,16-16,16H112c-8.832,0-16-7.168-16-16V323.84L256,384L416,323.84z"/>
<g>
</g>
<g>
</g>
<g>
</g>
<g>
</g>
<g>
</g>
<g>
</g>
<g>
</g>
<g>
</g>
<g>
</g>
<g>
</g>
<g>
</g>
<g>
</g>
<g>
</g>
<g>
</g>
<g>
</g>
</svg>
