<?xml version="1.0" encoding="iso-8859-1"?>
<!-- Generator: Adobe Illustrator 19.0.0, SVG Export Plug-In . SVG Version: 6.00 Build 0)  -->
<svg version="1.1" id="Capa_1" xmlns="http://www.w3.org/2000/svg" xmlns:xlink="http://www.w3.org/1999/xlink" x="0px" y="0px"
	 viewBox="0 0 512 512" style="enable-background:new 0 0 512 512;" xml:space="preserve">
<path style="fill:#ECEFF1;" d="M416,32v32L208,176L0,64V32C0,14.4,14.4,0,32,0h352C401.6,0,416,14.4,416,32z"/>
<path style="fill:#CFD8DC;" d="M416,64v192c0,17.6-14.4,32-32,32H32c-17.6,0-32-14.4-32-32V64l208,112L416,64z"/>
<path style="fill:#2196F3;" d="M480,192H192c-17.632,0-32,14.368-32,32v192c0,17.952,14.048,32,32,32h32v48
	c0,6.144,3.52,11.744,9.056,14.4c2.24,1.056,4.576,1.6,6.944,1.6c3.552,0,7.104-1.184,10.016-3.488L325.632,448H480
	c17.952,0,32-14.048,32-32V224C512,206.048,497.952,192,480,192z"/>
<g>
</g>
<g>
</g>
<g>
</g>
<g>
</g>
<g>
</g>
<g>
</g>
<g>
</g>
<g>
</g>
<g>
</g>
<g>
</g>
<g>
</g>
<g>
</g>
<g>
</g>
<g>
</g>
<g>
</g>
</svg>
