<?xml version="1.0" encoding="iso-8859-1"?>
<!-- Generator: Adobe Illustrator 19.0.0, SVG Export Plug-In . SVG Version: 6.00 Build 0)  -->
<svg version="1.1" id="Capa_1" xmlns="http://www.w3.org/2000/svg" xmlns:xlink="http://www.w3.org/1999/xlink" x="0px" y="0px"
	 viewBox="0 0 512 512" style="enable-background:new 0 0 512 512;" xml:space="preserve">
<path style="fill:#455A64;" d="M480,0H32C14.368,0,0,14.368,0,32v448c0,17.664,14.368,32,32,32h448c17.664,0,32-14.336,32-32V32
	C512,14.368,497.664,0,480,0z"/>
<polygon style="fill:#FAFAFA;" points="480,496 480,480 32,480 32,96 480,96 480,480 480.032,480 "/>
<circle style="fill:#2196F3;" cx="464" cy="48" r="16"/>
<circle style="fill:#FFC107;" cx="400" cy="48" r="16"/>
<path style="fill:#64B5F6;" d="M384,288H128v-80c0-8.832,7.168-16,16-16h224c8.832,0,16,7.168,16,16V288z"/>
<path style="fill:#2196F3;" d="M384,224v112c0,8.8-7.2,16-16,16H144c-8.8,0-16-7.2-16-16V224l128,64L384,224z"/>
<g>
</g>
<g>
</g>
<g>
</g>
<g>
</g>
<g>
</g>
<g>
</g>
<g>
</g>
<g>
</g>
<g>
</g>
<g>
</g>
<g>
</g>
<g>
</g>
<g>
</g>
<g>
</g>
<g>
</g>
</svg>
